<svg xmlns="http://www.w3.org/2000/svg" viewBox="0 0 367.18 328.72"><g id="Layer_2" data-name="Layer 2"><g id="OBJECTS"><path d="M303.81,272.45c2.9-9.44,3.12-19.34,3.41-29.12.3-10.22,1-20.32,4.33-30.07a76.84,76.84,0,0,1,16.6-27.35c7.28-7.89,15.44-14.93,21.66-23.75a94.74,94.74,0,0,0,16.37-43.84,1.82,1.82,0,0,0,.64-1.33c2.06-27.74-4.89-56.06-21.2-78.78A105.1,105.1,0,0,0,313.35,8.6c-6.49-3.77-13.43-6.81-20.87-8a46.83,46.83,0,0,0-19.6,1.1,54.82,54.82,0,0,0-8.21,2.93,31.19,31.19,0,0,0-13,5.57c-6.35,4.62-11.09,11.1-14.72,18-.63.88-1.25,1.77-1.85,2.67a2,2,0,0,0-.28,1.71c-7.65,16.93-11.77,39.32-30.24,48.11-19.12,9.1-34.83-9.76-47.68-21.07-15.43-13.58-33.22-25.83-54-28.88-17.81-2.62-36.26,1.56-52,9.94a99.12,99.12,0,0,0-39.8,38.61c-9,16-13.33,35-9.93,53.24,3.17,17.06,12.44,33.16,26.25,43.79a62.3,62.3,0,0,0,24,11.15C61,189.74,71,190.3,80.61,192.88a51.51,51.51,0,0,1,26,16.54c7.19,8.34,12.27,18.11,17,28s9.22,19.85,15.27,29A136.8,136.8,0,0,0,160.24,291a221.07,221.07,0,0,0,25.11,19.84A122.32,122.32,0,0,0,209.19,324,61,61,0,0,0,235,328.64c9.78-.55,18.81-4.48,27-9.62a136.93,136.93,0,0,0,24.78-19.76C294.28,291.66,300.66,282.74,303.81,272.45Z" style="fill:#eae0b6"/></g></g></svg>