<svg xmlns="http://www.w3.org/2000/svg" viewBox="0 0 21.38 38.17"><g id="Layer_2" data-name="Layer 2"><g id="OBJECTS"><path d="M11.41,29.24a38.32,38.32,0,0,0-.93-6.59A9.89,9.89,0,0,0,7.7,18.11a9.35,9.35,0,0,0,4-5.35c1.06-3.63.26-7.35.09-11A1.74,1.74,0,0,0,10.12,0,1.72,1.72,0,0,0,8.38,1.66c.14,3.05.9,6.27.26,9.31-.48,2.29-1.83,4.43-4.3,4.78a1.27,1.27,0,0,0-.56.24,9.1,9.1,0,0,0-2.1-.3c-2.18,0-2.27,3.37-.08,3.39a5.82,5.82,0,0,1,3.76,1.37,7.11,7.11,0,0,1,2.13,4.27c.72,3.84.89,7.83,1.3,11.71a1.75,1.75,0,0,0,1.65,1.74,1.7,1.7,0,0,0,1.73-1.66C11.92,34.09,11.67,31.66,11.41,29.24Z" style="fill:#ec985a"/><path d="M10.34,29.27a38.55,38.55,0,0,1,.73-6.62A9.79,9.79,0,0,1,13.71,18,9.32,9.32,0,0,1,9.56,12.8c-1.18-3.59-.49-7.33-.43-11a1.69,1.69,0,0,1,3.38-.18c0,3.06-.7,6.3,0,9.32.55,2.27,2,4.37,4.45,4.64a1.41,1.41,0,0,1,.57.22,9.52,9.52,0,0,1,2.09-.36c2.18-.09,2.37,3.3.18,3.39a5.81,5.81,0,0,0-3.71,1.48,7.1,7.1,0,0,0-2,4.33c-.6,3.86-.65,7.86-.93,11.75a1.77,1.77,0,0,1-1.6,1.79,1.72,1.72,0,0,1-1.79-1.6Z" style="fill:#ec985a"/></g></g></svg>