<svg xmlns="http://www.w3.org/2000/svg" viewBox="0 0 209.93 332.03"><g id="Layer_2" data-name="Layer 2"><g id="OBJECTS"><path d="M173.6,302.24A14.15,14.15,0,0,0,168,289.75c-4.33-3.14-9.86-3.59-14.82-5.15a25.94,25.94,0,0,1-8.47-4.48c-2.36-1.88-5.22-4.6-5.86-7.7-1.26-6.11,7-8.18,11.44-7.47C157,266,160.39,271.72,165,276c3.7,3.43,8.49,5.94,13.63,4.53,4.91-1.34,8.89-5.6,11.72-9.64s2.79-9-1.1-12.44c-4.46-4-11.26-4.05-16.75-5.7s-12.89-5.73-12.08-12.68,8.08-6.77,12.71-3.74,8.87,10.89,15.15,7.39c5.54-3.08,9.9-8.95,13-14.35a83.77,83.77,0,0,0,7.67-18.89c1.52-5.47,1.67-11.27-2-15.63a1.72,1.72,0,0,0-.85-1.42,106.27,106.27,0,0,0-25.67-11.86c-6.89-2.11-14.79-2.91-19.26,3.93-1.82,2.78-2.73,6-3.74,9.15-.93,2.89-1.9,6.27-4.34,8.27-3.17,2.59-7.75,1.47-10.32-1.43-3-3.35-3.06-8.45-1.76-12.53,1.44-4.54,4.43-7.84,7-11.72a7.67,7.67,0,0,0-.08-9.24c-5.35-7.12-16.57-3.2-23.45-1.07-7.68,2.37-16.82,5.68-20.48,13.5-3.16,6.75,0,13.79.94,20.64.48,3.65,0,7.32-2.62,10.07-2.48,2.56-6.37,4-9.7,2.21-8.55-4.47-4.9-17.16-4.49-24.59.22-3.95-.48-7.43-4.07-9.66a16.59,16.59,0,0,0-10.82-1.84c-9,1.26-15.65,7.94-20.53,15.1-4.3,6.29-8.45,13.46-9.27,21.18-.91,8.46,3.52,15.09,10.35,19.69,5.73,3.86,20.34,9.18,16.36,18.52-1.68,3.95-6.1,6.82-10.43,5.86-3.13-.69-5.76-2.95-8.16-4.94-4.76-4-10.36-8.85-17-6.57-6.49,2.22-9.67,10-8.45,16.43,1.56,8.14,8.27,14.34,14.58,19.14,6.14,4.67,13.23,8.41,20.92,9.64a28.76,28.76,0,0,0,7,.17,32.83,32.83,0,0,0,.61,6.74c.72,4.38,1.28,8.82,2.22,13.16,1.81,8.42,7.86,13.83,15.25,17.72,6,3.16,13.67,4.61,19.28-.24,2.31-2,4-5.23,3.47-8.37-.62-3.48-3.7-6.19-5.89-8.75-1.36-1.58-2.77-3.31-3.14-5.43s.43-4.64,1.2-6.68c.85-2.26,2.23-4.83,4.63-5.72,1.93-.72,4.3-.25,5.23,1.68a2.29,2.29,0,0,0,.06.51,65.85,65.85,0,0,0,8.6,17.28c3.34,4.78,7.4,9.93,13.34,11.37,5.31,1.29,11.41.45,16.62-.91a41.26,41.26,0,0,0,16-7.75C170.13,312.64,173.29,307.77,173.6,302.24Z" style="fill:#407062"/><path d="M186.36,205.16c2.41-.81.71-4.37-1.67-3.57-41,13.92-77.69,40.66-105,74.09a236.71,236.71,0,0,0-20.85,30.08c-1.27,2.17,2,4.41,3.27,2.21A236.16,236.16,0,0,1,153,219.91,216.73,216.73,0,0,1,186.36,205.16Z" style="fill:#68af97"/><path d="M73.65,7.23C73.47,5.16,73,2.94,71.4,1.46,67.35-2.33,62.54,2.12,59.64,5,56.25,8.4,53,12,50,15.65c-12.14,14.7-21.52,31.42-28.71,49A248.12,248.12,0,0,0,12,91.77C9.27,101.69,6.51,112,6,122.28a51.6,51.6,0,0,0,.23,8.15A1.86,1.86,0,0,0,8,132.22a2,2,0,0,0,1.89.05c8.5-3.88,15.41-10.42,21.23-17.61A226.67,226.67,0,0,0,48.19,89.74C59.25,71.6,68.25,51.86,71.92,30.81a119.17,119.17,0,0,0,1.74-16.1A62.22,62.22,0,0,0,73.65,7.23Z" style="fill:#dd8542"/><path d="M60.07,18.54c-9,16.81-18,33.64-26.32,50.77a537.62,537.62,0,0,0-22.61,52.4c-3.65,10-6.88,20.22-9.6,30.54-.59,2.24,2.88,3.2,3.47,1a386.15,386.15,0,0,1,18.6-53.3c7.44-17.4,15.82-34.37,24.54-51.15,4.93-9.51,10-19,15-28.41C64.26,18.31,61.16,16.49,60.07,18.54Z" style="fill:#b85e2c"/><path d="M153.25,47.81c.81-2.43,1.34-5.19.28-7.63-2.73-6.28-10.36-3.6-15.06-1.74-5.5,2.17-10.89,4.62-16.15,7.3-20.95,10.69-39.77,25-56.55,41.44A305.87,305.87,0,0,0,42,113.32c-8,9.87-16.17,20.14-21.82,31.58a64.87,64.87,0,0,0-3.74,9.33,2.31,2.31,0,0,0,1.1,2.89,2.44,2.44,0,0,0,2.11,1c11.53-.22,22.56-4.24,32.68-9.53A279.23,279.23,0,0,0,84,128.75c21.42-15.12,41.29-33,55.77-55.08a148.1,148.1,0,0,0,9.86-17.39A74.6,74.6,0,0,0,153.25,47.81Z" style="fill:#ec985a"/><path d="M132.33,54C113.91,68.59,95.5,83.24,77.62,98.54a664.15,664.15,0,0,0-51.29,48.24c-9,9.57-17.7,19.52-25.84,29.87-1.77,2.25,1.69,5,3.45,2.78a476.76,476.76,0,0,1,47.21-51.22C68.1,112.16,85.91,97.06,104,82.33,114.26,74,124.6,65.76,135,57.53,137.18,55.75,134.56,52.18,132.33,54Z" style="fill:#b85e2c"/></g></g></svg>