<svg xmlns="http://www.w3.org/2000/svg" viewBox="0 0 376.88 408.42"><g id="Layer_2" data-name="Layer 2"><g id="OBJECTS"><ellipse cx="188.44" cy="366.14" rx="188.44" ry="42.28" style="fill:#c3b696"/><path d="M247.27,136.73c-8.28-26.42-38.34-39.27-64.37-34.84-26-4.42-56.08,8.42-64.35,34.84-6.79,31.63,1.65,64.65,10.46,95.11,5.55,17.61,8.5,30.21,30.1,30.3a208.26,208.26,0,0,0,47.61,0c21.41,0,24.65-12.78,30.1-30.3C245.62,201.38,254.07,168.36,247.27,136.73Z" style="fill:#68af97"/><path d="M197.59,102.46c-.43-1-.89-2-1.32-3q-2-4.65-3.77-9.38c-.35-.93-.69-1.86-1-2.8-.8-2.17-1.55-4.35-2.28-6.55a.73.73,0,0,0-.53-1.21,11,11,0,0,0-4.19,1.15c-1.37.6-2.72,1.24-4.06,1.89a64.07,64.07,0,0,0-7.57,4.18,20.23,20.23,0,0,0-3.57,3,.7.7,0,0,0-.12.81l0,.17a24.14,24.14,0,0,1,.72,4.72c.18,1.7.35,3.41.52,5.12.12,1.2.25,2.41.37,3.62l.66,6.53a.81.81,0,0,0,.3.58.74.74,0,0,0,.15.21,7.67,7.67,0,0,0,4.82,1.92,20.46,20.46,0,0,0,5.3-.28,23.84,23.84,0,0,0,9.74-4c.61-.43,1.18-.89,1.74-1.36a19.79,19.79,0,0,0,3.67-2.5A2.19,2.19,0,0,0,197.59,102.46Z" style="fill:#eaaa91"/><path d="M191.47,87.25c-.8-2.17-1.55-4.35-2.28-6.55a.73.73,0,0,0-.53-1.21,11,11,0,0,0-4.19,1.15c-1.37.6-2.72,1.24-4.06,1.89a64.07,64.07,0,0,0-7.57,4.18,20.23,20.23,0,0,0-3.57,3,.7.7,0,0,0-.12.81l0,.17a24.14,24.14,0,0,1,.72,4.72c.18,1.7.35,3.41.52,5.12.12,1.2.25,2.41.37,3.62a16.45,16.45,0,0,0,3.11-.46,23.57,23.57,0,0,0,8.23-3.91,55.88,55.88,0,0,0,6.93-6.12c1.09-1.1,2.2-2.2,3.24-3.35l.2-.21C192.15,89.12,191.81,88.19,191.47,87.25Z" style="fill:#db896e"/><path d="M146.94,56.87a21.56,21.56,0,0,0-3.58-6,17.71,17.71,0,0,0-3.54-3.21,4.64,4.64,0,0,0-4.76-.54,5.83,5.83,0,0,0-2.95,4A15.18,15.18,0,0,0,132,56.6a9.78,9.78,0,0,0,1.86,4.89,12.24,12.24,0,0,0,3.93,3.21l.6.32a7.54,7.54,0,0,0,4.23,1.1,4,4,0,0,0,3.19-3.05,17.67,17.67,0,0,0,.81-5.17A.78.78,0,0,0,146.94,56.87Z" style="fill:#eaaa91"/><path d="M146.94,56.87a21.56,21.56,0,0,0-3.58-6,85.15,85.15,0,0,1-5,14.16,7.54,7.54,0,0,0,4.23,1.1,4,4,0,0,0,3.19-3.05,17.67,17.67,0,0,0,.81-5.17A.78.78,0,0,0,146.94,56.87Z" style="fill:#db896e"/><path d="M137.91,53.07a2.47,2.47,0,0,0-1.17-.7.66.66,0,0,1-.65-.65.65.65,0,0,1,.65-.65,3.36,3.36,0,0,1,1.85.87,7.32,7.32,0,0,1,1.27,1.34,7.53,7.53,0,0,1,1.4,3.29.68.68,0,0,1-.46.81.66.66,0,0,1-.8-.46,6.8,6.8,0,0,0-.28-1.12l-.05,0a1.92,1.92,0,0,0-.32-.09H139l-.11,0a1.92,1.92,0,0,0-.32.09l-.09.05-.15.09,0,0,0,0-.13.12-.12.13c.09-.1,0,.05-.05.08l-.09.15a.3.3,0,0,0-.05.1l-.05.12s0,.11,0,.17l0,.16s0,0,0,.07v.18s0,.19,0,.16a3.11,3.11,0,0,0,.22.75v0l0,.08.09.2.21.41a.66.66,0,0,1-.23.89.67.67,0,0,1-.9-.23,5.89,5.89,0,0,1-.73-2.11,2.8,2.8,0,0,1,.51-1.88A2.58,2.58,0,0,1,139,54.38c-.05-.08-.1-.17-.16-.25A6.35,6.35,0,0,0,137.91,53.07Z" style="fill:#502e1c"/><path d="M198.73,58.67a17.67,17.67,0,0,0-.19,5.23,4,4,0,0,0,2.55,3.6,7.45,7.45,0,0,0,4.37-.28l.65-.19a12.35,12.35,0,0,0,4.47-2.4,9.85,9.85,0,0,0,2.75-4.44,15.48,15.48,0,0,0,.91-5.47,5.86,5.86,0,0,0-2.14-4.45,4.64,4.64,0,0,0-4.78-.37,17.22,17.22,0,0,0-4.09,2.47,21.39,21.39,0,0,0-4.66,5.21A.78.78,0,0,0,198.73,58.67Z" style="fill:#eaaa91"/><path d="M198.73,58.67a17.67,17.67,0,0,0-.19,5.23,4,4,0,0,0,2.55,3.6,7.45,7.45,0,0,0,4.37-.28,83.74,83.74,0,0,1-2.23-14.85,21.39,21.39,0,0,0-4.66,5.21A.78.78,0,0,0,198.73,58.67Z" style="fill:#db896e"/><path d="M208.16,55.58a2.43,2.43,0,0,1,1.28-.46.66.66,0,0,0,.76-.52.65.65,0,0,0-.51-.76,3.4,3.4,0,0,0-2,.5,7.62,7.62,0,0,0-3.5,4,.67.67,0,0,0,.3.88.65.65,0,0,0,.87-.3,7.09,7.09,0,0,1,.49-1l0,0,.33,0h.07l.18,0,.13,0,.1,0a1.59,1.59,0,0,1,.29.15l.08.06.14.12,0,0,0,0,.1.14a1.19,1.19,0,0,1,.09.15c-.06-.11,0,.06,0,.09l.06.17a.62.62,0,0,1,0,.1s0,.11,0,.13,0,.12,0,.17a1,1,0,0,1,0,.17v.07a1.16,1.16,0,0,1,0,.18s0,.18,0,.15a4.25,4.25,0,0,1-.36.7h0l-.06.08-.12.17-.29.37a.66.66,0,0,0,1,.86,5.8,5.8,0,0,0,1.12-1.92,2.91,2.91,0,0,0-.14-1.95,2.72,2.72,0,0,0-1.41-1.4,2.84,2.84,0,0,0-.47-.15l.2-.22A6.23,6.23,0,0,1,208.16,55.58Z" style="fill:#502e1c"/><path d="M201.27,42.06c-1.44-7.86-5.21-16.18-12.64-20a20.16,20.16,0,0,0-12.09-2c-5.48-.34-11,3-15.1,6.31a46.48,46.48,0,0,0-11.26,14.12A70.77,70.77,0,0,0,146.33,49a52.62,52.62,0,0,0-2.93,10.15c-.09.59-.16,1.18-.22,1.78a1,1,0,0,0-.18.52c-.87,11.84,5.22,23.45,14.58,30.5a16.17,16.17,0,0,0,4.28,2.42,18.9,18.9,0,0,0,4.76.91,30,30,0,0,0,9.34-.77,32.32,32.32,0,0,0,15.72-9.12,36.28,36.28,0,0,0,8.51-15.2.82.82,0,0,0,.3-.49l.21-1.62.12-.53a1,1,0,0,0,0-.38C201.92,58.86,202.8,50.4,201.27,42.06Z" style="fill:#eaaa91"/><path d="M171.61,75.9a.31.31,0,0,0-.31-.3,7.31,7.31,0,0,1-2-.34,4.53,4.53,0,0,1-1.78-.89c-.49-.48-.39-1.33-.34-2s.18-1.49.29-2.23c.43-2.92,1-5.82,1.26-8.76,0,0,0,0,0-.06v0c.15-.39-.48-.56-.63-.17Q166.31,66,164.86,71c-.37,1.28-.94,2.74-.62,4.09s1.82,2,3,2.48a3.8,3.8,0,0,0,2.42.19,4.91,4.91,0,0,0,1.91-1.41A.3.3,0,0,0,171.61,75.9Z" style="fill:#db896e"/><path d="M195.11,51.71a.44.44,0,0,0-.44,0c-1.2.88-2.3,1.77-3.32,2.68-.86.76-1.92,1.52-2.2,2.7h0l0,0-.45.84a1,1,0,0,0-.23.69c.11.68.79.42,1.1.32a11.85,11.85,0,0,0,3-1.28,5.79,5.79,0,0,0,2.25-2.59,7.34,7.34,0,0,0,.5-1.85C195.41,52.79,195.64,52.07,195.11,51.71Z" style="fill:#ca5a47"/><path d="M188.35,58.61a.79.79,0,0,0,.31-.24C188.56,58.46,188.45,58.53,188.35,58.61Z" style="fill:#fff"/><path d="M194.69,51.72a.18.18,0,0,1,0,.19,24.32,24.32,0,0,1-5.1,5.63,12.19,12.19,0,0,0-.94.83h0c-.1.09-.21.16-.31.24a6.05,6.05,0,0,1-1.52.83,10.87,10.87,0,0,1-7.09,1,.28.28,0,0,1-.21-.39c-.14,0-.12-.17-.17-.37-.63-2.74-.15-7.34,1.69-8.85,3.92-3.22,10.17-3.46,13.57.28C194.83,51.38,194.9,51.57,194.69,51.72Z" style="fill:#db896e"/><path d="M194.92,51.9c.08-.37-.45-.65-.62-.27l-.14.27a34.51,34.51,0,0,1-6.46,5A31.65,31.65,0,0,1,184,58.72a9.3,9.3,0,0,1-4.42.94.28.28,0,0,0-.27.12.35.35,0,0,0,.11.61c5,1.38,10.17-.93,13.29-4.87a17.55,17.55,0,0,0,2-3.19.94.94,0,0,1,.1-.1A.31.31,0,0,0,194.92,51.9Z" style="fill:#502e1c"/><path d="M189.6,57.54l-.3.29a6.76,6.76,0,0,1-.64.54A12.19,12.19,0,0,1,189.6,57.54Z" style="fill:#502e1c"/><path d="M186.76,41.59a5.54,5.54,0,0,0-2.16-.66,8.48,8.48,0,0,0-2.93,0,2,2,0,0,0-1.07.46,1.59,1.59,0,0,0-.4,1.5,2.37,2.37,0,0,0,1.64,1.62,13.34,13.34,0,0,0,2,.45,7.2,7.2,0,0,0,2.36.11,1.76,1.76,0,0,0,.57-3.43Z" style="fill:#502e1c"/><path d="M147.74,53.22a7.78,7.78,0,0,0,.5,1.85,5.75,5.75,0,0,0,2.26,2.59,11.7,11.7,0,0,0,3,1.28c.31.1,1,.36,1.1-.32a1,1,0,0,0-.23-.69c-.15-.28-.3-.56-.46-.84,0,0,0,0,0,0h0c-.28-1.18-1.35-1.94-2.21-2.7-1-.91-2.12-1.8-3.32-2.68a.42.42,0,0,0-.43,0C147.44,52.07,147.68,52.79,147.74,53.22Z" style="fill:#ca5a47"/><path d="M154.43,58.37a.67.67,0,0,0,.31.24A3.65,3.65,0,0,1,154.43,58.37Z" style="fill:#fff"/><path d="M148.4,51.72a.16.16,0,0,0,0,.19,24.57,24.57,0,0,0,5.11,5.63,11.25,11.25,0,0,1,.93.83s0,0,0,0a3.65,3.65,0,0,0,.31.24,6.17,6.17,0,0,0,1.51.83,10.89,10.89,0,0,0,7.09,1,.28.28,0,0,0,.21-.39c.15,0,.13-.17.18-.37.62-2.74.15-7.34-1.7-8.85-3.92-3.22-10.17-3.46-13.56.28C148.25,51.38,148.18,51.57,148.4,51.72Z" style="fill:#db896e"/><path d="M148.25,52.23l.11.1a17.55,17.55,0,0,0,2,3.19c3.12,3.94,8.29,6.25,13.28,4.87a.35.35,0,0,0,.11-.61.27.27,0,0,0-.27-.12,9.3,9.3,0,0,1-4.42-.94,31.51,31.51,0,0,1-3.66-1.87,34.58,34.58,0,0,1-6.47-5l-.13-.27c-.18-.38-.71-.1-.62.27A.3.3,0,0,0,148.25,52.23Z" style="fill:#502e1c"/><path d="M153.49,57.54a4.11,4.11,0,0,0,.3.29,8.14,8.14,0,0,0,.63.54A11.25,11.25,0,0,0,153.49,57.54Z" style="fill:#502e1c"/><path d="M155.14,43.66A2,2,0,0,0,156.89,45a7.27,7.27,0,0,0,2.37-.11,13.63,13.63,0,0,0,2-.45,2.37,2.37,0,0,0,1.64-1.62,1.61,1.61,0,0,0-.4-1.5,2,2,0,0,0-1.08-.46,8.42,8.42,0,0,0-2.92,0,5.49,5.49,0,0,0-2.16.66A2,2,0,0,0,155.14,43.66Z" style="fill:#502e1c"/><path d="M280.8,199.31a189.88,189.88,0,0,0-16-32.1l-.53-.89c-6-9.89-12.58-19.48-19.34-29-5.25-6.94-9.22-15-16.39-20.55a106,106,0,0,0-.76,25.36,146.92,146.92,0,0,0,11.76,37.5,76.73,76.73,0,0,0,10,15.91c7.37,8.78,9.54,3.17,18.75,10.08C276.08,212.73,284.49,209.17,280.8,199.31Z" style="fill:#db896e"/><path d="M266.46,166.16l-.25.16-1.41.89c-2.2,1.38-4.46,2.68-6.74,3.93-2.86,1.58-5.77,3.05-8.69,4.49-1.46.73-3,1.57-4.48,2.34a29.12,29.12,0,0,1-3.79,1.64,2.47,2.47,0,0,1-1.56,0c-1.44-.46-2.24-2.39-2.9-3.77a78.23,78.23,0,0,1-3.33-8.23,105.9,105.9,0,0,1-4.4-17c-.5-2.82-.87-5.67-1.13-8.52a106,106,0,0,1,.76-25.36c.07-.52.16-1,.24-1.55.32-.81.71-1.59,1.11-2.37,1.32,1.07,2.61,2.18,3.87,3.31h0c1.38,1.23,2.73,2.5,4.06,3.79,3.42,3.33,6.66,6.84,9.76,10.48,4.23,5,8.19,10.22,12,15.56q2.79,3.93,5.5,7.93c.91,1.34,1.81,2.67,2.7,4a15.19,15.19,0,0,1,2.17,3.51C270.66,163.81,268.06,165.12,266.46,166.16Z" style="fill:#68af97"/><path d="M97.29,205.64c9.21-6.91,11.37-1.3,18.75-10.08A77.12,77.12,0,0,0,126,179.65a146.52,146.52,0,0,0,11.76-37.5,105.53,105.53,0,0,0-.76-25.36c-7.16,5.57-11.14,13.61-16.38,20.55-6.77,9.5-13.32,19.09-19.34,29l-.54.89a190.64,190.64,0,0,0-16,32.1C81,209.17,89.46,212.73,97.29,205.64Z" style="fill:#db896e"/><path d="M185.6,199c-14.4,17.6-53.08,20.29-75.14,27.42-13.91,1.81-39.93-8.46-27-25.6,18-13.42,48.55-14.08,68.29-16.62h0a125.79,125.79,0,0,0,14.09-2c8.09-54.47,29.06-27.23,21.23,13.51A7.37,7.37,0,0,1,185.6,199Z" style="fill:#eaaa91"/><path d="M179.93,199c14.41,17.6,53.09,20.29,75.14,27.42,13.91,1.81,39.94-8.46,27-25.6-18-13.42-48.55-14.08-68.3-16.62h0a125.79,125.79,0,0,1-14.09-2c-14.84-54.6-29.07-27.23-21.24,13.51A7.37,7.37,0,0,0,179.93,199Z" style="fill:#eaaa91"/><path d="M193.08,170.81a35,35,0,0,0-7.75-15.28c-1-1.12-2.24-2.83-3.88-3a.44.44,0,0,0-.63-.14,14.86,14.86,0,0,0-4.39,4.64c-1.18,1.8-2.66,3.82-2.8,6a.68.68,0,0,0,0,.14c-1.85,5,1.72,9.82,2.7,14.62.56,2.78-.17,5.54-.2,8.33a24.17,24.17,0,0,0,1.11,7.56,24.8,24.8,0,0,0,4,7.65c.38.5,1.15-.14.77-.64a23.51,23.51,0,0,1-4.86-14.17c0-2.56.65-5.11.38-7.67s-1.46-5.15-2.36-7.66-1.48-5.2-.55-7.73a2.33,2.33,0,0,1,1.59,1.06,18.12,18.12,0,0,1,1.37,2.11,38.41,38.41,0,0,1,2.32,4.68A60.8,60.8,0,0,1,183,181.44c.14.61,1.12.43,1-.18a60.88,60.88,0,0,0-3.49-11.18,35.76,35.76,0,0,0-2.74-5.1c-.7-1.08-1.6-2.38-3-2.46a7.66,7.66,0,0,1,1-2.46c.43-.75.9-1.49,1.37-2.22a.43.43,0,0,0,.12,0c1.6.4,2.6,2.07,3.49,3.3a38.94,38.94,0,0,1,3,4.85,40.09,40.09,0,0,1,3.73,10.48c.12.61,1.1.44,1-.17a40.9,40.9,0,0,0-4-11.12,40.26,40.26,0,0,0-3.12-4.94c-.93-1.28-2-2.83-3.62-3.28a13.14,13.14,0,0,1,3.42-3.59h0a3.28,3.28,0,0,1,2.18,1.33q.89.92,1.71,1.89a33,33,0,0,1,3.17,4.45A33.75,33.75,0,0,1,192.1,171C192.24,171.59,193.22,171.42,193.08,170.81Z" style="fill:#502e1c"/><path d="M99.07,166.16l.26.16,1.4.89c2.2,1.38,4.46,2.68,6.75,3.93,2.85,1.58,5.76,3.05,8.68,4.49,1.46.73,3,1.57,4.48,2.34a29.24,29.24,0,0,0,3.8,1.64,2.43,2.43,0,0,0,1.55,0c1.45-.46,2.24-2.39,2.9-3.77a76.13,76.13,0,0,0,3.33-8.23,104.89,104.89,0,0,0,4.41-17c.49-2.82.86-5.67,1.12-8.52a105.53,105.53,0,0,0-.76-25.36c-.07-.52-.15-1-.24-1.55-.31-.81-.71-1.59-1.1-2.37-1.32,1.07-2.61,2.18-3.88,3.31h0c-1.37,1.23-2.73,2.5-4.06,3.79-3.42,3.33-6.66,6.84-9.75,10.48-4.24,5-8.2,10.22-12,15.56q-2.8,3.93-5.51,7.93l-2.7,4a14.82,14.82,0,0,0-2.16,3.51C94.87,163.81,97.47,165.12,99.07,166.16Z" style="fill:#68af97"/><path d="M253.44,62.93a.35.35,0,0,0,0,.7A.35.35,0,0,0,253.44,62.93Z" style="fill:#502e1c"/><path d="M172.77,83.23a.71.71,0,0,0-.86-.49,5.44,5.44,0,0,1-5.1-.83.7.7,0,0,0-1,1,6.9,6.9,0,0,0,6.46,1.19A.73.73,0,0,0,172.77,83.23Z" style="fill:#502e1c"/><path d="M212.83,18.7c.84.33,1.2-1,.37-1.35-2.86-1.14-6.18-.52-8.92.69a15.31,15.31,0,0,0-4.66,3.2,11.48,11.48,0,0,0-1.54.36c2.31-7.41,1-17.88-6.66-21.53-.81-.38-1.52.83-.71,1.21,6.25,3,7.79,10.7,6.68,17.18a3.26,3.26,0,0,0-.15-.44,10.46,10.46,0,0,0-2.32-3.09,21.11,21.11,0,0,0-6-4.18,21.86,21.86,0,0,0-14.77-1.26,23.22,23.22,0,0,0-8,3.86h0a38.29,38.29,0,0,0-19.08-1.5c-2.81.5-6.21,1.15-8.4,3.13a2.93,2.93,0,0,0-1,3.26,3.72,3.72,0,0,0,3,2,78,78,0,0,0,8.52.82,45.86,45.86,0,0,0-11.5,6.67c-2.05,1.7-4.4,3.91-5.28,6.49-1,3.07,2.31,4.07,4.71,3.6A23.76,23.76,0,0,0,142,36c.69-.31,1.38-.64,2.06-1A22.09,22.09,0,0,0,142,42.43c-.54,3.93-.27,8.28,2.76,11.19a.63.63,0,0,0,.44.18.71.71,0,0,0,.87-.25,10.88,10.88,0,0,0,1.18-3.44,39.14,39.14,0,0,1,1.35-3.81c1-2.41,2.2-4.73,3.4-7a31.86,31.86,0,0,0,10.62-4.57,25.39,25.39,0,0,0,4.52-4.14,35.49,35.49,0,0,0-1.2,4.91c-.28,1.78-.83,6.3,1.89,6.56,2.46.24,4.15-2.25,5.36-4a40.87,40.87,0,0,0,4-7.41,40,40,0,0,0,2.06-6.51,45.33,45.33,0,0,0,7,13.13,29.87,29.87,0,0,0,3,3.25c.51.47,1,.92,1.58,1.35a3.74,3.74,0,0,0,1.73,1c3.08.36,1-5.07.69-6.26-.24-.83-.52-1.66-.8-2.47l.3.36a21.28,21.28,0,0,0,5.5,4.5,9.89,9.89,0,0,0-.51,6.59A12,12,0,0,0,201.68,52a.73.73,0,0,0,.56.17.72.72,0,0,0,1,.07c4.73-4.2,9.05-9.4,10-15.86.78-5.55-1.44-11.67-6.72-14.22a11.24,11.24,0,0,0-4.59-1.07,14.7,14.7,0,0,1,2.87-1.73C207.25,18.22,210.25,17.67,212.83,18.7Z" style="fill:#915f48"/><path d="M247.63,314.34a0,0,0,0,0,0,0V314a.78.78,0,0,0,0-.14c-.6-2.74-1.21-5.48-1.85-8.2Q242.22,290.29,238,275c-1.75-6.32-3.57-12.6-5.51-18.87-1-3.34-2.48-7.47-5.8-9a1.05,1.05,0,0,0-1-.83A531.65,531.65,0,0,0,138,248.77a1,1,0,0,0-1.78.07c0,.1-.1.18-.14.27a1.21,1.21,0,0,0-.51,1c-9.75,18.6-14.7,39.37-20.36,59.48a1.11,1.11,0,0,0-.14.5c0,.21-.12.42-.17.62a1,1,0,0,0,.37,1.12,22,22,0,0,0-.2,2.93c0,21.08,29.68,38.17,66.31,38.17s66.31-17.09,66.31-38.17C247.64,314.6,247.64,314.47,247.63,314.34Z" style="fill:#e7c9a5"/><path d="M308,393.87C320,391,330.93,384.19,336.85,373a40.41,40.41,0,0,0,4.42-19.49c0-1.63-.12-3.25-.29-4.86a66,66,0,0,0-2.52-11.42c-7.82-23.18-30.1-39.05-49.75-51.94a360.62,360.62,0,0,0-61.78-32,43.26,43.26,0,0,0-24,5.34,28.51,28.51,0,0,0-9.19,8c-1.33,1.93-2.41,4.06-3.62,6.06a2.65,2.65,0,0,1-2.63,1.43,4.2,4.2,0,0,0-1.91,2.12,4.59,4.59,0,0,0-.31,1.74,7.1,7.1,0,0,0-.64.91,265.38,265.38,0,0,0-25.71,61.5c-.66,2.34,0,4.88,2.44,5.9a5,5,0,0,0,4.56-.61c22.12,13.29,45,25.48,69,34.85a285.1,285.1,0,0,0,37,11.77C283.68,395.13,296.13,396.67,308,393.87Z" style="fill:#e8c6a5"/><path d="M63.64,393.87c-12.06-2.86-23-9.68-28.86-20.85a40.31,40.31,0,0,1-4.43-19.49c0-1.63.12-3.25.29-4.86a66,66,0,0,1,2.52-11.42c7.82-23.18,30.1-39.05,49.75-51.94a360.62,360.62,0,0,1,61.78-32,43.26,43.26,0,0,1,24,5.34,28.51,28.51,0,0,1,9.19,8c1.33,1.93,2.41,4.06,3.62,6.06a2.65,2.65,0,0,0,2.63,1.43,4.2,4.2,0,0,1,1.91,2.12,4.59,4.59,0,0,1,.31,1.74,7.1,7.1,0,0,1,.64.91,265.38,265.38,0,0,1,25.71,61.5c.66,2.34,0,4.88-2.44,5.9a5,5,0,0,1-4.56-.61c-22.12,13.29-45,25.48-69,34.85a285.1,285.1,0,0,1-37,11.77C87.94,395.13,75.49,396.67,63.64,393.87Z" style="fill:#e8c6a5"/><path d="M98.5,307.81a21,21,0,0,0-5.52,2.8q-3,2-5.92,4.05-5.84,4.08-11.48,8.41c-1,.77,0,2.51,1,1.73q5.47-4.2,11.12-8.16,2.78-2,5.59-3.84A21.7,21.7,0,0,1,99,309.73,1,1,0,0,0,98.5,307.81Z" style="fill:#c79b72"/><path d="M243,267a31.63,31.63,0,0,1-7.4-.4,20.12,20.12,0,0,1-6.57-1.8,15.91,15.91,0,0,1-4.47-4.3,47.66,47.66,0,0,1-4-6,1,1,0,0,0-1.72,1,49.81,49.81,0,0,0,4.16,6.21,17.6,17.6,0,0,0,5,4.77,20.81,20.81,0,0,0,6.83,2,34.28,34.28,0,0,0,8.15.5C244.31,268.85,244.32,266.85,243,267Z" style="fill:#c79b72"/><path d="M279.83,313.89a285.53,285.53,0,0,0-36.4-24.57,1,1,0,0,0-1,1.73,280.89,280.89,0,0,1,36,24.25C279.41,316.1,280.84,314.69,279.83,313.89Z" style="fill:#c79b72"/><path d="M166,321.62a10.77,10.77,0,0,0,3.45,3.16c1.77,1.16,3.54,2.3,5.32,3.44a8.07,8.07,0,0,0,4.82,1.67,7.43,7.43,0,0,0,4.16-1.86,19,19,0,0,0,3.27-3.72c1.21-1.7,2.38-3.43,3.55-5.16q7.06-10.54,13.12-21.72a.71.71,0,0,0-.61-1,36.07,36.07,0,0,0-10.77-5.87,14.15,14.15,0,0,0-6.41-1.06,11.49,11.49,0,0,0-5.39,2.7c-2.87,2.35-5,5.52-7,8.6a73.79,73.79,0,0,0-5.82,10.32,41.52,41.52,0,0,0-2,5.43A6.24,6.24,0,0,0,166,321.62Z" style="fill:#805139"/><path d="M191.81,360.5l.09,0,1.08.57.54.29a392.2,392.2,0,0,0,41.41,19.17,285.1,285.1,0,0,0,37,11.77c11.7,2.79,24.16,4.33,36,1.53,12.07-2.86,23-9.69,28.88-20.85,3.16-6,1.84-12.27-2.41-19.21-6.3-7.87-13-13.86-27.34-21.89-7.52-4.21-17.14-9-29.91-14.88l-.07,0q-8.83-4.09-16.5-7.8a0,0,0,0,0,0,0h0c-2.69-1.31-5.29-2.58-7.78-3.81l-.18-.08c-16.69-7.85-48.63-20.12-65.57-.5C167.16,327.84,174.82,351.07,191.81,360.5Z" style="fill:#f2d9bb"/><path d="M199.17,298.8a206.65,206.65,0,0,1,47.05,10.88,341.18,341.18,0,0,1,44.71,19.86c8.17,4.27,16.21,8.78,24.19,13.39a1,1,0,0,1-1,1.73c-13.95-8.07-28.11-15.8-42.75-22.56a264.39,264.39,0,0,0-45.28-16.45,187.38,187.38,0,0,0-26.91-4.85C197.9,300.67,197.89,298.67,199.17,298.8Z" style="fill:#c79b72"/><path d="M252.41,318.39c3-5.14-.81-12.73-3.64-17.17-3.29-5.19-7.41-9.87-11.38-14.54-4.29-5-8.55-10.54-13.59-14.85-5.37-4.6-12.09-6.11-18.3-2.11a61.56,61.56,0,0,0-8.56,7c-2.28,2.16-4.5,4.4-6.74,6.44l-15.87,14.54a4.72,4.72,0,0,0-.39,6.8c-.67,8.64,10.59,10.05,16.81,11.19q11.46,2.07,23,3.61,10.37,1.4,20.78,2.3c1.47.13,3.2.39,5,.58C244.46,322.72,249.92,322.74,252.41,318.39Z" style="fill:#eaaa91"/><path d="M172.22,296.67l-13.07-17.1c-1.21-1.57-2.39-3.22-3.59-4.89-.63-.88-1.26-1.77-1.91-2.65-.43-.58-.87-1.16-1.31-1.73a53.71,53.71,0,0,0-5.89-6.66c-5.4-5-12.29-4.73-18.39-1.15-5.71,3.37-10.87,8-16,12.23-4.72,3.9-9.6,7.79-13.75,12.32-3.57,3.87-8.6,10.68-6.6,16.26,1.6,4.49,6.56,5.56,11.28,5.95l.71.05c1.81.13,3.56.18,5,.32l3.81.32q8.51.69,17,1.06,11.64.53,23.29.49c6.32,0,17.66.56,18.52-8.06A4.72,4.72,0,0,0,172.22,296.67Z" style="fill:#eaaa91"/><path d="M171.41,303.43c-.86,8.62-12.2,8-18.52,8.06q-11.65,0-23.29-.49-8.53-.37-17-1.06c16.4-8.41,32.39-23.75,43-35.26,1.2,1.67,2.38,3.32,3.59,4.89l13.07,17.1A4.72,4.72,0,0,1,171.41,303.43Z" style="fill:#db896e"/><path d="M204.39,314.46a41.92,41.92,0,0,0-2-5.42,72.73,72.73,0,0,0-5.83-10.32c-2-3.08-4.09-6.25-7-8.6a11.41,11.41,0,0,0-5.39-2.71c-2.16-.32-4.38.39-6.41,1.07A36.07,36.07,0,0,0,167,294.35a.71.71,0,0,0-.61,1q6,11.16,13.12,21.72c1.17,1.73,2.34,3.46,3.55,5.16a19.31,19.31,0,0,0,3.27,3.72,7.29,7.29,0,0,0,4.16,1.85,8,8,0,0,0,4.82-1.66q2.67-1.71,5.32-3.45a10.73,10.73,0,0,0,3.45-3.15A6.3,6.3,0,0,0,204.39,314.46Z" style="fill:#c79b72"/><path d="M179.81,360.5l-.09,0-1.08.57-.54.29a392.2,392.2,0,0,1-41.41,19.17,285.1,285.1,0,0,1-37,11.77c-11.7,2.79-24.16,4.33-36,1.53-12.07-2.86-23-9.69-28.88-20.85-3.16-6-1.84-12.27,2.41-19.21,6.3-7.87,13-13.86,27.34-21.89,7.52-4.21,17.14-9,29.91-14.88l.07,0c5.9-2.73,11.38-5.33,16.5-7.8a0,0,0,0,1,0,0h0c2.69-1.31,5.29-2.58,7.78-3.81l.18-.08c16.69-7.85,48.63-20.12,65.57-.5C204.46,327.84,196.81,351.07,179.81,360.5Z" style="fill:#f2d9bb"/><path d="M196.74,323.68c-.22-1.27-2.15-.73-1.93.53a36.7,36.7,0,0,1-12.29,33.62c-1,.84.44,2.24,1.41,1.41A38.67,38.67,0,0,0,196.74,323.68Z" style="fill:#c79b72"/><path d="M168.39,298.8a206.65,206.65,0,0,0-47,10.88,341.18,341.18,0,0,0-44.71,19.86c-8.17,4.27-16.21,8.78-24.19,13.39a1,1,0,0,0,1,1.73c14-8.07,28.11-15.8,42.75-22.56a264.09,264.09,0,0,1,45.28-16.45,187.38,187.38,0,0,1,26.91-4.85C169.65,300.67,169.67,298.67,168.39,298.8Z" style="fill:#c79b72"/><path d="M233.36,246.17a2.67,2.67,0,0,0-1.69-2.48,6,6,0,0,0-2-.09h-.35l-2.85,0c-1.78,0-3.56,0-5.34,0-7.25.07-14.49.34-21.73.62l-9,.35-7.73.18-11.93.29c-5,0-9.94,0-14.92-.14-7-.2-14.15-.38-21.11.88a4.91,4.91,0,0,0-.58.15,2.21,2.21,0,0,0-1.76,2.07c0,.27,0,.55-.07.83a22,22,0,0,0,0,3.72,2.67,2.67,0,0,0,1.69,2.48,6.32,6.32,0,0,0,2,.1h.35l2.85,0c1.78,0,3.56,0,5.35,0,7.24-.07,14.48-.33,21.72-.62l8.83-.34L183,254l11.94-.29c5,0,9.94,0,14.91.14,7,.21,14.15.38,21.11-.88a2.93,2.93,0,0,0,.6-.15,2.2,2.2,0,0,0,1.75-2.07c0-.28,0-.57.06-.86A21.63,21.63,0,0,0,233.36,246.17Z" style="fill:#c79b72"/><path d="M201.83,26.61a.7.7,0,0,0-1.35.38,13.37,13.37,0,0,1-1.68,10.8c-.49.75.72,1.45,1.21.7A14.75,14.75,0,0,0,201.83,26.61Z" style="fill:#502e1c"/><path d="M168.29,17.74a47.62,47.62,0,0,0-11.64,7.82c-3.1,2.79-7.16,6.72-6.81,11.26.06.9,1.46.9,1.39,0-.17-2.31,1-4.35,2.42-6.1a36,36,0,0,1,4.43-4.56A46.48,46.48,0,0,1,169,19C169.81,18.58,169.1,17.37,168.29,17.74Z" style="fill:#502e1c"/><path d="M194.13,32.21a19,19,0,0,1-2-6.12,18.66,18.66,0,0,1-.19-3.25,6.35,6.35,0,0,1,.16-1.38,2.66,2.66,0,0,1,.2-.56c0-.08.37-.55.28-.56.88.12,1.26-1.22.37-1.35-1.23-.18-1.92,1.05-2.19,2.09a11.84,11.84,0,0,0-.15,3.94,20.54,20.54,0,0,0,2.35,7.9C193.34,33.71,194.55,33,194.13,32.21Z" style="fill:#502e1c"/><path d="M203.72,108.07c-2.85,5.81-8.57,9.54-14.77,11a34.08,34.08,0,0,1-11,.55,23.26,23.26,0,0,1-9.85-2.84c-3.06-1.87-5.37-5.15-5.15-8.85.06-.9-1.34-.89-1.39,0a10.85,10.85,0,0,0,4,8.7c2.8,2.42,6.46,3.54,10.06,4.09,7.39,1.13,15.39.48,21.8-3.65a21,21,0,0,0,7.52-8.25C205.32,108,204.12,107.26,203.72,108.07Z" style="fill:#407062"/><path d="M236,173.05A85.76,85.76,0,0,1,231,162.67a70.24,70.24,0,0,1-3.18-10.44,75.84,75.84,0,0,1-1.63-21.72,78.7,78.7,0,0,1,1.84-12.3c.2-.87-1.14-1.25-1.35-.37a77.35,77.35,0,0,0,2.54,44.07,86.66,86.66,0,0,0,5.63,11.84C235.23,174.54,236.44,173.83,236,173.05Z" style="fill:#407062"/><path d="M132.88,120.2c0-.89-1.45-.9-1.4,0a174.52,174.52,0,0,1-2.72,42.07q-1.09,5.85-2.6,11.62a.7.7,0,0,0,1.35.37,176,176,0,0,0,5.63-42Q133.22,126.24,132.88,120.2Z" style="fill:#407062"/></g></g></svg>