<svg xmlns="http://www.w3.org/2000/svg" viewBox="0 0 276.59 266.41"><g id="Layer_2" data-name="Layer 2"><g id="OBJECTS"><path d="M274.87,42.86a1.56,1.56,0,0,0-.76-.08,51,51,0,0,0-16.29,5.14A86.29,86.29,0,0,0,247.61.81a1.57,1.57,0,0,0-2.73,0,1.65,1.65,0,0,0-.72.41A76.58,76.58,0,0,0,221.27,48,63.6,63.6,0,0,0,201.21,18.8a1.74,1.74,0,0,0-2.62.56,1.64,1.64,0,0,0-1.3.82,54.66,54.66,0,0,0-5.64,13.15,54.44,54.44,0,0,0-1.12,5.37c-1.25-2.36-2.6-4.67-4.08-6.9s-2.91-4.19-4.52-6.17c-1.37-1.71-2.77-3.68-4.9-4.48a1.74,1.74,0,0,0-1.76.3,1.76,1.76,0,0,0-1.1.53,22.76,22.76,0,0,0-6,12.58,26.43,26.43,0,0,0-22.32-1,1.94,1.94,0,0,0-.34.21,1.7,1.7,0,0,0-1.65.81c-1.48,2.38.37,6,1.15,8.31a94.66,94.66,0,0,0,4.12,10.26c.35.74.7,1.47,1.07,2.2s1.29,1.85,1.32,2.53c.29.27.26.46-.1.58s-1,.23-1.49.36q-1.09.3-2.19.66c-2.8.92-6.58,2.17-8.76,4.25s-.17,4.12,1.53,5.48a76.68,76.68,0,0,0,7.07,4.9,34.33,34.33,0,0,0,9.45,4.31c-6.19,2.72-12,6.32-15.33,12.41a1.66,1.66,0,0,0,.23,2.82c13.71,6.9,28.91,7.25,43.6,4.42-8.67,4-17.34,8-25.73,12.53-11.42,6.13-22.31,13.69-30,24.31a1.75,1.75,0,0,0,.49,2.66,50.19,50.19,0,0,0,33.17,7.62,56.17,56.17,0,0,0,10-2.1,38.32,38.32,0,0,0,0,14.71,1.26,1.26,0,0,0,.12.29,1.53,1.53,0,0,0,2.09,1.41,91.7,91.7,0,0,0,37.67-26.58c1.69,5.76,6.72,10.17,11.49,13.68a2.06,2.06,0,0,0,.84.35,1.64,1.64,0,0,0,2.06-.33,44.79,44.79,0,0,0,7.95-18.14,42.45,42.45,0,0,0-.42-16.58,49.62,49.62,0,0,0,20-2.56c6.28-2.21,14.09-5.73,16.46-12.47a1.32,1.32,0,0,0-.6-1.7,1.66,1.66,0,0,0-.76-1c-4.83-2.78-10.22-5.62-15.81-6a51.16,51.16,0,0,0,21.85-43.75A1.59,1.59,0,0,0,274.87,42.86Z" style="fill:#ec985a"/><path d="M243.68,23.35c0-2.2-3.39-2.05-3.4.13a191.64,191.64,0,0,1-9,56.2A138.41,138.41,0,0,1,227.17,55c-.16-2.18-3.56-2.05-3.4.14a143.62,143.62,0,0,0,5.1,28.73,1.54,1.54,0,0,0,.71.93c-1.33,3.82-2.74,7.62-4.31,11.36-6.25-6.83-12.71-13.47-19.45-19.81a1.45,1.45,0,0,0,.49-.93,94.09,94.09,0,0,0-1.78-33.11c-.5-2.14-3.75-1.11-3.25,1a89.51,89.51,0,0,1,1.77,30.48c-4.86-4.47-9.92-8.73-15.11-12.85a1.41,1.41,0,0,0,.31-1.12A65.26,65.26,0,0,0,181,36.62c-1-1.93-3.89-.09-2.87,1.84a60.59,60.59,0,0,1,6.42,19.78c-.29-.22-.56-.46-.85-.67A219.45,219.45,0,0,0,158.36,40.9c-1.91-1.07-3.6,1.89-1.68,3a228.36,228.36,0,0,1,37.95,27c-11.14,5.32-22.65,10.47-35.1,11.42-2.18.16-2.05,3.57.14,3.4,13.43-1,25.71-6.65,37.7-12.38a357.8,357.8,0,0,1,27.57,27.51c-8,4.61-16.31,8.77-24.75,12.56a1.55,1.55,0,0,0-.8-.46c-7.74-1.71-15.71-1.78-23.6-1.81-2.19,0-2,3.4.14,3.41a125,125,0,0,1,19.15,1.12A281.28,281.28,0,0,1,146,131.4c-2.14.47-1.12,3.72,1,3.25a283,283,0,0,0,63.7-22.44c-5,13.06-14.92,23.44-25.28,32.57-1.64,1.44.9,3.71,2.53,2.27,11.64-10.24,22.45-22,27.15-37.05,4.09-2.1,8.15-4.26,12.13-6.56q5.07,5.7,10,11.53c6.56,7.79,12.92,15.74,19.21,23.76,1.34,1.71,3.72-.73,2.38-2.43-10-12.7-20.2-25.29-31-37.33a194.55,194.55,0,0,0,7.94-22.26,1.68,1.68,0,0,0,.85-.2,187,187,0,0,0,23.48-15.18c1.73-1.32-.09-4.2-1.84-2.87A187.22,187.22,0,0,1,237,72.37,195.31,195.31,0,0,0,243.68,23.35Z" style="fill:#b85e2c"/><path d="M240,208.62c-.92-6.68-2.54-13.54-6.95-18.83-2-2.41-5.08-5-8.46-4.33-4,.85-5.36,4.86-5.64,8.47-.62,7.95,1.49,15.94,4.06,23.39,2.37,6.86,4.77,14.86,11.4,18.79a2.86,2.86,0,0,0,4.26-1.81,2.36,2.36,0,0,0,1-1.5A80.67,80.67,0,0,0,240,208.62Z" style="fill:#46937b"/><path d="M210,189.88c-.92-6.68-2.54-13.54-6.95-18.83-2-2.41-5.08-5.06-8.46-4.34-4,.86-5.36,4.87-5.64,8.47-.62,8,1.49,15.95,4.06,23.4,2.37,6.86,4.77,14.85,11.39,18.79a2.87,2.87,0,0,0,4.27-1.82,2.37,2.37,0,0,0,.95-1.49A80.67,80.67,0,0,0,210,189.88Z" style="fill:#46937b"/><path d="M176.77,172.92c-1.71-6.52-4.15-13.14-9.16-17.86-2.28-2.16-5.64-4.41-8.91-3.29-3.88,1.32-4.74,5.46-4.59,9.08.33,8,3.39,15.65,6.83,22.74,3.18,6.53,6.51,14.18,13.56,17.3a2.87,2.87,0,0,0,4-2.32,2.31,2.31,0,0,0,.76-1.59A80.6,80.6,0,0,0,176.77,172.92Z" style="fill:#46937b"/><path d="M144.81,163.2c-1.71-6.52-4.14-13.14-9.15-17.86-2.29-2.16-5.65-4.41-8.92-3.3-3.87,1.33-4.74,5.47-4.59,9.09.34,8,3.39,15.65,6.84,22.74,3.17,6.53,6.5,14.18,13.56,17.29a2.86,2.86,0,0,0,4-2.31,2.37,2.37,0,0,0,.77-1.59A80.61,80.61,0,0,0,144.81,163.2Z" style="fill:#46937b"/><path d="M108.71,156.67c-3.15-5.95-7-11.85-13-15.31-2.72-1.58-6.5-3-9.43-1.18-3.47,2.17-3.37,6.41-2.4,9.89,2.13,7.69,6.85,14.47,11.82,20.59,4.57,5.64,9.56,12.33,17.13,13.76a2.86,2.86,0,0,0,3.39-3.16,2.36,2.36,0,0,0,.38-1.73A81,81,0,0,0,108.71,156.67Z" style="fill:#46937b"/><path d="M70.41,156.32c-4.24-5.24-9.18-10.27-15.69-12.51-3-1-7-1.69-9.48.67-3,2.8-2.07,6.93-.45,10.17,3.59,7.12,9.53,12.87,15.59,17.91,5.58,4.65,11.77,10.24,19.48,10.18A2.87,2.87,0,0,0,82.57,179a2.41,2.41,0,0,0,0-1.77A80.61,80.61,0,0,0,70.41,156.32Z" style="fill:#46937b"/><path d="M145.37,194.1a2.33,2.33,0,0,0,.1-1.76,2.86,2.86,0,0,0-2.4-4c-7.67-.69-14.29,4.39-20.23,8.57-6.45,4.53-12.84,9.77-17,16.59-1.88,3.09-3.13,7.13-.38,10.17,2.31,2.56,6.35,2.21,9.39,1.43,6.67-1.7,12-6.32,16.66-11.19A81.12,81.12,0,0,0,145.37,194.1Z" style="fill:#46937b"/><path d="M237,238.49a2.39,2.39,0,0,0,.29-1.75,2.87,2.87,0,0,0-2-4.19c-7.56-1.48-14.67,2.89-21,6.43-6.88,3.84-13.78,8.4-18.61,14.74-2.2,2.88-3.86,6.78-1.43,10.08,2,2.79,6.08,2.86,9.19,2.4,6.81-1,12.6-5.05,17.73-9.41A81.13,81.13,0,0,0,237,238.49Z" style="fill:#46937b"/><path d="M114.11,189.76a2.39,2.39,0,0,0,.29-1.75,2.86,2.86,0,0,0-2-4.19c-7.57-1.48-14.68,2.88-21,6.43-6.88,3.84-13.77,8.39-18.61,14.74-2.19,2.88-3.85,6.77-1.43,10.08,2,2.78,6.09,2.86,9.19,2.4,6.82-1,12.6-5.05,17.73-9.42A80.37,80.37,0,0,0,114.11,189.76Z" style="fill:#46937b"/><path d="M79,188a2.34,2.34,0,0,0,.29-1.75,2.86,2.86,0,0,0-2-4.19c-7.57-1.48-14.68,2.88-21,6.43-6.88,3.84-13.77,8.39-18.61,14.74-2.19,2.88-3.85,6.77-1.43,10.08,2,2.78,6.09,2.86,9.19,2.4,6.82-1,12.6-5,17.73-9.42A80.37,80.37,0,0,0,79,188Z" style="fill:#46937b"/><path d="M206.12,222a2.42,2.42,0,0,0,.49-1.7,2.87,2.87,0,0,0-1.46-4.4c-7.33-2.37-14.91,1.11-21.63,3.87-7.29,3-14.68,6.69-20.24,12.41-2.52,2.6-4.64,6.27-2.63,9.84,1.69,3,5.7,3.56,8.84,3.48,6.89-.19,13.11-3.51,18.73-7.23A80.77,80.77,0,0,0,206.12,222Z" style="fill:#46937b"/><path d="M174.41,206.7a2.38,2.38,0,0,0,.24-1.75,2.87,2.87,0,0,0-2.1-4.14c-7.6-1.25-14.58,3.32-20.81,7.05-6.77,4-13.53,8.8-18.17,15.28-2.11,3-3.65,6.89-1.14,10.12,2.13,2.72,6.17,2.68,9.26,2.12,6.78-1.2,12.45-5.41,17.45-9.93A80.66,80.66,0,0,0,174.41,206.7Z" style="fill:#46937b"/><path d="M26,170.82c-6.71-.58-13.76-.5-19.9,2.63-2.79,1.43-6,3.84-6.09,7.29,0,4.1,3.56,6.3,7,7.38,7.62,2.36,15.88,2.06,23.71,1.19,7.22-.79,15.54-1.37,20.84-7a2.86,2.86,0,0,0-.83-4.56,2.35,2.35,0,0,0-1.24-1.26A80.82,80.82,0,0,0,26,170.82Z" style="fill:#46937b"/><path d="M257.69,253.69c-19-20.91-44.31-34.65-69.23-47.28-6.9-3.49-13.87-6.85-21-9.74a164,164,0,0,0-22.08-7,409.91,409.91,0,0,0-46.53-8.32,435.16,435.16,0,0,0-53.39-3.29c-2.85,0-2.86,4.43,0,4.43a431.47,431.47,0,0,1,93,10.12,187.33,187.33,0,0,1,22.43,6.25,199.2,199.2,0,0,1,20.67,9c12.6,6.21,25.12,12.73,37.08,20.1,13.14,8.09,25.55,17.4,36,28.84C256.48,258.94,259.61,255.79,257.69,253.69Z" style="fill:#407062"/></g></g></svg>