<svg xmlns="http://www.w3.org/2000/svg" viewBox="0 0 632.51 592.12"><g id="Layer_2" data-name="Layer 2"><g id="_Layer_" data-name="&lt;Layer&gt;"><path d="M361.35,433.8c-7.22-18.74-14.48-37.57-24.56-55.06-23.58-40.89-61.33-72.38-100.44-100-32.81-23.16-68.3-44.72-108.1-51.95s-85,2.61-109.89,33.18A82.53,82.53,0,0,0,2,330c10.26,44.18,54.49,72.85,97.45,91,88.81,37.43,189.24,51,268.29,105.35l26.65-6.57Z" style="fill:#aec56d"/><path d="M632,267.54c-2.2-14.7-13.38-28.93-28.18-30.28-6.07-.55-12.14,1-17.87,3.1-32.36,11.65-57,38-78.74,64.62a934.79,934.79,0,0,0-152.56,266.2l7,3.06c76.1-98.87,209.82-150.08,261.52-263.63C629.29,297.08,634.18,282.24,632,267.54Z" style="fill:#aec56d"/><path d="M336.06,551.77c-17.59-110.9-65.69-223.07-165-283.86-7.44-4.56-15.46,6.44-8,11C259.54,338,305.57,446.4,322.65,554.09c1.37,8.64,14.78,6.35,13.41-2.32Z" style="fill:#9daf61"/><path d="M195.8,148.51C303.82,266,348.32,431.45,364.51,586.64c.91,8.71,14.32,6.38,13.41-2.31C361.51,427,315.81,259,206.32,139.87c-5.91-6.43-16.46,2.18-10.52,8.64Z" style="fill:#9daf61"/><path d="M204.05,404.69s41.19,16,58.39,71.65-70.27,20.11-69.66,17.46S204.05,404.69,204.05,404.69Z" style="fill:#9daf61"/><path d="M379.77,118.49c-3.09-12.73-14.11-24.37-27.21-24.14-10.63.18-19.75,7.79-26.12,16.31-12.24,16.35-17.63,36.73-21.82,56.73A656.68,656.68,0,0,0,291,282.79l2.66,9.64c32.3-42,65.16-85.1,81.94-135.38C379.72,144.62,382.85,131.23,379.77,118.49Z" style="fill:#9daf61"/><path d="M269.23,329.45c-23.48-6.9-48.33-7.64-72.78-6.53-12.39.56-24.9,1.61-36.69,5.47s-22.93,10.78-29.84,21.09-8.46,25.41.27,34.13a28.75,28.75,0,0,0,11.68,6.55c22.42,7.19,46.53-1.13,68.61-9.3,18.15-6.72,36.45-13.43,55.54-16.67s39.22-2.81,57.17,4.43l5.2,1.72C314.87,349.94,292.71,336.35,269.23,329.45Z" style="fill:#9daf61"/><path d="M149.9,17.46a10.51,10.51,0,0,0-4.42,1.88c-2.14,1.74-3,4.63-4.83,6.69-3.92,4.36-10.75,3.71-16.62,3.7s-13.22,2.5-13.52,8.37c-.19,3.84,2.93,7.85,1.1,11.23-.86,1.59-2.61,2.47-4.27,3.21C102,54.92,96.42,57,92.06,60.81S84.85,71,87,76.38c2,5.21,8.23,9.36,6.84,14.77-.61,2.36-2.63,4.19-3.12,6.58-.76,3.74,2.39,7,5.32,9.47,5.54,4.62,12.63,9.24,19.46,6.92,3-1,5.35-3.21,7.62-5.36q10.19-9.62,20.12-19.48L169,21A25.52,25.52,0,0,0,149.9,17.46Z" style="fill:#f47051"/><path d="M315.35,180.71c-.29-5.81-1.88-11.5-2.18-17.31s.92-12.13,5.23-16c2.3-2.11,5.51-3.58,6.52-6.54.82-2.4-.1-5-.19-7.54-.19-5.77,4-11.12,3.37-16.86-.66-6.1-6.33-10.23-9.61-15.41a21.73,21.73,0,0,1,.35-23.25c1.34-2,3.09-4,3-6.35-.21-5.12-7.66-5.93-11-9.77-4.78-5.41.2-14-1.3-21-1.58-7.42-10.15-11.36-17.73-11.18-4.6.11-9.65,1.19-13.46-1.39-1.71-1.16-2.91-2.92-4.43-4.33-4.63-4.28-11.89-4.75-17.8-2.53s-10.68,6.69-14.86,11.42l-23.79,82.21a160.66,160.66,0,0,0-14.55,44.74c-.41,2.4-.74,5,.29,7.19a12.67,12.67,0,0,0,3.93,4.22l19.8,15.59a10.63,10.63,0,0,0,4.69,2.54c3.09.49,5.89-1.76,8.94-2.51,9.29-2.28,19,9.5,27.36,4.75,1.91-1.09,3.29-2.92,5-4.29,4.5-3.55,10.86-3.64,16.47-2.48s11,3.41,16.72,4c3.1.32,6.76-.16,8.39-2.81A8.67,8.67,0,0,0,315.35,180.71Z" style="fill:#f47051"/><path d="M115.55,146.61a20.61,20.61,0,0,0,3.5,24.59c2,1.93,4.62,3.67,5.2,6.41.42,2-.34,4-.65,6a13.77,13.77,0,0,0,6.85,13.84c2.81,1.53,6.09,2,9,3.4,4.25,2.06,7.28,5.91,10.87,9s8.54,5.44,12.93,3.72c1.92-.75,3.52-2.22,5.49-2.82,5-1.52,9.61,2.74,14.52,4.39,7.26,2.43,15.45-1.23,20.54-6.94s7.76-13.14,10.3-20.36Z" style="fill:#f47051"/><path d="M323.73,75.2c-4.11-6.24-12.16-8.58-17.45-13.87C298.44,53.49,297,39.63,287,34.87c-8.19-3.9-18.39.42-26.8-3-10.36-4.2-14.17-18.44-24.82-21.82-5.89-1.87-12.21.17-18.37.76s-15.71-4.66-15.71-4.66A31.74,31.74,0,0,0,151,27.29c-.67,4.77-.3,9.89-2.66,14.09-6.53,11.59-25.55,5.74-36.18,13.75-8.37,6.31-8.47,19.13-4.6,28.87,1.89,4.75,4.57,9.72,3.36,14.69-1.74,7.09-10.09,9.94-15.25,15.09-7.52,7.49-7.67,20.3-2.4,29.51s14.85,15.23,24.8,18.92c5,1.86,10.46,3.39,14,7.35,3.44,3.8,4.5,9.13,6.72,13.76,5.49,11.43,19.2,18.25,31.64,15.74,6.51-1.32,12.78-4.9,19.37-4s11.53,5.88,16.77,9.84c12.41,9.36,31,13.21,43.13,3.48,6.18-4.95,9.65-12.54,15.27-18.12,12.7-12.58,35.79-14.62,42.28-31.28,4.17-10.68-.75-22.9,1.61-34.12,1.87-8.87,8-16.09,12.56-24S328.72,82.77,323.73,75.2Z" style="fill:#ff8d67"/><path d="M192.69,81.66c-2.91,4.54-3.27,10.07,0,14.6a11.89,11.89,0,0,0,11.21,4.85l1.62-.1c-1.61-2.1-2.09-2.37-1.44-.78-.49,4.33,6.36,9.2,9.62,10.59a16.8,16.8,0,0,0,14.78-.66c8.06-4.58,2.08-17.82-6.06-13.19-4.34,2.47-4.4-2.31-6-5.11a10.38,10.38,0,0,0-5.77-4.77,13.54,13.54,0,0,0-4.08-.61l-1.95.07q-3.77-.42-.2,3.63c5-7.85-6.72-16.39-11.76-8.52Z" style="fill:#ffd187"/><path d="M227.68,82a2.88,2.88,0,0,1,.06-.59l-.45,1.89a4.14,4.14,0,0,1,.33-.82l-.9,1.65a3.27,3.27,0,0,1,.35-.48L225.79,85a5.51,5.51,0,0,1,.68-.6l-1.57,1a4.6,4.6,0,0,1,.8-.4l-1.79.56a4.3,4.3,0,0,1,.87-.16l-1.95.07a2.88,2.88,0,0,1,.59,0l-1.89-.44a3.05,3.05,0,0,1,.76.29l-1.65-.9a3.91,3.91,0,0,1,.41.3l-1.35-1.28a5.57,5.57,0,0,1,.51.58l-1-1.57a4.16,4.16,0,0,1,.44.93c-.18-.6-.37-1.2-.55-1.79a5,5,0,0,1,.13.76c0-.65,0-1.3-.07-1.94a3.81,3.81,0,0,1-.1,1l.45-1.89a3.19,3.19,0,0,1-.19.48l.9-1.66a3.23,3.23,0,0,1-.27.44c-2.2,3.1-1.68,8,1.62,10.14a7.38,7.38,0,0,0,10.13-1.62c3.68-5.21,1.77-13.16-4.33-15.61s-13.89,1.94-14.14,8.84a7.71,7.71,0,0,0,1.61,5.32,7.37,7.37,0,0,0,4.9,2.62c3.73.2,7.78-2.45,7.93-6.52Z" style="fill:#ffd187"/><path d="M235.22,95a9.36,9.36,0,0,1,.82,1.06l-1-1.57a8.13,8.13,0,0,1,.82,1.83c-.18-.6-.37-1.2-.55-1.8a8.46,8.46,0,0,1,.26,1.65c0-.65,0-1.3-.07-1.94,0,.11,0,.22,0,.33a7.88,7.88,0,0,0,1.61,5.32,7.28,7.28,0,0,0,10.22,1c1.34-1.2,2.64-3,2.61-4.9a16.87,16.87,0,0,0-1.05-6.21,12.68,12.68,0,0,0-2.48-4c-2.54-2.81-7.19-3.7-10.21-1-2.81,2.52-3.72,7.21-1,10.21Z" style="fill:#ffd187"/><path d="M176.75,113l1.74,5.59c.5,1.6,2.5,3.17,4,3.74a7.45,7.45,0,0,0,5.64-.18,7.34,7.34,0,0,0,3.74-4l.45-1.9a7.29,7.29,0,0,0-.63-3.74L189.94,107c-.5-1.61-2.5-3.17-4-3.74a7.4,7.4,0,0,0-5.64.18,7.31,7.31,0,0,0-3.74,4l-.45,1.9a7.19,7.19,0,0,0,.63,3.74Z" style="fill:#ffd187"/><path d="M200.45,123.74l2.5,2.07c2.93,2.43,8.08,1.5,10.14-1.62a7.43,7.43,0,0,0-1.62-10.14L209,112c-2.93-2.43-8.07-1.5-10.14,1.62a7.45,7.45,0,0,0,1.62,10.14Z" style="fill:#ffd187"/><path d="M226.4,117.82l-.16.71c-.39,1.68.57,4,1.61,5.32a7.27,7.27,0,0,0,10.21,1l1.28-1.35a7.25,7.25,0,0,0,1.34-3.55l.16-.71c.39-1.67-.57-4-1.61-5.31a7.25,7.25,0,0,0-10.21-1l-1.28,1.35a7.28,7.28,0,0,0-1.34,3.55Z" style="fill:#ffd187"/><path d="M169.21,81.55c-.11.47-.21.94-.32,1.42-.39,1.67.57,4,1.61,5.31a7.25,7.25,0,0,0,10.22,1L182,87.93a7.21,7.21,0,0,0,1.34-3.55l.33-1.41c.39-1.68-.58-4-1.61-5.32a7.28,7.28,0,0,0-10.22-1L170.56,78a7.26,7.26,0,0,0-1.35,3.55Z" style="fill:#ffd187"/><path d="M192,68.66l.39,1.58a7.76,7.76,0,0,0,2.9,4.64,7.39,7.39,0,0,0,5.49,1.27c3.61-.79,6.9-4.44,5.92-8.39-.13-.52-.26-1.05-.4-1.57a7.71,7.71,0,0,0-2.89-4.64,7.42,7.42,0,0,0-5.5-1.28c-3.61.79-6.9,4.45-5.91,8.39Z" style="fill:#ffd187"/><path d="M195.45,43.46q-2.12-4.3-4.22-8.62c-2-4.19-8.66-1.18-6.6,3q2.12,4.32,4.22,8.63c2.05,4.19,8.66,1.18,6.6-3Z" style="fill:#ffb39f"/><path d="M210.68,49.18a15.81,15.81,0,0,0,2.11-6.43,3.63,3.63,0,1,0-7.22-.71c0,.38-.08.75-.14,1.12,0,.13-.05.25-.08.37.06-.27.06-.28,0,0s-.2.6-.32.89c0,.1-.5,1-.22.53-.93,1.65-1,3.9.81,5.07,1.48,1,4.07.95,5.07-.81Z" style="fill:#ffb39f"/><path d="M184.15,46.55a83.39,83.39,0,0,0-8.29-4.8c-1.75-.89-4.05.39-4.7,2.08a3.72,3.72,0,0,0,2.09,4.69,66.78,66.78,0,0,1,6.64,3.91c3.89,2.59,8.15-3.28,4.26-5.88Z" style="fill:#ffb39f"/><path d="M258.69,71.86a92.58,92.58,0,0,1,19-18.63c3.78-2.77-.85-8.37-4.6-5.61a98.93,98.93,0,0,0-20.26,20c-2.84,3.73,3.05,8,5.88,4.25Z" style="fill:#ffb39f"/><path d="M249.55,63.17a9,9,0,0,1-.14-1.16c0,.59.07-.58.07-.58s.19-1.16.05-.58a8.89,8.89,0,0,1,.37-1.1,3.63,3.63,0,0,0-6.78-2.61,14,14,0,0,0-.72,7.26,3.63,3.63,0,1,0,7.15-1.23Z" style="fill:#ffb39f"/><path d="M268,79c-.25.28,0,0,.13-.11s.45-.4.69-.59.38-.29.58-.42c.55-.36-.69.37.31-.16a3.63,3.63,0,0,0-3-6.6,16.5,16.5,0,0,0-4.56,3.62c-1.28,1.41-.7,4.07.81,5.07A3.74,3.74,0,0,0,268,79Z" style="fill:#ffb39f"/><path d="M218,150.52a128.89,128.89,0,0,1,5.72,46.21c-.26,4.65,7,5.38,7.22.71a138.82,138.82,0,0,0-6.34-49.95c-1.4-4.44-8-1.38-6.6,3Z" style="fill:#ffb39f"/><path d="M227.09,149.68q2,5.61,4.06,11.23c1.59,4.4,8.17,1.35,6.59-3l-4.06-11.23c-1.59-4.4-8.18-1.35-6.59,3Z" style="fill:#ffb39f"/><path d="M207.3,150.69q-.48,3.36-1,6.72a3.63,3.63,0,0,0,7.23.71q.48-3.36,1-6.72a3.63,3.63,0,1,0-7.23-.71Z" style="fill:#ffb39f"/><path d="M171.43,142a56.49,56.49,0,0,1-10.65,32.76c-2.72,3.81,3.16,8.06,5.88,4.26a63.3,63.3,0,0,0,12-36.31c.06-4.64-7.16-5.39-7.22-.71Z" style="fill:#ffb39f"/><path d="M181.26,142.63c.12.65.11-.15.07.24,0,.15-.15.88,0,.25a4.6,4.6,0,0,1-.25.65c.27-.56-.24.27-.31.34a3.66,3.66,0,0,0,.81,5.07,3.72,3.72,0,0,0,5.07-.81,8.56,8.56,0,0,0,1.73-7,3.63,3.63,0,1,0-7.15,1.24Z" style="fill:#ffb39f"/><path d="M159,137.08l-.9,1.78a3.64,3.64,0,0,0,2.09,4.69,3.74,3.74,0,0,0,4.69-2.08l.9-1.78a3.64,3.64,0,0,0-2.09-4.69,3.73,3.73,0,0,0-4.69,2.08Z" style="fill:#ffb39f"/><path d="M144.86,116A72.52,72.52,0,0,1,108,132.65c-4.61.69-3.39,7.84,1.24,7.16a79.76,79.76,0,0,0,40.27-18.23c3.57-3-1-8.63-4.6-5.61Z" style="fill:#ffb39f"/><path d="M110.77,127.06l7.79-1.86a3.72,3.72,0,0,0,3-4.2,3.65,3.65,0,0,0-4.19-3l-7.79,1.86a3.73,3.73,0,0,0-3,4.19,3.67,3.67,0,0,0,4.2,3Z" style="fill:#ffb39f"/><path d="M133.68,137.75l-1.39,1.67a3.66,3.66,0,0,0,.81,5.07,3.72,3.72,0,0,0,5.07-.81l1.39-1.67a3.66,3.66,0,0,0-.81-5.07,3.72,3.72,0,0,0-5.07.81Z" style="fill:#ffb39f"/><path d="M127,77.92a68.6,68.6,0,0,0,19.92,6.37c4.61.74,5.3-6.48.71-7.23a62,62,0,0,1-18-5.92c-4.18-2.1-6.74,4.7-2.6,6.78Z" style="fill:#ffb39f"/><path d="M149.93,75.69l.36.58c1,1.61,2.92,2.76,4.81,1.79,1.57-.81,2.86-3.1,1.78-4.82l-.36-.58c-1-1.6-2.92-2.75-4.81-1.78-1.57.81-2.86,3.09-1.78,4.81Z" style="fill:#ffb39f"/><path d="M141.77,95.7l4.14,1.44a3.63,3.63,0,0,0,2.6-6.78l-4.14-1.43a3.63,3.63,0,1,0-2.6,6.77Z" style="fill:#ffb39f"/><path d="M260.08,123.85a92.68,92.68,0,0,1,26.06,24.75c2.71,3.81,8.3-.82,5.61-4.61a97.91,97.91,0,0,0-27.41-26c-3.94-2.5-8.21,3.37-4.26,5.88Z" style="fill:#ffb39f"/><path d="M261.61,114.56l.84.69a3.66,3.66,0,0,0,5.07-.81,3.73,3.73,0,0,0-.81-5.07l-.84-.69a3.66,3.66,0,0,0-5.07.81,3.73,3.73,0,0,0,.81,5.07Z" style="fill:#ffb39f"/><path d="M253.28,131.46a7,7,0,0,0,2.9,4.63,3.63,3.63,0,1,0,4.26-5.87c-.52-.37,0,.07.1.29-.37-.61,0,.46-.1-.29a3.63,3.63,0,0,0-7.16,1.24Z" style="fill:#ffb39f"/><path d="M124.07,228.75a4.46,4.46,0,0,0-1.78,1.2c-.79,1-.91,2.29-1.55,3.35-1.34,2.26-4.39,2.56-7,3.06s-5.59,2.24-5.22,4.84c.25,1.7,2,3.19,1.46,4.83a3.82,3.82,0,0,1-1.6,1.78c-2.12,1.5-4.41,2.88-6,4.95s-2.3,5.07-.91,7.27,4.42,3.4,4.28,5.9c-.07,1.09-.8,2.06-.8,3.15,0,1.71,1.65,2.88,3.15,3.7,2.83,1.55,6.34,3,9.13,1.36a9.78,9.78,0,0,0,2.89-3q3.65-5.1,7.15-10.28l5.46-32.19A11.36,11.36,0,0,0,124.07,228.75Z" style="fill:#f47051"/><path d="M210.76,286.14c-.63-2.53-1.81-4.89-2.45-7.41s-.64-5.4.91-7.49c.84-1.13,2.12-2.05,2.3-3.43.16-1.13-.47-2.19-.73-3.3-.58-2.52.79-5.22,0-7.69s-3.66-3.94-5.55-5.94a9.73,9.73,0,0,1-1.85-10.23c.42-1,1-2,.77-3.05-.53-2.23-3.88-1.94-5.69-3.33-2.57-2-1.12-6.15-2.39-9.12-1.33-3.12-5.43-4.11-8.74-3.38-2,.45-4.14,1.36-6,.55a19.19,19.19,0,0,1-2.32-1.51c-2.4-1.49-5.63-1.06-8,.42a17.53,17.53,0,0,0-5.54,6.29l-3.36,38.14a72.55,72.55,0,0,0-2.53,20.89,5.42,5.42,0,0,0,.76,3.13,5.67,5.67,0,0,0,2.08,1.52l10,5.13a4.59,4.59,0,0,0,2.28.71c1.39-.05,2.43-1.28,3.7-1.87,3.89-1.8,9.18,2.53,12.42-.27a19.73,19.73,0,0,0,1.84-2.32c1.67-1.95,4.45-2.53,7-2.51s5.13.55,7.69.31c1.38-.13,3-.65,3.44-2A3.86,3.86,0,0,0,210.76,286.14Z" style="fill:#f47051"/><path d="M120.12,288.4a9.22,9.22,0,0,0,3.66,10.49c1.06.67,2.34,1.21,2.83,2.36a7.34,7.34,0,0,1,.23,2.69,6.16,6.16,0,0,0,4.21,5.49c1.36.42,2.84.35,4.22.72,2,.53,3.71,2,5.55,3s4.21,1.65,6,.51c.78-.49,1.35-1.27,2.17-1.71,2-1.09,4.45.38,6.75.68,3.4.44,6.67-1.87,8.42-4.82s2.27-6.43,2.77-9.82Z" style="fill:#f47051"/><path d="M205.35,239.1c-2.35-2.38-6.08-2.71-8.86-4.58-4.11-2.76-5.93-8.73-10.74-10-3.93-1-8,1.78-12,1-4.91-.95-7.81-6.87-12.78-7.44-2.74-.31-5.34,1.13-8,1.92s-7.3-.69-7.3-.69A14.19,14.19,0,0,0,125.38,233c.12,2.15.72,4.37,0,6.41-1.86,5.65-10.72,4.72-14.69,9.15-3.13,3.5-2.07,9.13.47,13.07,1.24,1.93,2.84,3.88,2.74,6.16-.15,3.26-3.57,5.23-5.39,7.94-2.66,3.94-1.62,9.58,1.49,13.16s7.83,5.41,12.51,6.17c2.36.38,4.89.59,6.8,2s2.76,3.62,4.14,5.45a13.25,13.25,0,0,0,15.24,4.19c2.75-1.14,5.19-3.26,8.16-3.43s5.57,1.59,8.21,2.88c6.26,3,14.75,3.12,19.23-2.2,2.29-2.7,3.15-6.33,5.14-9.26,4.49-6.62,14.45-9.51,15.87-17.38.9-5.05-2.31-10-2.24-15.12.06-4.05,2.14-7.75,3.45-11.6S208.19,242,205.35,239.1Z" style="fill:#ff8d67"/><path d="M148.3,253.43a5.69,5.69,0,0,0,1.79,6.61,5.44,5.44,0,0,0,3.16,1,4.39,4.39,0,0,0,1.83-.27l.69-.2q-1.29-.84-.75-.09c0,1.92,3.87,3.51,5.32,3.76a7.63,7.63,0,0,0,6.37-1.72c3.19-2.71-.93-7.74-4.12-5-1.69,1.44-2.38-1.45-3.32-2.3a4.78,4.78,0,0,0-3.07-1.2,6.67,6.67,0,0,0-1.54.17l-1,.29c-.84.11-.59.53.74,1.28,1.45-3.92-4.61-6.25-6.06-2.33Z" style="fill:#ffd187"/><path d="M163.74,250.12a1.92,1.92,0,0,1-3,1.76,1.78,1.78,0,0,1-.71-2,3.25,3.25,0,1,0,6.06,2.33,4.68,4.68,0,0,0-3.31-6.25c-3.28-.67-5.72,2.22-5.43,5.31a3.27,3.27,0,0,0,3.75,2.65,3.31,3.31,0,0,0,2.65-3.75Z" style="fill:#ffd187"/><path d="M168.36,255.56c-.4-.31.25,0,0,0q-.12-.22,0,0c.09.21.08.18,0-.09a3.32,3.32,0,0,0,3.75,2.65,3.29,3.29,0,0,0,2.65-3.75,7,7,0,0,0-2.56-4.06,3.25,3.25,0,0,0-3.81,5.26Z" style="fill:#ffd187"/><path d="M143.77,267.83c.42.77.83,1.54,1.25,2.3a3.33,3.33,0,0,0,4.3,1.6,3.28,3.28,0,0,0,1.6-4.31l-1.25-2.3a3.33,3.33,0,0,0-4.3-1.6,3.28,3.28,0,0,0-1.6,4.31Z" style="fill:#ffd187"/><path d="M154.88,270.72l1.27.69a3.37,3.37,0,0,0,4.54-.72c.92-1.28.82-3.7-.73-4.54l-1.27-.69a3.37,3.37,0,0,0-4.54.72c-.92,1.28-.82,3.7.73,4.54Z" style="fill:#ffd187"/><path d="M166.3,265.57v.33a3.32,3.32,0,0,0,2.91,3.55,3.28,3.28,0,0,0,3.55-2.92v-.32a3.33,3.33,0,0,0-2.91-3.55,3.27,3.27,0,0,0-3.55,2.91Z" style="fill:#ffd187"/><path d="M138.07,254.58c0,.22,0,.44,0,.65a3.32,3.32,0,0,0,2.91,3.55,3.28,3.28,0,0,0,3.55-2.91c0-.22,0-.44,0-.65a3.31,3.31,0,0,0-2.91-3.55,3.28,3.28,0,0,0-3.55,2.91Z" style="fill:#ffd187"/><path d="M147,247.79c.1.22.2.44.31.65a3.25,3.25,0,1,0,5.9-2.71c-.11-.22-.21-.44-.31-.66a3.25,3.25,0,0,0-5.9,2.72Z" style="fill:#ffd187"/><path d="M146.24,236.15l-2.6-3.42c-1.26-1.67-3.77.4-2.51,2.06l2.6,3.42c1.26,1.67,3.77-.39,2.51-2.06Z" style="fill:#ffb39f"/><path d="M153.52,237.33a7.77,7.77,0,0,0,.32-3c-.18-2.08-3.38-1.52-3.21.55a3.41,3.41,0,0,1-.14,1.31c-.61,2,2.42,3.17,3,1.17Z" style="fill:#ffb39f"/><path d="M141.51,238.52a36.65,36.65,0,0,0-3.65-1.27c-2-.57-3.18,2.46-1.17,3a35.79,35.79,0,0,1,3.65,1.27c1.94.8,3.1-2.23,1.17-3Z" style="fill:#ffb39f"/><path d="M176.55,243.15a41.52,41.52,0,0,1,6.75-9.8c1.41-1.54-1.24-3.43-2.63-1.9A44.38,44.38,0,0,0,173.52,242c-.92,1.88,2.12,3,3,1.17Z" style="fill:#ffb39f"/><path d="M171.71,240.12a3.18,3.18,0,0,1-.09-1.56c.31-2.06-2.93-2.38-3.23-.31a6.67,6.67,0,0,0,.37,3.22c.68,2,3.63.61,3-1.35Z" style="fill:#ffb39f"/><path d="M181,245.83a4.42,4.42,0,0,1,.88-1c1.59-1.36-.47-3.87-2.06-2.51a7.38,7.38,0,0,0-1.45,1.65c-1.11,1.76,1.51,3.67,2.63,1.9Z" style="fill:#ffb39f"/><path d="M165.28,281a58.12,58.12,0,0,1,6.66,20.18c.29,2.07,3.49,1.52,3.2-.55a60.85,60.85,0,0,0-6.91-21c-1-1.82-4-.48-2.95,1.36Z" style="fill:#ffb39f"/><path d="M169.19,279.86l2.75,4.58a1.67,1.67,0,0,0,2.15.79,1.62,1.62,0,0,0,.8-2.15c-.92-1.53-1.84-3.05-2.75-4.58a1.69,1.69,0,0,0-2.16-.8,1.64,1.64,0,0,0-.79,2.16Z" style="fill:#ffb39f"/><path d="M160.76,282.4c.06,1,.11,2,.16,3a1.62,1.62,0,0,0,1.87,1.32,1.66,1.66,0,0,0,1.33-1.87l-.16-3a1.62,1.62,0,0,0-1.87-1.32,1.67,1.67,0,0,0-1.33,1.88Z" style="fill:#ffb39f"/><path d="M144.26,281.66a25.18,25.18,0,0,1-1.9,15.28c-.87,1.9,2.17,3.06,3,1.16a28.35,28.35,0,0,0,2.07-17,1.62,1.62,0,0,0-3.2.55Z" style="fill:#ffb39f"/><path d="M148.66,281.08a.86.86,0,0,1-.15.69c-.91,1.88,2.12,3,3,1.17a4.05,4.05,0,0,0,.07-3.22c-.68-2-3.63-.6-3,1.36Z" style="fill:#ffb39f"/><path d="M138.45,280.17l-.24.85c-.57,2,2.46,3.18,3,1.17l.24-.86c.56-2-2.46-3.17-3-1.16Z" style="fill:#ffb39f"/><path d="M130.28,272.5A32.36,32.36,0,0,1,115.49,283c-2,.69-.61,3.64,1.35,2.95a35.39,35.39,0,0,0,16.07-11.51c1.31-1.64-1.33-3.54-2.63-1.91Z" style="fill:#ffb39f"/><path d="M116.44,280.19l3.25-1.49a1.62,1.62,0,0,0-1.35-2.95l-3.26,1.49a1.63,1.63,0,0,0,1.36,2.95Z" style="fill:#ffb39f"/><path d="M127.47,282.67c-.15.29-.31.57-.46.85a1.69,1.69,0,0,0,.36,2.27,1.63,1.63,0,0,0,2.27-.36c.15-.29.31-.57.46-.85a1.67,1.67,0,0,0-.36-2.27,1.64,1.64,0,0,0-2.27.36Z" style="fill:#ffb39f"/><path d="M118.91,257.17a30.63,30.63,0,0,0,9.28,1.17c2.06-.07,2.41-3.3.32-3.24a27.56,27.56,0,0,1-8.43-1c-2-.55-3.18,2.47-1.17,3Z" style="fill:#ffb39f"/><path d="M129.16,254.38l.21.23c1.42,1.52,3.94-.53,2.51-2.06l-.21-.23c-1.42-1.52-3.94.54-2.51,2.06Z" style="fill:#ffb39f"/><path d="M127.36,263.81l1.94.27c2.07.29,2.39-2.94.32-3.23l-1.94-.28c-2.07-.29-2.38,2.94-.32,3.24Z" style="fill:#ffb39f"/><path d="M181.7,266A40.64,40.64,0,0,1,195,274.34c1.5,1.42,4-.63,2.51-2.06a44.85,44.85,0,0,0-14.6-9.33,1.63,1.63,0,0,0-1.16,3Z" style="fill:#ffb39f"/><path d="M181.2,261.58l.43.23a1.67,1.67,0,0,0,2.26-.37,1.62,1.62,0,0,0-.36-2.26l-.42-.23a1.67,1.67,0,0,0-2.27.36,1.64,1.64,0,0,0,.36,2.27Z" style="fill:#ffb39f"/><path d="M179.31,270A3.43,3.43,0,0,0,181,271.7a1.62,1.62,0,0,0,1.17-3l.06-.06c-.85-1.91-3.8-.56-3,1.36Z" style="fill:#ffb39f"/><path d="M294,296.09a8.15,8.15,0,0,0-3.09,2.09c-1.38,1.65-1.59,4-2.69,5.84-2.34,3.92-7.66,4.45-12.14,5.32s-9.73,3.9-9.07,8.42c.42,3,3.42,5.56,2.52,8.41a6.59,6.59,0,0,1-2.77,3.1c-3.7,2.61-7.68,5-10.44,8.6s-4,8.83-1.57,12.66,7.69,5.92,7.44,10.26c-.11,1.9-1.38,3.6-1.39,5.49,0,3,2.88,5,5.48,6.44,4.93,2.7,11,5.16,15.9,2.36,2.11-1.21,3.6-3.25,5-5.24Q293.52,361,299.63,352l9.51-56A19.83,19.83,0,0,0,294,296.09Z" style="fill:#f47051"/><path d="M444.85,396c-1.09-4.39-3.16-8.5-4.26-12.89s-1.11-9.4,1.59-13c1.44-1.95,3.67-3.56,4-6,.26-2-.83-3.81-1.28-5.74-1-4.37,1.38-9.08.05-13.37-1.42-4.57-6.37-6.87-9.66-10.34a16.9,16.9,0,0,1-3.21-17.81c.72-1.71,1.76-3.49,1.33-5.3-.92-3.87-6.74-3.38-9.9-5.8-4.46-3.42-1.94-10.7-4.15-15.87-2.32-5.43-9.45-7.15-15.22-5.87-3.49.77-7.19,2.35-10.49,1a31.71,31.71,0,0,1-4-2.64c-4.18-2.58-9.8-1.84-14,.74S368.49,289.72,366,294l-5.85,66.36a125.71,125.71,0,0,0-4.4,36.36c.05,1.9.18,3.92,1.31,5.45a9.68,9.68,0,0,0,3.63,2.63l17.46,8.94a8.29,8.29,0,0,0,4,1.24c2.44-.09,4.24-2.23,6.45-3.26,6.76-3.13,16,4.4,21.62-.48,1.3-1.12,2.07-2.72,3.19-4,2.91-3.4,7.74-4.42,12.21-4.37s8.92.95,13.37.54c2.41-.23,5.14-1.14,6-3.41A6.76,6.76,0,0,0,444.85,396Z" style="fill:#f47051"/><path d="M287.13,399.89a16,16,0,0,0,6.35,18.26c1.85,1.16,4.09,2.1,4.94,4.11.62,1.46.34,3.11.4,4.68a10.73,10.73,0,0,0,7.31,9.55c2.38.74,4.95.61,7.36,1.25,3.55.93,6.45,3.42,9.64,5.22s7.34,2.87,10.44.9c1.35-.86,2.35-2.22,3.76-3,3.56-1.9,7.76.66,11.76,1.18,5.91.77,11.61-3.25,14.65-8.38s3.95-11.2,4.81-17.1Z" style="fill:#f47051"/><path d="M435.43,314.11c-4.08-4.15-10.58-4.73-15.42-8-7.15-4.81-10.32-15.19-18.68-17.33-6.84-1.75-14,3.09-20.92,1.75-8.54-1.65-13.59-12-22.23-12.94-4.78-.55-9.3,2-13.92,3.33s-12.7-1.2-12.7-1.2a24.71,24.71,0,0,0-35.29,23.69c.21,3.74,1.26,7.6.08,11.16-3.25,9.83-18.65,8.22-25.57,15.93-5.44,6.07-3.6,15.88.82,22.74,2.15,3.35,4.95,6.74,4.77,10.72-.27,5.67-6.22,9.1-9.39,13.81-4.62,6.85-2.81,16.66,2.6,22.9s13.62,9.41,21.78,10.73c4.1.67,8.49,1,11.82,3.51s4.81,6.3,7.2,9.5a23.08,23.08,0,0,0,26.53,7.28c4.77-2,9-5.66,14.19-6s9.7,2.77,14.3,5c10.88,5.29,25.66,5.43,33.46-3.81,4-4.72,5.48-11,8.94-16.13,7.82-11.52,25.14-16.54,27.61-30.24,1.58-8.79-4-17.38-3.89-26.3.1-7.06,3.73-13.5,6-20.19S440.37,319.15,435.43,314.11Z" style="fill:#ff8d67"/><path d="M336.15,339.05a9.91,9.91,0,0,0,3.12,11.49,9.3,9.3,0,0,0,5.5,1.77,7.46,7.46,0,0,0,3.18-.46l1.2-.35c-1.49-1-1.92-1-1.29-.16,0,3.34,6.72,6.11,9.24,6.55a13.3,13.3,0,0,0,11.1-3c5.54-4.71-1.62-13.45-7.17-8.73-2.95,2.5-4.14-2.51-5.79-4a8.23,8.23,0,0,0-5.34-2.09,11.94,11.94,0,0,0-2.67.29c-.6.19-1.2.36-1.81.51q-2.19.28,1.28,2.23c2.53-6.82-8-10.87-10.55-4.05Z" style="fill:#ffd187"/><path d="M363,333.28a4.44,4.44,0,0,1-.24,1.91c.16-.4.13-.35-.11.14a1.47,1.47,0,0,1-.52.73c-.87.9.59-.31-.46.4a3.37,3.37,0,0,1-2.21.58,3.67,3.67,0,0,1-2.87-2c.42.73-.18-.78-.18-1.09a1.75,1.75,0,0,1,.1-1c.17-.55.17-.62,0-.21a5.69,5.69,0,0,0,3.24,7.3,5.78,5.78,0,0,0,7.31-3.24c2.06-4.85-1.43-10.38-6.51-11-5.28-.69-9.44,4.44-8.71,9.42A5.65,5.65,0,0,0,363,333.28Z" style="fill:#ffd187"/><path d="M371.07,342.76c.77.58-.62-.78-.21-.25a5.33,5.33,0,0,0,.5.63c-.13-.12-.67-1.07-.3-.39.52,1-.28-1.24-.05-.17.62,2.88,3.46,5.28,6.53,4.6,2.89-.63,5.28-3.43,4.61-6.53a11.66,11.66,0,0,0-4.45-7,5.7,5.7,0,0,0-7.89,1.26,5.76,5.76,0,0,0,1.26,7.89Z" style="fill:#ffd187"/><path d="M328.28,364.1l2.17,4c1.4,2.6,4.65,4.23,7.49,2.77,2.58-1.32,4.28-4.71,2.77-7.49l-2.16-4c-1.41-2.59-4.66-4.23-7.5-2.77-2.58,1.32-4.28,4.71-2.77,7.49Z" style="fill:#ffd187"/><path d="M347.6,369.13l2.22,1.2a6.22,6.22,0,0,0,4.28,1,5.72,5.72,0,0,0,3.61-2.26,5.65,5.65,0,0,0,1-4.27,5.44,5.44,0,0,0-2.25-3.62L354.23,360a6.27,6.27,0,0,0-4.28-1,5.72,5.72,0,0,0-3.61,2.26,5.65,5.65,0,0,0-1,4.27,5.47,5.47,0,0,0,2.25,3.62Z" style="fill:#ffd187"/><path d="M367.48,360.18c0,.18,0,.37,0,.56-.1,2.95,1.88,6,5.07,6.18,2.89.15,6.07-1.91,6.17-5.07,0-.19,0-.38,0-.57.1-2.95-1.88-6-5.07-6.17-2.89-.16-6.07,1.9-6.17,5.07Z" style="fill:#ffd187"/><path d="M318.36,341.05c0,.38,0,.75,0,1.13-.1,2.95,1.88,6,5.07,6.17,2.89.16,6.07-1.9,6.17-5.07,0-.37,0-.75,0-1.13.1-2.94-1.88-6-5.07-6.17-2.89-.16-6.07,1.91-6.17,5.07Z" style="fill:#ffd187"/><path d="M334,329.22l.54,1.15a5.65,5.65,0,1,0,10.26-4.72c-.17-.38-.35-.77-.53-1.15A5.65,5.65,0,0,0,334,329.22Z" style="fill:#ffd187"/><path d="M332.57,309l-4.51-6c-2.21-2.9-6.57.69-4.37,3.59l4.51,5.95c2.21,2.91,6.57-.69,4.37-3.58Z" style="fill:#ffb39f"/><path d="M345.24,311a12.36,12.36,0,0,0,.55-5.26,2.86,2.86,0,0,0-3.27-2.31,2.89,2.89,0,0,0-2.3,3.27A5.69,5.69,0,0,1,340,309a2.89,2.89,0,0,0,1.62,3.65,2.86,2.86,0,0,0,3.65-1.63Z" style="fill:#ffb39f"/><path d="M324.34,313.1a56.93,56.93,0,0,0-6.36-2.21,2.9,2.9,0,0,0-3.65,1.62,2.86,2.86,0,0,0,1.63,3.66,56.71,56.71,0,0,1,6.35,2.2c3.37,1.4,5.38-3.88,2-5.27Z" style="fill:#ffb39f"/><path d="M385.32,321.15a72.3,72.3,0,0,1,11.74-17c2.46-2.68-2.15-6-4.58-3.31A77.49,77.49,0,0,0,380,319.12c-1.6,3.27,3.69,5.27,5.28,2Z" style="fill:#ffb39f"/><path d="M376.89,315.88a5.16,5.16,0,0,1-.15-2.7,2.82,2.82,0,1,0-5.62-.56,11,11,0,0,0,.64,5.62,2.85,2.85,0,0,0,3.74,1.39,2.9,2.9,0,0,0,1.39-3.75Z" style="fill:#ffb39f"/><path d="M393.12,325.82a6.1,6.1,0,0,1,1.53-1.81c2.81-2.32-.78-6.68-3.59-4.37a11.15,11.15,0,0,0-2.52,2.87,2.9,2.9,0,0,0,.63,3.94,2.86,2.86,0,0,0,3.95-.63Z" style="fill:#ffb39f"/><path d="M365.7,387a101.27,101.27,0,0,1,11.6,35.12c.49,3.6,6.06,2.65,5.57-1a105.7,105.7,0,0,0-12-36.52c-1.73-3.17-6.88-.84-5.13,2.36Z" style="fill:#ffb39f"/><path d="M372.5,385q2.4,4,4.79,8a2.92,2.92,0,0,0,3.75,1.39,2.84,2.84,0,0,0,1.38-3.75l-4.78-8a2.91,2.91,0,0,0-3.75-1.39A2.85,2.85,0,0,0,372.5,385Z" style="fill:#ffb39f"/><path d="M357.85,389.45c.09,1.76.18,3.52.26,5.28.08,1.52,1.9,2.54,3.27,2.3a2.89,2.89,0,0,0,2.3-3.26c-.09-1.76-.17-3.52-.26-5.28-.08-1.53-1.9-2.54-3.27-2.31a2.9,2.9,0,0,0-2.3,3.27Z" style="fill:#ffb39f"/><path d="M329.14,388.17a43.88,43.88,0,0,1-3.33,26.58c-1.5,3.32,3.78,5.33,5.28,2a49.28,49.28,0,0,0,3.61-29.57c-.65-3.57-6.22-2.63-5.56,1Z" style="fill:#ffb39f"/><path d="M336.79,387.16c.15.39,0,.69-.27,1.2-.71,1.35.32,3.15,1.62,3.65a2.88,2.88,0,0,0,3.65-1.62,6.7,6.7,0,0,0,.13-5.59,2.85,2.85,0,0,0-3.74-1.39,2.88,2.88,0,0,0-1.39,3.75Z" style="fill:#ffb39f"/><path d="M319,385.57c-.15.5-.29,1-.43,1.49a2.9,2.9,0,0,0,1.63,3.65,2.84,2.84,0,0,0,3.65-1.62l.42-1.5a2.9,2.9,0,0,0-1.62-3.65,2.85,2.85,0,0,0-3.65,1.63Z" style="fill:#ffb39f"/><path d="M304.81,372.23a56.35,56.35,0,0,1-25.75,18.21c-3.43,1.2-1.05,6.33,2.36,5.13a61.59,61.59,0,0,0,28-20c2.27-2.86-2.32-6.16-4.57-3.32Z" style="fill:#ffb39f"/><path d="M280.71,385.6l5.67-2.59c3.3-1.51.95-6.65-2.36-5.13l-5.67,2.59c-3.31,1.51-1,6.65,2.36,5.13Z" style="fill:#ffb39f"/><path d="M299.92,389.93l-.81,1.48a2.93,2.93,0,0,0,.63,3.95c1.11.8,3.21.71,3.95-.63l.8-1.48a2.92,2.92,0,0,0-.63-3.95c-1.11-.81-3.21-.72-3.94.63Z" style="fill:#ffb39f"/><path d="M285,345.56a53.44,53.44,0,0,0,16.15,2c3.58-.12,4.18-5.74.55-5.62a48.43,48.43,0,0,1-14.67-1.68c-3.48-1-5.53,4.31-2,5.28Z" style="fill:#ffb39f"/><path d="M302.85,340.7l.37.39a2.88,2.88,0,0,0,4,.39,2.84,2.84,0,0,0,.39-4l-.36-.39a2.88,2.88,0,0,0-4-.39,2.84,2.84,0,0,0-.39,4Z" style="fill:#ffb39f"/><path d="M299.72,357.1l3.38.47a2.82,2.82,0,1,0,.55-5.62l-3.37-.48a2.83,2.83,0,0,0-.56,5.63Z" style="fill:#ffb39f"/><path d="M394.27,360.89a71,71,0,0,1,23.07,14.54c2.61,2.47,7-1.09,4.36-3.59a78,78,0,0,0-25.4-16.22c-3.39-1.33-5.41,3.94-2,5.27Z" style="fill:#ffb39f"/><path d="M393.41,353.22l.74.4a2.92,2.92,0,0,0,4-.63c.8-1.11.71-3.21-.63-3.95-.25-.13-.5-.26-.74-.4a2.93,2.93,0,0,0-4,.63c-.8,1.11-.72,3.22.63,4Z" style="fill:#ffb39f"/><path d="M390.13,367.82a5.49,5.49,0,0,0,3,3,2.85,2.85,0,0,0,3.65-1.62,2.89,2.89,0,0,0-1.63-3.65c.2.09.31.45.1-.1a2.82,2.82,0,0,0-5.13,2.36Z" style="fill:#ffb39f"/><path d="M93.14,181.6a56.16,56.16,0,0,1-14.48-3.24,43.39,43.39,0,0,1-8.47-4.13c-2.83-1.88-8.27-4.1-3.87-7.11s11,3.65,14.48,7a87.59,87.59,0,0,1,10.93,13.71c3.69,5.44,11.57-1.06,7.91-6.46-6.22-9.19-32.95-40.87-44.23-20.69-10.86,19.44,24.15,29.78,36.83,31.05,6.54.66,7.45-9.51.9-10.17Z" style="fill:#aec56d"/><path d="M355.39,155a10.63,10.63,0,0,0-2.45,6.35c-.1,2.66,1.71,5.42,4.58,5.58,2.63.14,5.47-1.73,5.58-4.58,0-.3.06-.59.07-.88s0-.23,0,.15-.09.43.05,0c.42-.7-.1.21-.16.22a10.45,10.45,0,0,0,.64-.85c1.74-2,1-5.69-1.14-7.12a5.24,5.24,0,0,0-7.13,1.14Z" style="fill:#aec56d"/><path d="M63.13,391.21a69.63,69.63,0,0,0,15.76,7.84c8.28,2.85,13.18-9.85,4.89-12.7a55.22,55.22,0,0,1-12.67-6.16c-7.3-4.83-15.29,6.18-8,11Z" style="fill:#9daf61"/></g></g></svg>