<svg xmlns="http://www.w3.org/2000/svg" viewBox="0 0 1971.38 1773.59"><g id="Layer_2" data-name="Layer 2"><g id="_Layer_" data-name="&lt;Layer&gt;"><path d="M862.53,487,1043,682.73a56.29,56.29,0,0,0,79.3,3.21l151.35-139.58a56.29,56.29,0,0,0,3.21-79.3L1096.38,271.35a56.28,56.28,0,0,0-79.3-3.2L865.73,407.72A56.28,56.28,0,0,0,862.53,487Z" style="fill:#ff8d67"/><path d="M1487.73,712.44c-.6.32-3.06-1.08-7.35-1.9-50.69-9.68-343.53-44.25-345.47-73.19-2.1-31.39,86.52-79.79,105.54-97.33s229.1,81.67,240.93,95.54S1501.36,705.16,1487.73,712.44Z" style="fill:#ff8d67"/><ellipse cx="1501.62" cy="684.65" rx="90.68" ry="59.26" transform="translate(171.83 1662.04) rotate(-60.83)" style="fill:#ffac96"/><path d="M1538.84,708.5c-4.93-3.13-.06-10.79,4.87-7.65s.06,10.79-4.87,7.65Z" style="fill:#384955"/><path d="M1535.28,637.72c-4.93-3.13-.06-10.79,4.87-7.65s.06,10.79-4.87,7.65Z" style="fill:#384955"/><path d="M1473.26,662.83c-4.92-3.14-.06-10.8,4.87-7.66s.06,10.8-4.87,7.66Z" style="fill:#384955"/><path d="M1467.38,744.78c-4.93-3.13-.06-10.79,4.87-7.65s.06,10.79-4.87,7.65Z" style="fill:#384955"/><path d="M1505.54,738c-4.93-3.14-.06-10.8,4.87-7.66s.06,10.8-4.87,7.66Z" style="fill:#384955"/><path d="M1462.52,706.06c-4.92-3.14-.06-10.8,4.88-7.66s.06,10.8-4.88,7.66Z" style="fill:#384955"/><path d="M1541.57,672.65c-4.92-3.13-.06-10.79,4.87-7.65s.07,10.79-4.87,7.65Z" style="fill:#384955"/><path d="M1496.35,647.71c-4.93-3.14-.06-10.8,4.87-7.66s.06,10.8-4.87,7.66Z" style="fill:#384955"/><path d="M1518.54,686.49c-4.93-3.13-.06-10.79,4.87-7.65s.06,10.79-4.87,7.65Z" style="fill:#384955"/><path d="M1509.19,711.16c-4.92-3.14-.06-10.8,4.87-7.66s.06,10.8-4.87,7.66Z" style="fill:#384955"/><path d="M1483.5,695.35c-4.92-3.14-.06-10.8,4.88-7.66s.06,10.8-4.88,7.66Z" style="fill:#384955"/><path d="M1480.62,719c-4.92-3.14-.06-10.8,4.87-7.65s.06,10.79-4.87,7.65Z" style="fill:#384955"/><path d="M1516.24,663.92c-4.93-3.13-.06-10.79,4.87-7.65s.06,10.79-4.87,7.65Z" style="fill:#384955"/><path d="M1492.54,678.38c-4.93-3.14-.06-10.8,4.87-7.66s.06,10.8-4.87,7.66Z" style="fill:#384955"/><path d="M1235.53,551.28c-28.39,7.37-58.51,16.59-75.47,42.42-3.2,4.88-10.87,0-7.66-4.87,18.37-28,50.33-38.4,81.16-46.41,5.67-1.47,7.62,7.39,2,8.86Z" style="fill:#ec6444"/><path d="M1155.74,652.64c-6.47-.88-11.89-5.41-13.09-12-1-5.74,7.81-7.73,8.86-2a5.74,5.74,0,0,0,4.57,4.89c2.43.33,4.46,2.09,4.36,4.71-.08,2.26-2.27,4.69-4.7,4.36Z" style="fill:#ec6444"/><path d="M1014,276c13.2-25,17.19-56.7,7.07-83.55-9.49-25.2-32.18-44.48-58.91-48.92-28.8-4.79-53.34,11.95-67.45,36-16,27.37-16.84,60-11.1,90.41,7.79,41.28,24.3,80.93,38.25,120.4,3.27,9.25-5,19.7-13.78,21.65-10.53,2.34-18.38-4.51-21.65-13.79-26.65-75.39-68.27-165.74-20.24-241.59,20.55-32.45,56.88-54.28,96-49.55,37.25,4.49,71.3,27.62,88,61.5,19.84,40.38,15,87.9-5.54,126.9-4.57,8.68-17.27,10.52-25,5.56-8.85-5.63-10.15-16.35-5.56-25.06Z" style="fill:#ff8d67"/><path d="M1080.68,267.62c18-4.36,36.93.95,54.21,7.66C1205,302.49,1268.44,359.79,1280.56,434c3.4,20.78,2.15,43.74-10.6,60.5L1177,409,1076.57,283.42c-2.48-3.1-5.11-7.05-3.61-10.72C1074.16,269.73,1077.56,268.37,1080.68,267.62Z" style="fill:#ff8d67"/><path d="M1247.85,343.05c1.82,6.42-5.32,11-11,9.84s-10-7.05-8.33-12.75,8.5-9.25,13.74-6c5.63,3.49,5.27,11.89-.24,15.18a4.54,4.54,0,1,1-4.15-8.07c-.18.1-.4.47-.54.54,0,.29,0,.27,0,0s0-.33,0-.07l.07.16c-.24-.5-.29-.58-.14-.24,0,0,.5.36.51.37a.48.48,0,0,0,.37,0c-.49.12-.6.14-.34.07s-.57.5-.1.07c-1.09,1,.48-.64-.44.51.31-.39.08.35,0,0-.08-.57.21.74,0,.15.22.57.06.2.27.48s.79.78.35.39c.58.51,0,.17.68.39s.15.2.78.1c-.76.12,0-.15,0-.14l-.19.15q.61-.58.12-.06c0,.43,0,2.15-.29,1a4.54,4.54,0,0,1,8.86-2Z" style="fill:#ec6444"/><path d="M1272.49,473.16a292.14,292.14,0,0,1-97.64-85.62c-3.38-4.68,3.3-10.83,6.73-6.09a285.91,285.91,0,0,0,95.78,84.06c5.14,2.78.24,10.42-4.87,7.65Z" style="fill:#ec6444"/><path d="M1151.23,360l-11.12-19.33c-2.92-5.06,5.16-9.21,8.07-4.15l11.12,19.33c2.92,5.07-5.15,9.22-8.07,4.15Z" style="fill:#ec6444"/><path d="M1208.07,335.53a171.62,171.62,0,0,0-41.21-25.69c-5.3-2.32-2.68-11,2.66-8.68A179.94,179.94,0,0,1,1213,327.87c4.42,3.69-.4,11.4-4.88,7.66Z" style="fill:#ffb7a4"/><path d="M1150.78,302.59l-8-2.48c-5.59-1.72-2.92-10.39,2.67-8.67l8,2.47c5.59,1.72,2.92,10.39-2.67,8.68Z" style="fill:#ffb7a4"/><path d="M1000.5,144.6l-7.57-4.09c-2.16-1.17-2.64-4.3-1.39-6.27a4.62,4.62,0,0,1,6.26-1.39l7.57,4.1c2.16,1.17,2.64,4.3,1.39,6.26a4.61,4.61,0,0,1-6.26,1.39Z" style="fill:#ffb7a4"/><path d="M969.62,129.85a59.22,59.22,0,0,0-39-1c-5.59,1.74-7.52-7.13-2-8.86a67.07,67.07,0,0,1,43.61,1.19c5.46,2,2.82,10.71-2.66,8.67Z" style="fill:#ffb7a4"/><path d="M1379.23,601.81c-26.29.1-49-14.69-74.4-19.22-5.74-1-3-9.69,2.67-8.68,24.56,4.39,46.69,18.93,72.07,18.83,5.86,0,5.48,9-.34,9.07Z" style="fill:#ffb7a4"/><path d="M1284.59,575.54l-8.85-3c-5.53-1.87-2.87-10.55,2.67-8.67l8.85,3c5.53,1.87,2.87,10.55-2.67,8.68Z" style="fill:#ffb7a4"/><path d="M1270.23,548.06l-7.08.38c-2.38.12-4.55-2.42-4.36-4.71a4.65,4.65,0,0,1,4.7-4.36l7.08-.38c2.38-.12,4.55,2.42,4.36,4.71a4.65,4.65,0,0,1-4.7,4.36Z" style="fill:#ffb7a4"/><path d="M1096.41,312.92c-19-11-42.2-9.81-60.41,2.28-4.86,3.22-9-4.87-4.15-8.07a66,66,0,0,1,69.44-1.86c5.06,2.91.18,10.56-4.88,7.65Z" style="fill:#ffb7a4"/><path d="M1013.28,334.69l-9.72,5.6c-5.07,2.91-9.21-5.16-4.15-8.07l9.72-5.6c5.06-2.91,9.21,5.16,4.15,8.07Z" style="fill:#ffb7a4"/><path d="M602.93,115s-6.49-45,38.06-77.51,97.45-35,134.31-26.39C835.84,25.29,856.52,75.9,833,82.8c-13.07,3.84-27.8,38.88-20.6,43.63C846.29,148.76,631.86,228.05,602.93,115Z" style="fill:#fdbaa0"/><path d="M929.4,252.31c-27.94,16.82-74.15,39-99.95,48.54h0l-.8.31c-30.85,12.07-72.26,24.29-105.18,22.19-29.84-4.26-39.81-11.15-50.52-11.69-14.22-1.27-31.46,2.77-50.13,10-9.33,3.59-267.38,231.08-370.09,319.44L60.46,428.2c29.46-19,183.07-133.63,270.21-186.11C422.77,186.63,524.27,125,575.53,94c20.26-12.26,32.68-19.74,33.56-20.16h0l1.78-.84h0l.14-.06c.44-.4,49.36-22.72,64.46-37.15L812,152.18s0,0,0,0C814.15,154,920.84,245,929.4,252.31Z" style="fill:#fdbaa0"/><path d="M677.23,312.1a94.88,94.88,0,0,1-46.66-51.69c-.63-1.69,1.95-2.83,2.58-1.12a91.9,91.9,0,0,0,45.08,50.18c1.61.8.62,3.43-1,2.63Z" style="fill:#e79780"/><path d="M500.7,189c-67.54,25.5-123.9,84-170,53.12C422.77,186.63,524.27,125,575.53,94,570.67,122.53,554.43,168.68,500.7,189Z" style="fill:#ffd1c3"/><path d="M611.79,74.65a194.42,194.42,0,0,0-8,89.63,1.41,1.41,0,0,1-2.78.42,197.93,197.93,0,0,1,8.17-91c.58-1.73,3.2-.72,2.63,1Z" style="fill:#e79780"/><path d="M935.2,104.84S861.29,54.32,825.69,70.18s-36.83,86-29.71,112.6S851.11,291,870.93,284.38C928.82,265,935.2,104.84,935.2,104.84Z" style="fill:#efab95"/><path d="M952.29,74.87c-52.71,14.32-106.64-5.26-117.22-.53s-75.65,9.47-75.65,9.47S673.27,15.43,703.45,9C742.38.58,837.64-4.48,873.27,5.54c29.78,8.38,58.81,9.85,82.38,9.68,27.05-.2,47-2.53,52.68,1a4,4,0,0,1,1.11.93C1016.21,25.84,1005.76,60.34,952.29,74.87Z" style="fill:#fdbaa0"/><path d="M869.07,132.83c5.11-1.78,4.74-6.76,14.21-3.1,34.66,8.17,65.13,25.78,94.32,44.29,12.14,7.7,24.7,16.26,29.87,29.83s-.56,33.48-15.38,39.52c-10.94,4.45-22.18.07-31.91-4.41C923.94,222.29,900,203.3,869.56,178.4c-7.86-6.44-13.6-15.29-13.49-26.05S858.41,136.54,869.07,132.83Z" style="fill:#fdbaa0"/><path d="M953.42,218.35c15.37,1,25,16.21,30.09,30s-1.13,34.22-16.39,40.63c-11.27,4.72-22.7.43-32.59-4-36.82-16.44-50.41-38.54-81.13-63.49-7.93-6.44-19-18.37-16-26.4,8.28-22.13,36.26-12.92,72.08,14.23C921.91,218.72,942.9,217.64,953.42,218.35Z" style="fill:#fdbaa0"/><path d="M844.38,216c4.21-.08,37.08,16.58,57.7,40.86,8.57,10.1,17.38,21.06,19.81,34.23s-4.42,28.71-16.72,29.69c-9.08.73-17.35-6.25-24.43-12.89-26.35-24.7-24.24-21.61-45-51.74-5.38-7.79-11.56-21.17-10.2-30.41S835.61,216.16,844.38,216Z" style="fill:#fdbaa0"/><path d="M897.69,88.41c33.32,10,56.84,19.61,85.63,39.12,12,8.12,24.4,17.08,30.15,30.35s1.59,31.91-12.05,36.74c-10.07,3.55-21-1.34-30.48-6.23-35.34-18.19-71.63-29.72-98.64-58.9C842.2,97,888.49,84.32,897.69,88.41Z" style="fill:#fdbaa0"/><path d="M996.8,194.37q-31.57-21.12-64.88-39.45C921.14,149,910.27,143,899.1,137.83c-10.46-4.83-22.63-7.67-33.06-1.19-1.81,1.12-3.35-1.82-1.54-2.94,9.14-5.68,20.24-5,30-1.37,12,4.42,23.36,11.19,34.56,17.26q35.68,19.33,69.45,41.95c1.77,1.18.05,4-1.73,2.83Z" style="fill:#e79780"/><path d="M973.45,123.09q-19.1-9.72-38.7-18.35c-11.54-5.06-23.45-11-35.76-13.88-11.21-2.63-25.53-.55-32,10.19-6.56,10.91,1.21,21.51,8.48,29.49,1.38,1.51-.94,3.7-2.32,2.18-5.71-6.26-11.5-13.28-11.79-22.13-.29-9.36,5.9-17,14-20.85,9-4.28,18.86-3.75,28.17-.94C915,92.22,926,97.42,936.86,102.21q19.38,8.54,38.25,18.16c1.83.93.15,3.65-1.66,2.72Z" style="fill:#e79780"/><path d="M978.52,243.94c-5-8.68-16.85-11.07-25.84-14.6-7.58-3-15-6.16-22.33-9.66-14.39-6.92-28.08-14.94-42-22.57-1.57-.86.21-3.54,1.78-2.67,14.41,7.88,28.56,16.2,43.49,23.27,7.75,3.67,15.7,7,23.77,10.09,8.88,3.41,19.06,6,23.92,14.53.89,1.55-1.89,3.15-2.78,1.61Z" style="fill:#e79780"/><path d="M920.11,292.32c-1-4.74-4.41-8.3-7.46-11.89-2.19-2.57-4.42-5.12-6.66-7.65q-8.65-9.75-17.71-19.13c-6.43-6.67-13-13.21-19.86-19.43-5.6-5.08-11.42-10.2-17.94-14.08a17.38,17.38,0,0,0-8.44-2.89c-5.8-.19-14,2.33-15.15,8.9-.31,1.86-3.11,1-2.8-.83,1.53-9.14,14.55-12.74,22.32-10.33,6.32,2,11.91,6.81,16.91,10.94,15.37,12.72,29.19,27.46,42.5,42.28,2.91,3.24,5.8,6.51,8.63,9.83,3.5,4.1,7.36,8.19,8.51,13.63a1.46,1.46,0,0,1-2.85.65Z" style="fill:#e79780"/><path d="M880.37,310.45A280.06,280.06,0,0,1,851.19,279c-9.41-11.58-19.1-24.08-24.77-38-2-4.84-3.78-10.45-2.33-15.68.5-1.81,3.3-1,2.8.83-1.25,4.53.51,9.61,2.23,13.77a106,106,0,0,0,9.75,17.6,285.92,285.92,0,0,0,29,36.23c4.7,5.08,9.53,10.06,14.67,14.7,1.39,1.26-.75,3.26-2.14,2Z" style="fill:#e79780"/><path d="M898.71,202.82c-7.89-4.44-13.21-7.9-19.87-14-5.8-5.32-11.44-10.9-16-17.35-7.79-11-13.48-29.18.76-37.36,1.8-1,3.42,1.82,1.61,2.86-14.39,8.26-4.33,27.47,3.57,37A107.38,107.38,0,0,0,900.13,200c1.85,1,3.41,5.57,1.57,4.54Z" style="fill:#e79780"/><path d="M904.22,168.23c1.95-2.87,4.17-7.17,3.79-10.93a7,7,0,0,0-.51-2.09c-1.9-4.59-7.42-8.19-11.54-10.55a39.94,39.94,0,0,0-12.25-4.95h0c-.32-.06-.65-.12-1-.15-.53-.09-1.07-.13-1.61-.17a1.82,1.82,0,0,0-.58,0,2,2,0,0,0-.61.08,12.43,12.43,0,0,0-10.81,8.87h0a0,0,0,0,1,0,0s0,0,0,0a12.12,12.12,0,0,0-.48,2.54,13.59,13.59,0,0,0,.81,6.11,21,21,0,0,0,2.61,4.85,39.88,39.88,0,0,0,9.15,8.68c3.21,2.34,8.35,6.32,12.58,5.94S902,171.54,904.22,168.23Z" style="fill:#e79780"/><path d="M912.24,118.59c1.16-3.6,1.31-7.22-.25-9.8-2.57-4.22-8.26-7.09-12.6-9l-.59-.24c-4.66-2-9.86-3.75-15-3.35l-.13,0a2.68,2.68,0,0,0-.39,0c-8.89,1.53-12.67,11.23-8.74,18.91a23.64,23.64,0,0,0,6.12,7.3,47.82,47.82,0,0,0,7.55,5,48.56,48.56,0,0,0,7.18,3.52,9.71,9.71,0,0,0,6.05.51C905.76,130.19,910.33,124.4,912.24,118.59Z" style="fill:#e79780"/><path d="M879.32,204.94a8.62,8.62,0,0,0-1-2.85c-1.88-3.35-5.68-6.21-8.43-8.17-3.86-2.77-8.24-5.22-13-6a1.73,1.73,0,0,0-.53-.09,1.38,1.38,0,0,0-.54,0c-7.24.09-12.19,6.8-10.76,13.87,1.07,5.34,5.11,9.86,9.06,13.37.89.78,1.91,1.71,3,2.62,2.15,1.81,4.63,3.54,7.06,4C871.11,222.92,880.41,211.44,879.32,204.94Z" style="fill:#e79780"/><path d="M856.5,245c3.07-3.89,1.61-7.5-.88-11.35a29.83,29.83,0,0,0-8.28-8.66,19.13,19.13,0,0,0-2.45-1.4,1.52,1.52,0,0,0-.57-.28,1.55,1.55,0,0,0-.65-.15c-6.61-1.39-11.74,4.32-10.93,10.83.07.54.16,1.07.28,1.6,1,4.61,3.93,8.89,6.92,12.4,1.45,1.7,3.06,3.44,5.49,3.41C849.59,251.35,854,248.14,856.5,245Z" style="fill:#e79780"/><path d="M839.28,195.79c2.09-5.58,5.45-9,10.28-10.37a19.61,19.61,0,0,1,5.52-.73c7.45,0,17.14,3.34,28.74,9.86.61.35,4.57,2.71,5.18,2.36l.94-1.08c1.34-.77-2.79-4-4.14-4.77-15.82-8.91-28.34-12.09-37.36-9.48-6,1.75-10.38,6.06-12.9,12.81-2.68,7.16,3.59,15.86,9.3,21.88a2,2,0,0,0,2.45.36h0a2,2,0,0,0,.44-3.11C841.81,207.24,837.6,200.3,839.28,195.79Z" style="fill:#e79780"/><path d="M985.28,26.68c-9.37-.33-28.23,1.93-29.63-11.46,27.05-.2,47-2.53,52.68,1a7.6,7.6,0,0,1-2.69,8.16C1000.45,28.45,991.51,26.91,985.28,26.68Z" style="fill:#e79780"/><path d="M0,310.41s303.16-88.77,324.16-101.18,39.82-34.16,48.39,5.25S398.47,345,451.3,374.64s62.18,24.42,93.48,39.84c15.6,7.68-434.44,360.24-434.44,360.24Z" style="fill:#384955"/><ellipse cx="1199.59" cy="1681.21" rx="771.79" ry="92.38" style="fill:#6cc7e0"/><ellipse cx="1517.68" cy="1661.88" rx="221.84" ry="49.19" style="fill:#4090b8;opacity:0.4"/><path d="M1120.76,1270.05q44.16,197.68,99.31,392.69c4,14.27,8.69,29.43,20.14,38.86,10.15,8.35,23.83,10.66,36.83,12.58q73.41,10.83,147.33,17.56c15.78,1.43,32.28,2.63,46.93-3.4,29.36-12.08,40.26-47.31,47.17-78.3a3244.49,3244.49,0,0,0,57.07-340c1.09-9.56,1.48-20.84-5.92-27-4.69-3.89-11.21-4.46-17.28-4.87-131.87-8.8-266-.6-395.61-26.42-25.77-5.13-37.7,10.2-36,18.27Z" style="fill:#41a5c7"/><path d="M1473,1726.22c-11.83,8.91,114-49.68,163.37-118.19,9.47-13.13,13.51-29.31,17.54-45q32.16-125,64.33-250.06c6-23.24,11.76-48.82,1.29-70.41-2.18-4.5-5.26-8.88-9.81-10.95s-9.67-1.53-14.56-.87c-46,6.21-93.31,24.12-132.53,48.87,0,0,16.06,3.51,12.89,30.41s-50.24,308.65-50.24,308.65S1486.75,1715.88,1473,1726.22Z" style="fill:#4090b8"/><path d="M1184.18,1529.48c40.57,44.06,94.48,71.94,151.15,89.55a641,641,0,0,0,89,20.58c32.51,5.19,65.73,7,97.68-2.33,3.36-1,2.47-6.42-.94-5.43-31.51,9.16-64.15,7.39-96.2,2.28a631.08,631.08,0,0,1-87.56-20.25c-55.73-17.32-108.93-44.53-148.86-87.9-2.4-2.6-6.67.88-4.26,3.5Z" style="fill:#7bd3ec"/><path d="M1154.67,1419.93A686.94,686.94,0,0,0,1532,1565.74c3.53.24,4.09-5.24.54-5.48a681.62,681.62,0,0,1-374.63-144.79c-2.79-2.21-6,2.26-3.24,4.46Z" style="fill:#7bd3ec"/><path d="M1211,1642c74.34,62.26,168.52,76.23,261.76,87,3.53.41,4.07-5.08.54-5.48-92.32-10.62-185.44-24.28-259.07-85.94-2.72-2.28-5.94,2.2-3.23,4.46Z" style="fill:#7bd3ec"/><path d="M1136.86,1335.47c125.85,72.19,271.15,95.88,413.62,109.78,3.53.34,4.07-5.14.54-5.48C1409.6,1426,1265,1402.68,1140.1,1331c-3.06-1.75-6.31,2.69-3.24,4.46Z" style="fill:#7bd3ec"/><path d="M1206,1610.88a609.14,609.14,0,0,0,340-131.34c2.78-2.21-.72-6.47-3.5-4.26a604.12,604.12,0,0,1-337.43,130.17c-3.53.22-2.57,5.65.94,5.43Z" style="fill:#7bd3ec"/><path d="M1527.52,1598.09c-28.28,35.8-70.82,55.15-112.4,71.14a750.74,750.74,0,0,1-142.78,39c-3.49.6-2.57,6,.94,5.43a757.63,757.63,0,0,0,147.89-40.92c41.27-16.12,82.75-35.94,110.81-71.45,2.21-2.8-2.27-6-4.46-3.24Z" style="fill:#7bd3ec"/><path d="M1177.53,1517.29c46.55-8,92.47-24.45,137.14-39.36,58.9-19.66,118-40.69,173.95-67.81,18.85-9.14,40.33-19,55-34.37,2.42-2.53-1.05-6.82-3.5-4.25-12.86,13.46-31,22.22-47.41,30.44-25.35,12.69-51.58,23.62-78,34-57.47,22.6-116.13,42.6-175.41,60-20.65,6-41.55,12.31-62.79,16-3.49.61-2.56,6,.94,5.43Z" style="fill:#7bd3ec"/><path d="M1479.5,1286.71c-19.13,25.94-58.08,34.84-87.21,44.28a863.34,863.34,0,0,1-105.42,26.76c-3.47.66-2.56,6.09.94,5.43a874,874,0,0,0,110.71-28.47c29.29-9.64,66.17-18.64,85.45-44.77,2.11-2.86-2.36-6.08-4.47-3.23Z" style="fill:#7bd3ec"/><path d="M1300.72,1272.5a726.6,726.6,0,0,0,253.94,105.15c3.47.71,4-4.78.54-5.49A719.21,719.21,0,0,1,1304,1268c-3-2-6.19,2.5-3.23,4.46Z" style="fill:#7bd3ec"/><path d="M1339.18,1286.61c3-14.21,5.94-28.77,4-43.16s-9.74-28.82-22.94-34.89-23.75-5.8-31.63,2.39l-61.23,83.31c-14.12,19.22-28.58,39.16-33.84,62.42s1.11,50.9,21.31,63.58c14.19,8.91,32.83,8.82,48.3,2.39s28-18.53,37.77-32.15C1322.58,1360.28,1331.45,1323,1339.18,1286.61Z" style="fill:#c1d383"/><path d="M1305.49,1222.16a520.33,520.33,0,0,1-62.89,139.23c-1.19,1.83,1.57,3.84,2.75,2a522.75,522.75,0,0,0,63.31-140c.6-2.09-2.57-3.33-3.17-1.22Z" style="fill:#dcea9e"/><path d="M1616.88,1378.52c1.63-17.76-2.14-35.7-8.56-52.35-4-10.51-9.24-20.74-16.81-29.08-10.21-11.25-20.15-24.34-34.52-29.27-25.81-8.86-74.46-14.72-98.63,6.31,0,0,45.62,18,53.23,33.93,15.48,32.35,6.35,74.17,27.83,102.9a57.93,57.93,0,0,0,30.15,20.82c4.29,1.23,8.86,2,13.22,1,4.51-1,8.44-3.8,11.87-6.9C1607.87,1413.88,1615.25,1396.29,1616.88,1378.52Z" style="fill:#c1d383"/><path d="M1521.74,1268.78c51,19.11,60.49,77.9,63.89,125.51.15,2.18,3.51,1.59,3.35-.58-3.49-48.87-13.84-108.55-66-128.11-2-.77-3.27,2.41-1.22,3.18Z" style="fill:#dcea9e"/><g id="_7fuaQN" data-name="7fuaQN"><path d="M835,1621.16l108.1-19c8.14-1.43,14.7-7.19,14.27-16.06-.36-7.48-8-15.69-16.07-14.27l-108.11,19c-8.14,1.43-14.69,7.19-14.26,16.06.36,7.48,8,15.69,16.07,14.27Z" style="fill:#ffcfbf"/><path d="M1085.51,1541.45l-159.17,19.36c-16.28,2-29.53,15-28.53,32.13.92,15.63,15.78,30.52,32.14,28.53l159.17-19.35c16.28-2,29.53-15,28.53-32.14-.92-15.63-15.78-30.52-32.14-28.53Z" style="fill:#384955"/><path d="M917.8,1698.06c-52.65,24.23-113.34,27.3-170.2,16.18s-110.24-35.78-160.28-65c-5.75-3.37-12-7.53-13.18-14.07-.91-5,1.48-9.87,4.05-14.16,14.28-23.48,37.7-39.78,61.48-53.5a529,529,0,0,1,169.41-62.22c10.21-1.86,30.68-5.75,40.69-3s33.43,11.72,23,32.23c-5.63,9-11.37,18.8-15.31,28.91-5.69,14.26-7.87,29.08-1.41,42.66,3.25,6.84,8.3,12.38,14,17.47,5.09,4.57,10.67,8.74,15.9,13.11a164.21,164.21,0,0,1,35.7,42c2.79,4.72,5.31,10.93,2,15.36C922.21,1695.94,920,1697.05,917.8,1698.06Z" style="fill:#ff8d67"/><path d="M868.73,1627.55c-1.06,1.22-2.76,1.58-4.32,1.87-46.14,8.79-95.88,17.21-138.54-2.52a7.08,7.08,0,0,1-3.13-2.29c-2-3.22,1.91-6.82,5.26-8.59a692.35,692.35,0,0,1,129.28-52.66l.13.08c-5.69,14.26-7.87,29.08-1.41,42.66,3.25,6.84,8.3,12.38,14,17.47A7.19,7.19,0,0,1,868.73,1627.55Z" style="fill:#ff9b81"/></g></g></g></svg>