<svg xmlns="http://www.w3.org/2000/svg" viewBox="0 0 2369.5 1627.55"><g id="Layer_2" data-name="Layer 2"><g id="Layer_1-2" data-name="Layer 1"><path d="M101.33,1622.21s-223.4-427.7,56-739S676.9,744.4,798.8,735.75s161-281.28,521.63-363.5,696.67,68.9,660.36,340.12C1926.59,1117.23,2603,920.76,2255.57,1624Z" style="fill:#ebf2f9"/><path d="M2068.32,1539.56c24.67-29.94,54-71.62,29.12-74.68-23.13-2.83-38.41,34.34-47,65.25a71,71,0,0,0-7.84-2.53c8.11-37.62,7.09-89.29-8.11-80.92-12.67,7-11.65,47.2-8.88,78.14-15.07-1.23-31.54.21-48.06,2.56-3.56-21.56-11.39-51.55-26.31-52.2-15.22-.66,2.2,31.71,15.81,53.79-3.17.51-6.32,1-9.46,1.57-5.76-9-14.35-19.1-23.6-18.2-9.5.93,2.14,11.27,13.74,19.9-40.15,7-75.27,12.73-83.67-10.51-16.15-44.73-70-122.78-125.57-127.63S1543.53,1531.91,1451.33,1514c-318.53-62-475.23,113.59-475.23,113.59l469.56-5.07,695.6,2.74S2117.06,1571.16,2068.32,1539.56Z" style="fill:#afd295"/><path d="M1238,1622.21c-123.69-124.63-406.85,65.75-684-107-27.35-17-62.27-64-171.15-55.75-24.09,1.84-45.08,10.65-63.17,23.25-11.64-32.22-31.41-68.35-60.41-61-32.2,8.11,7,49.72,39.27,78.58q-3.51,3.4-6.84,7c-7.41-6-18.72-10.57-35.3-6.82-23.5,5.32,3.16,13.53,25,18.69-36.66,45.22-53.11,101.83-53.11,101.83Z" style="fill:#82b378"/><path d="M432.3,1111.31s8.77,18.13,7.11,23.53-11.54,12.33-18.48,11.89-9.13-15-4.38-29.17S432.3,1111.31,432.3,1111.31Z" style="fill:#ffb27d"/><path d="M517.19,823.12S405.45,952,405.7,967s27.74,34.88,41.35,34.45c13.25-.42,107.7-89.38,107.17-94.18S517.19,823.12,517.19,823.12Z" style="fill:#e58638"/><path d="M409.33,1107.75c-7.05-53.79-3.47-142.29-3.47-142.29l52.33,6.72s-8,121.8-22.55,143.64C435.64,1115.82,411.83,1126.81,409.33,1107.75Z" style="fill:#e58638"/><path d="M551.35,1580.94s-7.57,39.78,0,39.87h86.39s9.62-11.81-4.37-14.25-37.39-12.27-45.86-30.75C578.62,1556.36,551.35,1580.94,551.35,1580.94Z" style="fill:#163560"/><path d="M443,1582s-7,32.85-.8,38.85H530.3c-.34-2.59,6.61-11.17-5.22-13.23-14-2.44-37.4-12.27-45.87-30.76C470.29,1557.4,443,1582,443,1582Z" style="fill:#163560"/><path d="M604.34,1164.78s-21.5,73.65-68.18,215.72-55.8,198.63-55.8,198.63-6-4.23-17.45-4.09c-10.75.12-19.89,6.94-19.89,6.94s-1.42-148.18,20.09-219.62,4.64-257.55,4.64-257.55Z" style="fill:#fca56b"/><path d="M628.7,1109.19s1.78,120.6-19.09,268.68-23.3,195.7-23.3,195.7-5.76-1.7-16.48-1.07c-11,.63-18.48,8.44-18.48,8.44s-31.58-136.33-23-210.44-44.69-256.61-44.69-256.61Z" style="fill:#ffb27d"/><path d="M467.75,1104.81S479,1289.72,457.5,1361.16l69.61,25.34c12.22-159,77.23-221.72,77.23-221.72Z" style="fill:#163560"/><path d="M628.7,1109.19l-145.06,4.7s44.75,177.49,36.19,251.61l95,12.37C635.7,1229.79,628.7,1109.19,628.7,1109.19Z" style="fill:#1c468a"/><path d="M532,827l23.57,17.46,34.06-7.18c-.47-3.1-2.72-16-4.76-27.64-.13-.69-.25-1.37-.37-2.05-1.75-9.92-3.27-18.44-3.27-18.44l-31.81-15.86-11.87-5.92c0,.21.92,11,1,12.59C540.78,807.94,532,827,532,827Z" style="fill:#ffb27d"/><path d="M587.21,818.16c-.75-.31-46.34-13.77-51.29-12.13S528,817.25,528,817.25l74.58,16.86S596.74,822.17,587.21,818.16Z" style="fill:#d67025"/><path d="M464.43,1124.08c7.73,35.26,136.36,39.44,169.51,7.44,3.77-3.65,4-20.62,2.53-43.5-2-31.36-6.92-73.79-9.84-108.2-1.25-14.66-2.11-27.86-2.22-38.13a272.71,272.71,0,0,0-5.48-49c-2.2-11.17-7.69-22.39-14-32.35a199.88,199.88,0,0,0-27.4-33.83s-37.76-12.75-49.51-9.29C471.39,833.89,456.71,1088.82,464.43,1124.08Z" style="fill:#ee9849"/><path d="M541,780.43c7,13.37,33,24.93,43.88,29.18-.13-.69-.25-1.37-.37-2.05-1.75-9.92-3.27-18.44-3.27-18.44l-31.81-15.86C542.34,773.15,538.06,774.93,541,780.43Z" style="fill:#fca56b"/><path d="M596.66,787.25s-57.41,17.91-68-18-25.15-57.8,11.06-70.75,47.4-1.36,53.85,9.77S611.31,781.67,596.66,787.25Z" style="fill:#ffb27d"/><path d="M589.76,702.84s-9,43.76-17.68,41.95-16.48-3.16-15.21,9.44,13.25,27.14-13.39,29.37-64.94-66.47-57.62-79.48C507,666.59,620.28,657.06,589.76,702.84Z" style="fill:#163560"/><rect x="1578.75" y="459.19" width="53.6" height="621.88" style="fill:#a2c5f9"/><rect x="1584.97" y="453.58" width="19.77" height="651.2" style="fill:#c7dcf9"/><rect x="1278.34" width="654.43" height="451.93" style="fill:#cae0fc"/><polygon points="1278.34 451.93 1932.77 451.93 1932.77 0 1278.34 451.93" style="fill:#bbd9f9"/><path d="M1452.92,109.67V342.25h305.26V109.67Zm286.89,212H1471.29V130.3h268.52Z" style="fill:#b64c41"/><polygon points="1739.81 133.25 1739.81 321.63 1471.29 321.63 1471.29 318.68 1452.92 331.37 1452.92 342.25 1758.18 342.25 1758.18 120.56 1739.81 133.25" style="fill:#aa413e"/><polygon points="1964.55 460.78 1932.77 460.78 1932.77 0 1964.55 11.18 1964.55 460.78" style="fill:#233862"/><polygon points="1964.55 460.78 1289.52 460.78 1278.34 451.93 1964.55 451.93 1964.55 460.78" style="fill:#233862"/><path d="M1712.54,347.23H1428a9.23,9.23,0,0,1-9.23-9.23h0a9.22,9.22,0,0,1,9.23-9.22h284.59a9.23,9.23,0,0,1,9.23,9.22h0A9.23,9.23,0,0,1,1712.54,347.23Z" style="fill:#ee9849"/><polygon points="1634.9 347.23 1634.9 398.66 1576.2 398.66 1553.84 347.23 1634.9 347.23" style="fill:#e58638"/><polygon points="1683 554.46 1458.62 554.46 1436.26 347.23 1705.37 347.23 1683 554.46" style="fill:#9ed9f0;opacity:0.5"/><path d="M1510.71,529.21a2.8,2.8,0,0,1-2-4.77L1662.2,371a2.8,2.8,0,0,1,4,3.95L1512.69,528.39A2.79,2.79,0,0,1,1510.71,529.21Z" style="fill:#fff"/><path d="M1466.4,524.32a2.84,2.84,0,0,1-2-.82,2.81,2.81,0,0,1,0-4l142.43-142.42a2.8,2.8,0,0,1,4,3.95L1468.38,523.5A2.82,2.82,0,0,1,1466.4,524.32Z" style="fill:#fff"/><path d="M1582.35,514a2.8,2.8,0,0,1-2-4.77l74-74a2.8,2.8,0,0,1,4,4l-74,74A2.79,2.79,0,0,1,1582.35,514Z" style="fill:#fff"/><path d="M1621.2,527.74a2.78,2.78,0,0,1-2-.82l-154.8-154.8a2.8,2.8,0,1,1,4-3.95L1623.18,523a2.8,2.8,0,0,1-2,4.77Z" style="fill:#fff"/><path d="M1676.13,522.43a2.78,2.78,0,0,1-2-.82L1557.09,404.55a2.8,2.8,0,0,1,4-3.95l117.06,117.06a2.8,2.8,0,0,1-2,4.77Z" style="fill:#fff"/><path d="M1553.44,520.56a2.8,2.8,0,0,1-2-.82l-87-87a2.8,2.8,0,0,1,4-4l87,87a2.8,2.8,0,0,1-2,4.77Z" style="fill:#fff"/><path d="M1673.11,1624H1538V1126.86a67.57,67.57,0,0,1,67.56-67.57h0a67.56,67.56,0,0,1,67.56,67.57Z" style="fill:#1c468a"/><path d="M1574.78,1119a57.57,57.57,0,0,1,49.55-57,67.64,67.64,0,0,0-18.78-2.67h0a67.57,67.57,0,0,0-67.56,67.57V1624h36.79Z" style="fill:#365da4"/><rect y="1620.41" width="2369.5" height="7.14" rx="3.3" style="fill:#aa413e"/></g></g></svg>