<svg xmlns="http://www.w3.org/2000/svg" viewBox="0 0 215.51 431.48"><g id="Layer_2" data-name="Layer 2"><g id="Layer_1-2" data-name="Layer 1"><circle cx="144.51" cy="71" r="71" style="fill:#b64c41"/><path d="M182.41,11a71,71,0,0,1-64.56,97.58,70.64,70.64,0,0,1-39.17-11A71,71,0,1,0,182.41,11Z" style="fill:#aa413e"/><path d="M130.62,132.59a2,2,0,0,1-2-1.59c-8.39-40.56-3.32-72,2.41-91.28,6.24-21,14.39-32.17,14.73-32.64A2,2,0,0,1,149,9.46c-.32.44-32.13,44.88-16.45,120.73a2,2,0,0,1-1.55,2.36A1.55,1.55,0,0,1,130.62,132.59Z" style="fill:#fff"/><path d="M200.79,86.14a2,2,0,0,1-1.33-.48c-.42-.36-42.4-35.35-119.2-25.31a2,2,0,1,1-.51-4c41.06-5.38,72.07,2,90.85,9.13,20.44,7.77,31,16.72,31.46,17.1a2,2,0,0,1-1.27,3.52Z" style="fill:#fff"/><path d="M160.78,122.72a2.05,2.05,0,0,1-1.44-.58c-.85-.84-20.56-21-7.79-60.58,4.08-12.66,10.81-21.14,20-25.21,14.06-6.23,28.59.21,29.2.49a2,2,0,1,1-1.65,3.64c-.13-.06-13.56-6-26-.46-8.09,3.59-14.08,11.25-17.79,22.76-12,37.3,6.61,56.33,6.8,56.51a2,2,0,0,1-1.37,3.43Z" style="fill:#fff"/><path d="M94.44,104.58a2.07,2.07,0,0,1-1.34-.49,2,2,0,0,1-.21-2.82c14.48-16.79,20.74-35.47,18.6-55.54a69,69,0,0,0-7.63-25.35,2,2,0,1,1,3.43-2c.27.44,6.44,10.94,8.16,26.79,1.59,14.63-.5,36.69-19.53,58.75A2,2,0,0,1,94.44,104.58Z" style="fill:#fff"/><path d="M133.59,174.44s9.11-30.2,2-33.83c-26.24-13.46-27.51-35.64-35.28-34s4.72,42.56,13.77,61.51S133.59,174.44,133.59,174.44Z" style="fill:#ffb27d"/><path d="M.28,340.54S12.55,326.39,34.88,323c20.19-3.08,91.06-33.36,93.48-42.69,1.79-6.87-18.52-121.3-18.69-118.77,0,0,12.58-13.63,27.9-5.68,0,0,52.19,133.29,44.05,151.38C169.11,335,17.24,429.37,14.21,430.92-3.16,439.77.28,340.54.28,340.54Z" style="fill:#ee9849"/></g></g></svg>