<svg xmlns="http://www.w3.org/2000/svg" viewBox="0 0 429.74 1012.36"><g id="Layer_2" data-name="Layer 2"><g id="Layer_1-2" data-name="Layer 1"><path d="M23.12,44h5s7.82-26.86,2-34S9.86-3.61,6.62,2.34s-4.48,28-2.21,36.76S23.12,44,23.12,44Z" style="fill:#ffb27d"/><path d="M196.27,212.08c24.54,2.92,42.73-3.79,42.06-19.17-2.21-11.91-4.24-24-4.39-33.92a68.48,68.48,0,0,1,.86-11.92l-55.07-.95-.33,5.4L177.09,189l-.73,11.9S171.74,209.18,196.27,212.08Z" style="fill:#ffb27d"/><path d="M177.09,189a40.29,40.29,0,0,0,12.54,2c21.85,0,43.55-35.2,44.23-39.59l-47.55-1-6.91,1.14Z" style="fill:#fca56b"/><path d="M170.48,165.15s60.9,12.31,68-25.74,19.71-62.07-18.88-71.54-48.86,3.65-54.31,15.77S154.82,161,170.48,165.15Z" style="fill:#ffb27d"/><path d="M215.27,1012.31s2.38-18.24,7.65-28.78,38.81-3.83,38.81-3.83,6.83,5.83,8.27,32.66Z" style="fill:#233862"/><path d="M102.07,1012.35c7.88-4.81,2.43-38.72,2.43-38.72s-36.72-29.38-41.77-6.88-34.88,32.59-51.87,35.34C-.86,1004-.12,1009,.09,1012.35Z" style="fill:#233862"/><path d="M177.17,753.33c-1.5,8.24-15.64,14.91-15.89,19.76-3.41,66.59-45.58,175.29-56.53,202.24-16-3.29-21-2.79-33-6.62a37,37,0,0,0-9-2C88.8,846.91,87.92,681.46,91.41,579.29c1.76-51.45,10.59-87,10.59-87S230.38,458,231.14,501.37C231.82,539.71,188.62,690.08,177.17,753.33Z" style="fill:#ffb27d"/><path d="M177.17,753.33l-85.76-174c1.76-51.45,10.59-87,10.59-87S230.38,458,231.14,501.37C231.82,539.71,188.62,690.08,177.17,753.33Z" style="fill:#233862"/><path d="M161.28,499l64.53,481.48s13.22-5,35.92-.82c0,0,16.62-246.24,15-309.49S301.93,500.76,284,489.07,161.28,499,161.28,499Z" style="fill:#ffb27d"/><path d="M102,492.29s-8.83,35.55-10.59,87c-3.49,102.17-5.6,116.35-11.33,193.32l94.39.56a170.34,170.34,0,0,1,2.7-19.84c11.45-63.25,54.65-213.62,54-252C230.38,458,102,492.29,102,492.29Z" style="fill:#b64c41"/><path d="M177.17,753.33l-85.76-174c1.76-51.45,10.59-87,10.59-87S230.38,458,231.14,501.37C231.82,539.71,188.62,690.08,177.17,753.33Z" style="fill:#aa413e"/><path d="M148.61,501.52,188,787.31s72,9,95.18,3.23A1031.55,1031.55,0,0,0,287.67,670C286,606.74,301.93,500.76,284,489.07S148.61,501.52,148.61,501.52Z" style="fill:#b64c41"/><path d="M424,157a14.38,14.38,0,0,0,.38-2.5c.27-5.24-.14-15.49-1.34-20.59s-20-15.23-25-14.18-4.87,16.2-5.71,22.07,10.92,22.7,11.19,23.09c-.83,4.35-8.84,45.9-17.85,76.34a198.15,198.15,0,0,1-7.2,20.83c-2.94,6.87-73.3-30.66-123.57-56.12l-.36-.18a16.1,16.1,0,0,0-23.14,17l5.84,35c10,18.06,119.14,67,176.4,49.77,0,0,14.35-19,15.75-54A530.27,530.27,0,0,0,424,157Z" style="fill:#ffb27d"/><path d="M150.38,57.59a127.47,127.47,0,0,0,37-10c16.26-7.07,36.77.71,43.43,4.22a9.93,9.93,0,0,0-1.63-4s3,2.12,3.43,5.09c.31.22.45.38.37.43s3.39-.62,5.57.36c0,0-1.53-.21-2.07.77a.88.88,0,0,1-.25.26C261.6,67,263.94,107,255.78,116.31c-9.81,11.16-21.59,36.29-21.59,36.29s-4.29-5.94-2.51-15.76S225,127,214.28,122.56s-1.79-17-11.16-24.55S170.27,96,159.83,89.09C145.79,79.77,150.38,58.9,150.38,57.59Z" style="fill:#233862"/><path d="M62.93,215.34a314.33,314.33,0,0,1,28.83-54.4c-20.42-11.12-41-22.78-42.9-25.65C44.94,129.46,28.11,44,28.11,44s-4.06-11.26-22-3.16c0,0,.31,104.33,2.25,116C9.53,163.78,38.44,192.2,62.93,215.34Z" style="fill:#ffb27d"/><path d="M293.05,290.82a352.21,352.21,0,0,0,44,14.59c-3-20.3.05-43.44,3.08-59.68-23.31-13.29-53.08-33.79-79.14-47l-.51-.11a23.11,23.11,0,0,0-8.39-.27A14.3,14.3,0,0,1,238.42,193l-.09-.12c0,10.24-21.8,19.08-39.57,17.91-15-1-21.78-13.91-21.78-20.08a5.13,5.13,0,0,1-5.19-.22c-3.8-2.43-12.86-6.59-31-7.09a23.61,23.61,0,0,1-12.71-4.13c-7.52-5.14-21.25-14.22-35.45-22,0,0-1.69,2.39-1.68,2.39A341.92,341.92,0,0,0,61,216.29C77.44,231.81,93.76,244,96.49,246.74c6.81,6.8,10,34.43,10,34.44h0v.09c-.24,190-26.41,207.26-8.71,220.77a.54.54,0,0,0,.53.39S118,520.35,170,520A402.42,402.42,0,0,0,249,512.08c26.59-5.52,40.8-11.88,40.8-11.88.61,0,1.09-1.47,1.45-4.08a10.08,10.08,0,0,0,2.5-7.06c-.14-3.78.56-8.57.09-14q-1.11-12.78-1.86-24.9c-.81-39.84-3.54-92.47-5.31-114.63C285.85,324.84,284.75,296.17,293.05,290.82Z" style="fill:#739af0"/><path d="M293.05,290.82a352.21,352.21,0,0,0,44,14.59,121.14,121.14,0,0,1-1.23-15.6C320,285.54,299,278.5,289.36,269.21c-16.66-16-42.66,31.33-35.33,75.33s2,173.43-102.93,174.73c5.75.51,12,.79,18.87.75A402.42,402.42,0,0,0,249,512.08c26.59-5.52,40.8-11.88,40.8-11.88.61,0,1.09-1.47,1.45-4.08a10.08,10.08,0,0,0,2.5-7.06c-.14-3.78.56-8.57.09-14q-1.11-12.78-1.86-24.9c-.81-39.84-3.54-92.47-5.31-114.63C285.85,324.84,284.75,296.17,293.05,290.82Z" style="fill:#4a75cb"/></g></g></svg>