<svg xmlns="http://www.w3.org/2000/svg" xmlns:xlink="http://www.w3.org/1999/xlink" viewBox="0 0 130.36 64.38"><defs><style>.cls-1,.cls-4{fill:none;}.cls-2{fill:#dd7a00;}.cls-3{clip-path:url(#clip-path);}.cls-4{stroke:#fff;stroke-linecap:round;stroke-miterlimit:10;}</style><clipPath id="clip-path" transform="translate(59.45)"><circle class="cls-1" cx="31.41" cy="31.41" r="31.41" transform="translate(-9.49 14.09) rotate(-22.05)"/></clipPath></defs><g id="Layer_2" data-name="Layer 2"><g id="OBJECTS"><circle class="cls-2" cx="31.41" cy="31.41" r="31.41" transform="translate(49.95 14.09) rotate(-22.05)"/><g class="cls-3"><path class="cls-4" d="M-58.95,38S44.5,47.84,55.36.77l15,5.69S65.19,41.12,2.6,63.88" transform="translate(59.45)"/><path class="cls-4" d="M1,14.16s16.88,2.52,24.68,15.61" transform="translate(59.45)"/><path class="cls-4" d="M6.25,7.86S25.14,11.14,31.44,27" transform="translate(59.45)"/><path class="cls-4" d="M51.08,36.83s7.81,6,7.31,25.18" transform="translate(59.45)"/><path class="cls-4" d="M47.05,39.85s7.06,8.06,5,23.68" transform="translate(59.45)"/><path class="cls-4" d="M61,14.55S42,43.81.59,54.65" transform="translate(59.45)"/></g></g></g></svg>