<svg xmlns="http://www.w3.org/2000/svg" xmlns:xlink="http://www.w3.org/1999/xlink" viewBox="0 0 278.01 177.95"><defs><style>.cls-1,.cls-6,.cls-8{fill:none;}.cls-2{fill:#b7b7a9;}.cls-3{fill:#212539;}.cls-4{fill:#fff;}.cls-5{fill:#f2b7c3;}.cls-6{stroke:#212539;}.cls-6,.cls-8{stroke-linecap:round;stroke-miterlimit:10;}.cls-7{clip-path:url(#clip-path);}.cls-8{stroke:#fff;}.cls-9{clip-path:url(#clip-path-2);}.cls-10{clip-path:url(#clip-path-3);}</style><clipPath id="clip-path" transform="translate(-0.02)"><circle class="cls-1" cx="105.21" cy="69.25" r="35.1" transform="translate(-15.03 31.72) rotate(-16.02)"/></clipPath><clipPath id="clip-path-2" transform="translate(-0.02)"><path class="cls-1" d="M29.48,1C15.5,11.9-3.32,48,.5,88.59c4.58,48.6,44.24,80,93.15,80,65.57-.09,103.75-39.38,92.33-75.87s-47-49.11-76.19-47.08A26.85,26.85,0,0,1,107,25.22S88.69,26.63,80.25.19L72.43,13.41S59.14,10,35.07,19.63Z"/></clipPath><clipPath id="clip-path-3" transform="translate(-0.02)"><path class="cls-1" d="M152.64,154.89s45.54-22.78,81.54-5.13c43.7,21.42,57.28,9.21,29.1-11.56-21.24-15.66-67.36-23.87-106.45-.57S152.64,154.89,152.64,154.89Z"/></clipPath></defs><g id="Layer_2" data-name="Layer 2"><g id="OBJECTS"><path class="cls-2" d="M29.5.85c-14,10.86-32.8,47-29,87.55,4.58,48.6,44.24,80,93.15,80C159.23,168.29,197.41,129,186,92.51S139,43.4,109.81,45.43A26.8,26.8,0,0,1,107,25S88.7,26.44,80.26,0L72.45,13.22S59.16,9.77,35.08,19.44Z" transform="translate(-0.02)"/><circle class="cls-3" cx="105.4" cy="69.17" r="35.1" transform="translate(-18.06 94.79) rotate(-45)"/><path class="cls-4" d="M55.73,32.74a20.08,20.08,0,0,1-2.79,2.4,27.74,27.74,0,0,1-6.35,3.44,28.14,28.14,0,0,1-13.81,1.6S37.77,21.68,55.73,32.74Z" transform="translate(-0.02)"/><path class="cls-3" d="M52.94,35.14a27.74,27.74,0,0,1-6.35,3.44A23,23,0,0,1,48.93,32,12.08,12.08,0,0,1,52.94,35.14Z" transform="translate(-0.02)"/><path class="cls-4" d="M91.91,22.8a21.78,21.78,0,0,1-10.39,5.72,23,23,0,0,1-5.89.64A24.17,24.17,0,0,1,72.87,29S77,13.62,91.91,22.8Z" transform="translate(-0.02)"/><path class="cls-3" d="M81.52,28.52a23,23,0,0,1-5.89.64,19.49,19.49,0,0,1,1.74-4.44A9.44,9.44,0,0,1,81.52,28.52Z" transform="translate(-0.02)"/><path class="cls-2" d="M66.87,120.74S82.29,121,81,90.55,93.3,61.33,99.78,78.49s16.81,23.22,11.88,33.64-18.45,1.8-15.22,17" transform="translate(-0.02)"/><path class="cls-2" d="M178.61,76.32s-30,9.39-28.9-3.1,2-15.83-17.48-22.13-4.1-11.8,9.5-16.88c5.71-2.13,12-2.81,17.41-1.49,5.81,1.43,10.49,5.17,12,11.93a24.24,24.24,0,0,1,.51,6.51A42.18,42.18,0,0,0,178.61,76.32Z" transform="translate(-0.02)"/><path class="cls-2" d="M110.34,41c-2.17-3.38-1.55-10,2.21-11.4,3.52-1.36,7.61-.22,10.21,1.05,4.69,2.3,6.46,6.16-2.46,9.95C117.79,41.68,111.39,42.66,110.34,41Z" transform="translate(-0.02)"/><path class="cls-2" d="M152.64,154.9s45.54-22.78,81.54-5.13c43.7,21.42,57.28,9.21,29.1-11.56-21.24-15.66-67.36-23.88-106.45-.57S152.64,154.9,152.64,154.9Z" transform="translate(-0.02)"/><path class="cls-5" d="M63.25,36.79s6.06-3.37,9.56-2.88L71.6,41.25S66.15,37.6,63.25,36.79Z" transform="translate(-0.02)"/><path class="cls-6" d="M112.14,102.88s1.44,5.23-2.47,9c-7,6.85-.09,21.54,4.22,24.35" transform="translate(-0.02)"/><path class="cls-6" d="M58.21,119.76S45.29,92.69,80.64,94.34" transform="translate(-0.02)"/><path class="cls-6" d="M135.78,52.38a26.46,26.46,0,0,0,11,0" transform="translate(-0.02)"/><circle class="cls-6" cx="161.81" cy="113.64" r="2.57" transform="translate(12.71 243.53) rotate(-76.14)"/><path class="cls-4" d="M29.69,20.73l-1.28-9.42a57.07,57.07,0,0,0-6.89,12.37Z" transform="translate(-0.02)"/><g class="cls-7"><path class="cls-8" d="M85.88,36.29s23.16,28.65,64,23.6" transform="translate(-0.02)"/><path class="cls-8" d="M81.31,57.4s28.3,21.34,74.27,15.26" transform="translate(-0.02)"/><path class="cls-8" d="M132.69,101S118.81,91.3,112,71" transform="translate(-0.02)"/><path class="cls-8" d="M146.17,98.92S130.92,91.63,121,72.68" transform="translate(-0.02)"/></g><path class="cls-2" d="M47.78,63.68S70.88,45,87.68,52.11C100.8,57.68,70.76,62.7,60.16,79.9S47.78,63.68,47.78,63.68Z" transform="translate(-0.02)"/><path class="cls-6" d="M70.44,69.89S53.09,78.77,43.13,91.77" transform="translate(-0.02)"/><path class="cls-6" d="M77,50.43s-32.37.87-53.18,12.65" transform="translate(-0.02)"/><path class="cls-6" d="M139.87,73.84a186.47,186.47,0,0,0,35.4-3.17" transform="translate(-0.02)"/><g class="cls-9"><path class="cls-4" d="M37.38,161.7s8.34-18.12,31.53-16.51S88.5,177.45,88.5,177.45,52.16,182.31,37.38,161.7Z" transform="translate(-0.02)"/><ellipse class="cls-4" cx="18.05" cy="135.45" rx="15.89" ry="13.93" transform="translate(-118.49 141.46) rotate(-84.93)"/></g><g class="cls-10"><path class="cls-4" d="M232.29,123.36c-.47,5.38-6.55,10.09-13.28,8.63-8.91-1.93-7.64-8.58-3.88-11.84,4.08-3.53-1.25-8.23,5.61-7.62S232.77,118,232.29,123.36Z" transform="translate(-0.02)"/><path class="cls-4" d="M272.88,165.57c-.11,5.39-13.12,4-20,3.37s-12-5.46-11.56-10.83,6.41-9,13.28-8.63C264.85,150,273.05,156.78,272.88,165.57Z" transform="translate(-0.02)"/></g><path class="cls-6" d="M243.17,153.42s15,7.16,28.82,7" transform="translate(-0.02)"/><path class="cls-4" d="M171.17,44.65a8.77,8.77,0,0,1-12-11.93C165,34.15,169.63,37.89,171.17,44.65Z" transform="translate(-0.02)"/><path class="cls-6" d="M158.3,33s10.08,1.93,12.59,12.42" transform="translate(-0.02)"/><path class="cls-6" d="M10.22,122.59s20.44,42.72,79.14,45.86" transform="translate(-0.02)"/><path class="cls-6" d="M212.8,123.25a180.77,180.77,0,0,1,19.59,2.21" transform="translate(-0.02)"/><line class="cls-8" x1="55.35" y1="43.64" x2="18.42" y2="47.78"/><line class="cls-8" x1="38.01" y1="53.06" x2="54.97" y2="47.4"/><line class="cls-8" x1="84.37" y1="33.08" x2="102.83" y2="19.9"/><line class="cls-8" x1="110.37" y1="23.66" x2="94.54" y2="33.08"/><polygon class="cls-4" points="76.56 14.64 78.88 9.73 82.69 15.32 76.56 14.64"/><path class="cls-8" d="M86.31,67.61s-1.16,2.31-.17,7.43" transform="translate(-0.02)"/><path class="cls-8" d="M89.45,66.45s-.66,4.63,1.48,8.09" transform="translate(-0.02)"/><path class="cls-8" d="M123.47,45.31A8.39,8.39,0,0,0,130,42.9" transform="translate(-0.02)"/><line class="cls-8" x1="126.7" y1="48.43" x2="132.59" y2="48.19"/><line class="cls-8" x1="113.05" y1="35.41" x2="110.33" y2="41.02"/><line class="cls-8" x1="116.51" y1="37.06" x2="113.87" y2="41.35"/><line class="cls-8" x1="81.34" y1="53.41" x2="88.94" y2="53.57"/><line class="cls-8" x1="83.98" y1="56.38" x2="89.76" y2="55.55"/><path class="cls-8" d="M133.33,42.42c0,.8,1.18,1.44,2.64,1.44s2.65-.64,2.65-1.44S137.43,41,136,41,133.33,41.62,133.33,42.42Z" transform="translate(-0.02)"/></g></g></svg>