<svg xmlns="http://www.w3.org/2000/svg" xmlns:xlink="http://www.w3.org/1999/xlink" viewBox="0 0 702.45 323.07"><defs><style>.cls-1,.cls-4,.cls-5{fill:none;}.cls-2{fill:#dd7a00;}.cls-3{fill:#212539;}.cls-4{stroke:#fff;}.cls-10,.cls-4,.cls-5{stroke-linecap:round;stroke-miterlimit:10;}.cls-10,.cls-5{stroke:#212539;}.cls-6{fill:#f2b7c3;}.cls-7{clip-path:url(#clip-path);}.cls-10,.cls-8{fill:#b7b7a9;}.cls-9{fill:#fff;}.cls-11{clip-path:url(#clip-path-2);}.cls-12{clip-path:url(#clip-path-3);}</style><clipPath id="clip-path"><path class="cls-1" d="M505.85,115.91s-53.42,7.82-86.65,49.52c0,0,9.77,15,28.67,32.57,49.94,46.5,168.74,74.92,241.7-26.06C689.57,171.94,637.45,93.11,505.85,115.91Z"/></clipPath><clipPath id="clip-path-2"><ellipse class="cls-1" cx="188.72" cy="255.81" rx="128.13" ry="27.47"/></clipPath><clipPath id="clip-path-3"><polygon class="cls-1" points="19.64 131.46 30.44 207.73 74.44 207.73 86.79 130.69 19.64 131.46"/></clipPath></defs><g id="Layer_2" data-name="Layer 2"><g id="OBJECTS"><rect class="cls-2" x="291.21" y="149.63" width="72.03" height="60.4"/><path class="cls-3" d="M306.51,149.66s12.37-35.94,49.08-32.69c40.1,3.55,29.55,39.91,24.57,51.35-.71,1.65-4-.45-4.19.91-1.6,9.79.7,13.21,3.22,15.1,1.83,1.37-1.34,20.52-3.61,18.87-3.42-2.48-.6-7.64-8.85-15.68-6.3-6.14-19.16,4.69-19.66-20.44V149.66Z"/><path class="cls-3" d="M383.93,156.65s-2.43,10,5.92,11.34a2.18,2.18,0,0,1,1.57,1.11c1.46,2.66,5.13,10.23,3.7,16.85,0,0-2.73,1-6.81-5.3-4.2-6.45-13.09-1.35-14.82-9S383.93,156.65,383.93,156.65Z"/><rect class="cls-2" x="274.81" y="149.63" width="72.03" height="60.4"/><path class="cls-2" d="M257.12,168.55l17.69-18.92h72l-18.28,19.15S257.59,168.07,257.12,168.55Z"/><path class="cls-4" d="M385,186.11s-12.82-.47-8.65-15.83c3.09-11.38,7.8-11.68,8.94-24.88"/><polyline class="cls-4" points="274.47 168.66 332.52 168.66 346.85 149.63"/><line class="cls-4" x1="346.85" y1="210.03" x2="346.85" y2="170.57"/><path class="cls-4" d="M365,123.79a47.43,47.43,0,0,1,9,5.42"/><path class="cls-4" d="M352.48,120.11a44.65,44.65,0,0,1,9.67,2.49"/><path class="cls-4" d="M345,119.78a30.51,30.51,0,0,1,5.4.08"/><path class="cls-4" d="M359.88,124a29.68,29.68,0,0,1,5,1.94"/><path class="cls-4" d="M349.92,122a31,31,0,0,1,5.3,1"/><rect class="cls-5" x="281.94" y="199.5" width="12.66" height="4.98"/><path class="cls-5" d="M300,202.09a2.46,2.46,0,1,0,2.46-2.46A2.46,2.46,0,0,0,300,202.09Z"/><line class="cls-5" x1="0.5" y1="209.33" x2="701.18" y2="209.33"/><path class="cls-6" d="M505.85,116.14S452.43,124,419.2,165.65c0,0,9.77,15,28.67,32.57,49.94,46.5,168.74,74.93,241.7-26.06C689.57,172.16,637.45,93.33,505.85,116.14Z"/><g class="cls-7"><path class="cls-4" d="M456.57,221.57c1.9-.64,29.72-32.25,56.92-14.55s21.5,53.12,44.89,51.86,70.2-8.86,56.29-27.83-113.83-53.12-68.3-108.77,86-16.44,85.37,19,7.59,72.1,56.91,53.12-46.16,157.47-162.52,124S377.5,145,406.91,155.18c34.92,12.06,107.21,13.9,93.3-19.62s-74-20.87-79-16.44"/></g><path class="cls-5" d="M419.2,165.65s110.59,50.61,270.37,6.51"/><path class="cls-8" d="M563.91,141.46h-1.18c-2.77,0-5.58,0-8.43-.16h-.24a159.13,159.13,0,0,1-23.27-2.78h0c-3.82-.75-7.69-1.65-11.58-2.74-1.51-.42-3-.86-4.55-1.34l-.06,0c-.62-.19-1.24-.38-1.85-.59-.82-.26-1.64-.54-2.46-.82s-1.41-.49-2.11-.75-1.15-.41-1.73-.63l-.19-.07-1.12-.43-1.57-.61-2.07-.84a156.41,156.41,0,0,1-14.41-6.84h0q-3.27-1.77-6.55-3.72a73,73,0,0,1-.12-7.85c.54-15.88,5.93-50.64,42.53-54.65,47.61-5.2,50.59,26.78,76.63,35s38.69,11.91,47.62,28.27C647.18,119.87,611.71,140.77,563.91,141.46Z"/><path class="cls-8" d="M648.72,170l-17-8.69s-10.61,9.51-32.63,7.06h0c-.13.38-5.43,16.1-5.88,16.88,0,0-19-8.91-26.66-27.68a43.72,43.72,0,0,1-2.13-25.91C572,95.16,634.89,95,647.18,119.87a57.13,57.13,0,0,1,5.43,18.41A68.16,68.16,0,0,1,648.72,170Z"/><path class="cls-8" d="M495,93.8a254.94,254.94,0,0,1-23.1-14.52C460,70.73,447.5,73,450.17,82.05s26.31,28.72,45.52,25S495,93.8,495,93.8Z"/><path class="cls-8" d="M520.77,77.7S531.45,62.22,532,45.14,553.86,43,543.72,66,520.77,77.7,520.77,77.7Z"/><path class="cls-8" d="M606.41,98.65s8.88-23.23-4.47-31.77-18.24.25-12.64,9c3.67,5.71,7.51,5.72,0,18.53S606.41,98.65,606.41,98.65Z"/><path class="cls-9" d="M589.5,125.88c0,6.27,14.26,18.61,23.28,18.61s9.36-12.34,9.36-18.61S619,112.61,610,112.61,589.5,119.6,589.5,125.88Z"/><path class="cls-9" d="M566.89,80.64c0,10.47-12.89,19-28.79,19s-28.79-8.5-28.79-19,8.94-21.16,26.77-20.31C552,61.09,566.89,70.16,566.89,80.64Z"/><path class="cls-3" d="M608.54,134.79a6.38,6.38,0,0,1,2.69-2.39,8.86,8.86,0,0,1,4.3-.62l-.61,7.11Z"/><path class="cls-8" d="M542.55,102.18c-.08-.51-.62-4-.72-4.57-3.56-18,5.82-20.53,12.11-15.67,3.13,2.42,6.41,7.93,8.15,12"/><path class="cls-5" d="M585.83,117.32S591,105.67,607.59,106"/><path class="cls-5" d="M610.24,127.74s2.91,4.27,2.61,7.09"/><path class="cls-10" d="M561.36,92.59a30.69,30.69,0,0,1,2.55,9.53"/><path class="cls-10" d="M533.75,114s11,1.56,8.36-14.81"/><path class="cls-10" d="M530.11,56.2a46.31,46.31,0,0,1,16.24,1.27"/><path class="cls-5" d="M625.44,114.66s12.6-8.28,25.5-16.52"/><path class="cls-10" d="M628.67,117.53s25.87-6.1,26.22-6.1"/><path class="cls-10" d="M625.1,110.73s17.58-20.14,18.3-20.86"/><line class="cls-5" x1="579.79" y1="136.71" x2="540.14" y2="154.42"/><line class="cls-5" x1="575.74" y1="143.19" x2="553.06" y2="161.9"/><path class="cls-5" d="M603,132.72s-1.79-3.52,1.38-5.43c2.77-1.66,5.88.64,5.88.64s-1.05-4.15,3.2-4.28a3.72,3.72,0,0,1,3.48,2.44"/><path class="cls-5" d="M484.55,87.33s2.84,2.48,12.06,2.12"/><path class="cls-5" d="M480.9,105.72a16.38,16.38,0,0,1,8.26,5.43"/><path class="cls-5" d="M545.11,80.29a25.79,25.79,0,0,1,2.75,6.19"/><path class="cls-5" d="M548.45,79.5a23.15,23.15,0,0,1,3.44,5.21"/><path class="cls-5" d="M587.37,66.52a8.79,8.79,0,0,1,5.09,3.4"/><path class="cls-5" d="M590.77,63.35a9.23,9.23,0,0,1,5.43,3.85"/><path class="cls-5" d="M449.92,78.42s4.48,4.24,7.27,5.21"/><path class="cls-5" d="M452.35,74.91a47,47,0,0,1,8.23,4.36"/><path class="cls-5" d="M535.27,37.66a15.06,15.06,0,0,1,2.56,5.49"/><path class="cls-5" d="M538.42,38a19,19,0,0,1,2.68,5.37"/><path class="cls-9" d="M563.22,141.47c-2.14,0-4.83,0-8.92-.16h-.24a159.13,159.13,0,0,1-23.27-2.78h0c-3.82-.75-7.69-1.65-11.58-2.74-1.51-.42-3-.86-4.55-1.34l-.06,0c-.62-.19-1.24-.38-1.85-.59-.82-.26-1.64-.54-2.46-.82s-1.41-.49-2.11-.75-1.15-.41-1.73-.63l-.19-.07-1.12-.43-1.57-.61-2.07-.84a10.27,10.27,0,0,1,9.29-2.71,12.68,12.68,0,0,1,4,1.29,29.56,29.56,0,0,0,19,3.5,74,74,0,0,0,11-2.91C560.14,121.24,565.19,133.16,563.22,141.47Z"/><line class="cls-5" x1="574.19" y1="135.65" x2="538.01" y2="144.08"/><path class="cls-9" d="M581.07,169.44l8.93,8.22,2.82-10.57S586.24,166.86,581.07,169.44Z"/><path class="cls-9" d="M636.51,157.23l9.39,6.1,1.65-12.68S639.32,153,636.51,157.23Z"/><path class="cls-5" d="M586.7,173.41c0-.18.06-4.47.7-4.82s2.41,2.94,3,3.76"/><path class="cls-5" d="M642.66,160c0-.19-1.52-6-.76-5.95s4.18,3.61,4.18,3.61"/><path class="cls-9" d="M583.63,149.75s6.82-15.46,21.58-3.48C605.21,146.27,592.4,158.94,583.63,149.75Z"/><path class="cls-9" d="M624.4,137.86s-1.13-14.62,17.42-10.46C641.82,127.4,640.16,142.34,624.4,137.86Z"/><path class="cls-9" d="M631.73,161.35s-9.83,12.11-32.65,7.07a12.85,12.85,0,0,1,7-8.13c.85-.4,2.16.47,2.46,1.35a2.35,2.35,0,0,0,1.51,1.62c1.32.4,2.09-1.44,2.53-3.52a4.27,4.27,0,0,1,3.25-3.34l.07,0a4.36,4.36,0,0,1,4.93,3c.52,1.54,1.25,2.65,2.22,2.22a3.17,3.17,0,0,0,1.37-2.55c.17-1.06,1.23-1.22,2.18-.73C628.3,159.12,630,160.37,631.73,161.35Z"/><path class="cls-3" d="M405.38,229.9a1.66,1.66,0,0,1-.88-3.07c5.64-3.44,14.65-10.37,24.9-23.68,16.58-21.53,39.67-2.35,48.91,26.75Z"/><path class="cls-5" d="M468,229.32s21.45-1,28.74,5-22.44,3.08-22.44,12.59c0,9,37.11,10.13,37.11,10.13"/><path class="cls-3" d="M413.11,223.35s-5.2-18.84,9.09-21.44,15.37,14.51,12.34,20.57S413.11,223.35,413.11,223.35Z"/><path class="cls-4" d="M429.12,202c7,3.58,13,16,3.13,22.74"/><polyline class="cls-4" points="422.65 211.08 419.82 220.88 430 219.37"/><ellipse class="cls-6" cx="188.72" cy="255.81" rx="128.13" ry="27.47"/><g class="cls-11"><path class="cls-4" d="M56.58,276.47c2.31-.34,63.76-27.31,53.77-44.84s86.8-24.94,83-15.5S115.73,262,128.79,291s89.87,18.88,83,12.14-26.88-67.42,64.53-76.18-37.64,26.63-12.29,62"/></g><path class="cls-5" d="M32.51,135.14s2-23.71-22.13-29.64"/><path class="cls-5" d="M37.15,138.71S50.86,120.42,32.58,106s6.09-30.48-3-50.29S17.2,2.73,30.76.7C48.33-1.94,60.77,22.14,57,45s-2.29,19,4.57,33.52-9.9,23.62-4.57,35.81,1.52,27.42-.76,29.71"/><path class="cls-5" d="M72,137.14s-1.09-9.39,7.58-17-2.16-21.4,6-33.13c7.21-10.38,19.65-19.6,12.79-29A14.66,14.66,0,0,0,72.7,61.66C67,76.2,60.69,71.12,60.36,76.55"/><path class="cls-5" d="M36.74,18.46s7,9.73,5.06,28.41,8.56,28.41,7.4,38.53S44.53,103.69,48,114.2a45.47,45.47,0,0,1,1.55,20.63"/><path class="cls-5" d="M87.32,64.11S74.13,67.27,74.41,83.62,68.68,100,67.24,112a179.07,179.07,0,0,0-1.14,23"/><polygon class="cls-2" points="19.64 131.4 30.44 207.67 74.44 207.67 86.79 130.63 19.64 131.4"/><g class="cls-12"><line class="cls-4" x1="17.89" y1="139.61" x2="94.12" y2="140.36"/></g><rect class="cls-3" x="23.31" y="200.51" width="61.31" height="8.47"/><ellipse class="cls-4" cx="52.07" cy="167.71" rx="8.56" ry="15.27"/></g></g></svg>