<svg xmlns="http://www.w3.org/2000/svg" viewBox="0 0 67.11 67.11"><defs><style>.cls-1{isolation:isolate;}.cls-2,.cls-3,.cls-4{fill:#f93;}.cls-3{opacity:0.3;}.cls-3,.cls-4{mix-blend-mode:multiply;}.cls-4{opacity:0.5;}.cls-5{fill:#ca5310;}</style></defs><g class="cls-1"><g id="Layer_2" data-name="Layer 2"><g id="BACKGROUND"><circle class="cls-2" cx="33.56" cy="33.56" r="33.56" transform="translate(-11.7 19.29) rotate(-27.5)"/><path class="cls-3" d="M39.76,50c15.57-7.48,23.53-17.12,26.86-22.12a33.55,33.55,0,0,0-8.85-17.51C56,13.93,50.6,21.42,34.19,29.78S5.61,34.06.1,31.08C0,31.9,0,32.72,0,33.56a33.36,33.36,0,0,0,4.65,17C10.5,53.43,23.63,57.72,39.76,50Z"/><path class="cls-4" d="M3,19.6A33.7,33.7,0,0,1,14.6,5.87,71.3,71.3,0,0,0,24.33,19l-.42,14.54a34.39,34.39,0,0,1-7.84,1.18A90,90,0,0,1,3,19.6Zm44.18,34a81,81,0,0,0,10.87,2.87A33.53,33.53,0,0,0,65.77,43a90.7,90.7,0,0,1-10-3.22,71.78,71.78,0,0,1-9.45,6.71Z"/><path class="cls-5" d="M.16,30.32c0,.25,0,.5-.06.75C8.72,37.61,21.57,36,31.18,32.28c10.56-4.1,21-11.39,27.41-21.06-.39-.44-.79-.87-1.21-1.29A63.8,63.8,0,0,1,37.44,27.62C26.28,33.79,11.49,37.51.16,30.32Z"/><path class="cls-5" d="M42.18,49.6A61.77,61.77,0,0,0,66.7,28.32c-.16-1-.36-2-.61-3C61.46,32.84,56,39.37,48,44.63c-12,7.94-30.48,13.13-43.73,5.25.26.47.53.92.81,1.37C15.82,57.78,31.54,54.71,42.18,49.6Z"/><path class="cls-5" d="M39.4,40.49A61.8,61.8,0,0,0,63.91,19.24c-.35-.74-.73-1.47-1.13-2.18a58.75,58.75,0,0,1-17.6,18.47C32.91,43.62,14,48.86.68,40.29c.06.32.14.64.22,1C11.67,48.94,28.29,45.83,39.4,40.49Z"/><path class="cls-5" d="M37.4,51.61c-.42.15-.84.31-1.27.45q.57,2.47,1.24,4.91a58.29,58.29,0,0,0,3.57,9.32l.65-.15A59.27,59.27,0,0,1,38.85,58C38.32,55.9,37.84,53.76,37.4,51.61Z"/><path class="cls-5" d="M46.7,47.17l-1.34.77c.6,3,1.32,6.05,2.13,9A49.7,49.7,0,0,0,49.62,63c.25-.13.49-.28.74-.43-.52-1.49-1-3-1.39-4.58C48.09,54.46,47.32,50.83,46.7,47.17Z"/><path class="cls-5" d="M27.84,54.21l-1.27.22c.22.85.44,1.7.67,2.54a59.68,59.68,0,0,0,3.91,10l.7,0A61.65,61.65,0,0,1,28.72,58C28.41,56.76,28.12,55.49,27.84,54.21Z"/><path class="cls-5" d="M24.9,32.76C24.43,21.36,26,10.41,30.63.13,29.8.21,29,.31,28.15.44c-4.61,10.11-5.65,21.72-5,32.76C23.75,33.07,24.32,32.92,24.9,32.76Z"/><path class="cls-5" d="M35,28.92A68.85,68.85,0,0,1,40.5.72C39.78.57,39.06.45,38.32.34c-4.17,9.1-5.44,19.41-5.17,29.44C33.76,29.5,34.35,29.21,35,28.92Z"/><path class="cls-5" d="M45.33,22.35a67.17,67.17,0,0,1,4-18.42c-.64-.35-1.3-.67-2-1a64.58,64.58,0,0,0-4,20.93C44,23.39,44.66,22.87,45.33,22.35Z"/><path class="cls-5" d="M14.52,34.24c.53,0,1.07,0,1.61,0-1.25-1.14-2.49-2.31-3.72-3.49A65.69,65.69,0,0,1,3.3,19c-.19.41-.38.82-.56,1.24A86.77,86.77,0,0,0,14.52,34.24Z"/><path class="cls-5" d="M48.29,55a82,82,0,0,0,8.76,2.46c.36-.35.7-.7,1-1.06a96.85,96.85,0,0,1-10.17-3C48,54,48.17,54.5,48.29,55Z"/><path class="cls-5" d="M48,46.34A83.05,83.05,0,0,0,62.21,51c.23-.38.45-.77.67-1.16a98.05,98.05,0,0,1-13.42-4.43Z"/><path class="cls-5" d="M55.64,40.76a84.54,84.54,0,0,0,9.78,3.3c.14-.43.27-.85.4-1.28-3.06-.87-6-1.89-9-3.06C56.43,40.07,56,40.42,55.64,40.76Z"/><path class="cls-5" d="M23.57,17.41A71,71,0,0,1,14.72,5.78l-.93.67a85.73,85.73,0,0,0,9.63,12.23C23.46,18.26,23.52,17.84,23.57,17.41Z"/><path class="cls-5" d="M23.05,30.37c0-.54,0-1.07,0-1.61-1.59-1.42-3.14-2.87-4.68-4.35-4.11-4-7-8.42-10-13l-.78.91A87.82,87.82,0,0,0,23.05,30.37Z"/></g></g></g></svg>