<?xml version="1.0" encoding="utf-8"?>

<!-- Generator: Adobe Illustrator 25.2.3, SVG Export Plug-In . SVG Version: 6.00 Build 0)  -->
<svg version="1.1" id="Objects" xmlns="http://www.w3.org/2000/svg" xmlns:xlink="http://www.w3.org/1999/xlink" x="0px" y="0px"
	 viewBox="0 0 800 800" style="enable-background:new 0 0 800 800;" xml:space="preserve">

	 <style>
	   #heart,#lowerHand,#upperHand { fill : rgb(95 158 160/100%);}   
     </style>
<g>
	<g>
		<g id="heart">
			<path d="M406.2,549L393,531.5c-49-57.9-81-96.9-81-144.7c0-38.9,22.6-69.2,51.8-69.2c16.1,0,32.1,10.1,42.4,26.4
				c10.3-16.3,26.3-26.4,42.4-26.4c29.1,0,51.8,30.2,51.8,69.2c0,47.8-32,86.9-81,144.7L406.2,549z M406.2,549"/>
		</g>
		<g id="lowerHand">
			<path d="M615.4,539.4c-5.6,8-12.2,14.9-18.3,22.2c-7.3,8.8-14.9,17.3-22.5,25.6c-14.1,15.5-28.5,30.6-42.7,46
				c-2.8-9.4-8.8-17.4-15.1-22.8c-9.5-8.3-21-12.6-32.6-14.8c7.1-12.2,19.1-17.2,29.4-23.3c12-7,21.6-18,31.9-28.6
				c10.2-10.4,21.2-19.8,34.3-21C592.3,521.5,607.4,526.2,615.4,539.4z"/>
			<path d="M600.2,506.5c-1,4-3.2,7.6-5,11c-3.5-0.9-7-1.4-10.4-1.7c-14.5-1.1-27.5,8.1-38.8,19.1c-11.4,11.1-21.5,23.7-34.6,31.3
				c-12.1,7.1-25.1,13-32.8,28.2c0,0,0,0.1-0.1,0.1c-3.8-0.5-7.6-0.9-11.2-1.1c-1.3-0.1-2.5-0.1-3.8-0.2
				c8.6-12.3,19.3-21.4,30.1-30.2c11.9-9.7,23.2-19.8,34.1-31.3c10.9-11.6,22-23.7,35.3-30.2C574.8,495.9,590.7,494,600.2,506.5z"/>
			<path d="M556.7,497.5c-10.2,6-19.3,15.4-27.9,24.3c-5.7,6-11.2,12-17.1,17.7c-6.2,5.9-12.7,11.1-19.2,16.4
				c-13,10.6-26.1,21.6-35.8,37.3c-9.5,0.1-19,0.9-28.5,1.9c8.4-11.1,18.4-20.1,28-29.4c11.1-10.6,21-22.4,31-34.7
				c9.7-12,20.1-23.6,32.6-30C531.2,495.2,544.6,494,556.7,497.5z"/>
			<path d="M397.4,671.1c-0.6-0.1-1.2-0.2-1.5-0.3c-3.4-0.4-6.8-0.8-10.2-1l-8.5-0.5c-0.1-0.1-1.2,0.1-1.3,0
				c-4.6-0.1-9.2-0.1-13.8,0.1l-4.9,0.3c-4.3,0.4-8.5,0.9-12.7,1.7c-19.1,3.6-37.3,11.3-54.7,22.5c-3,1.9-5.6-3.9-2.6-5.9
				c19.3-12.5,39.6-21,61-24.1c16.3-2.4,32.7-1.9,49,0.1c0.3,0,0.6,0.1,0.9,0.1c2.4,0.3,4.8,0.6,7.2,1c16,2.5,31.9,6.4,47.9,8.3
				c16.2,1.9,33.2,2.4,48.8-4.7c12.1-5.5,29.9-13.2,26-33.6c-3.8-19.7-20.3-23.8-33.8-28.9c-18-6.7-36.9-7.1-55.6-6.5
				c-18.5,0.7-37-3.8-55.5-4.4c-17.4-0.6-35.1-9.7-50.4-21.3c-0.2-0.1-0.4-0.2-0.6-0.4c-0.1-0.1-0.2-0.2-0.3-0.2c0,0-0.1,0-0.1-0.1
				c-0.1,0-0.1-0.1-0.2-0.2c-25.2-22.9-52.4-52.5-84.4-53.8c-16.9-0.7-33.2,5.3-49.5,9.7c-8,2.2-16.3,4.3-24.6,4.6
				c-8.2,0.2-16.3,0-24.5,0c-19.1-0.1-38,1.2-56,10.3c-17.2,8.7-33.6,20-48.6,33.9c-15.1,14-28,30.8-41.3,47.5
				c-0.8,1.1-1.7,2.1-2.6,3.2l69.7,137.1c4.2-4,8.5-7.7,13-10.9c16.3-11.8,33.9-17.3,52.5-16.9c18.9,0.4,37.8,4.8,56.2,10.3
				c20.5,6.2,40.8,13.6,61.2,20.7c20.3,7,40.6,13.8,61.3,18.4c20,4.4,41.4,7,61.4,1.1c0.2-0.1,0.4-0.1,0.6-0.1
				c19-15,34.7-35.5,50.3-55.9c7.8-10.2,15.6-20.4,23.8-29.9c6.3-7.3,12.9-15,20.1-21c-19.9,0-40.1-5.4-59.8-8.8L397.4,671.1z"/>
			<path d="M429.7,581.5c0.1,0,0.3,0,0.4,0V581C430,581.2,429.8,581.4,429.7,581.5z"/>
		</g>
		<g id="upperHand">
			<path d="M184.6,264.6c5.6-8,12.2-14.9,18.3-22.2c7.3-8.8,14.9-17.3,22.5-25.6c14.1-15.5,28.5-30.6,42.7-46
				c2.8,9.4,8.8,17.4,15.1,22.8c9.5,8.3,21,12.6,32.6,14.8c-7.1,12.2-19.1,17.2-29.4,23.3c-12,7-21.6,18-31.9,28.6
				c-10.2,10.4-21.2,19.8-34.3,21C207.7,282.5,192.6,277.8,184.6,264.6z"/>
			<path d="M199.8,297.5c1-4,3.2-7.6,5-11c3.5,0.9,7,1.4,10.4,1.7c14.5,1.1,27.5-8.1,38.8-19.1c11.4-11.1,21.5-23.7,34.6-31.3
				c12.1-7.1,25.1-13,32.8-28.2c0,0,0-0.1,0.1-0.1c3.8,0.5,7.6,0.9,11.2,1.1c1.3,0.1,2.5,0.1,3.8,0.2c-8.6,12.3-19.3,21.4-30.1,30.2
				c-11.9,9.7-23.2,19.8-34.1,31.3c-10.9,11.6-22,23.7-35.3,30.2C225.2,308.1,209.3,310,199.8,297.5z"/>
			<path d="M243.3,306.5c10.2-6,19.3-15.4,27.9-24.3c5.7-6,11.2-12,17.1-17.7c6.2-5.9,12.7-11.1,19.2-16.4
				c13-10.6,26.1-21.6,35.8-37.3c9.5-0.1,19-0.9,28.5-1.9c-8.4,11.1-18.4,20.1-28,29.4c-11.1,10.6-21,22.4-31,34.7
				c-9.7,12-20.1,23.6-32.6,30C268.8,308.8,255.4,310,243.3,306.5z"/>
			<path d="M402.6,132.9c0.6,0.1,1.2,0.2,1.5,0.3c3.4,0.4,6.8,0.8,10.2,1l8.5,0.5c0.1,0.1,1.2-0.1,1.3,0c4.6,0.1,9.2,0.1,13.8-0.1
				l4.9-0.3c4.3-0.4,8.5-0.9,12.7-1.7c19.1-3.6,37.3-11.3,54.7-22.5c3-1.9,5.6,3.9,2.6,5.9c-19.3,12.5-39.6,21-61,24.1
				c-16.3,2.4-32.7,1.9-49-0.1c-0.3,0-0.6-0.1-0.9-0.1c-2.4-0.3-4.8-0.6-7.2-1c-16-2.5-31.9-6.4-47.9-8.3
				c-16.2-1.9-33.2-2.4-48.8,4.7c-12.1,5.5-29.9,13.2-26,33.6c3.8,19.7,20.3,23.8,33.8,28.9c18,6.7,36.9,7.1,55.6,6.5
				c18.5-0.7,37,3.8,55.5,4.4c17.4,0.6,35.1,9.7,50.4,21.3c0.2,0.1,0.4,0.2,0.6,0.4c0.1,0.1,0.2,0.2,0.3,0.2c0,0,0.1,0,0.1,0.1
				c0.1,0,0.1,0.1,0.2,0.2c25.2,22.9,52.4,52.5,84.4,53.8c16.9,0.7,33.2-5.3,49.5-9.7c8-2.2,16.3-4.3,24.6-4.6
				c8.2-0.2,16.3,0,24.5,0c19.1,0.1,38-1.2,56-10.3c17.2-8.7,33.6-20,48.6-33.9c15.1-14,28-30.8,41.3-47.5c0.8-1.1,1.7-2.1,2.6-3.2
				L730.3,38.1c-4.2,4-8.5,7.7-13,10.9C701,60.8,683.4,66.3,664.8,66c-18.9-0.4-37.8-4.8-56.2-10.3C588.1,49.5,567.8,42,547.5,35
				c-20.3-7-40.6-13.8-61.3-18.4c-20-4.4-41.4-7-61.4-1.1c-0.2,0.1-0.4,0.1-0.6,0.1c-19,15-34.7,35.5-50.3,55.9
				c-7.8,10.2-15.6,20.4-23.8,29.9c-6.3,7.3-12.9,15-20.1,21c19.9,0,40.1,5.4,59.8,8.8L402.6,132.9z"/>
			<path d="M370.3,222.5c-0.1,0-0.3,0-0.4,0v0.5C370,222.8,370.2,222.6,370.3,222.5z"/>
		</g>
	</g>
</g>
</svg>
