<svg xmlns="http://www.w3.org/2000/svg" viewBox="0 0 50.35 40.88"><g id="Layer_2" data-name="Layer 2"><g id="OBJECTS"><path d="M17.24,3.12c3.07-.22,5.81-2,8.84-2.54s7,1.42,6.55,4.47a4.65,4.65,0,0,1-3.28,3.43,22.15,22.15,0,0,1-5,.72,23.79,23.79,0,0,0-12.32,5.05c-1.08.87-2.18,2.05-2,3.44.22,2.14,3,2.82,5.14,2.87A89,89,0,0,0,38.85,18c2-.49,4.24-1.32,4.85-3.27a4.16,4.16,0,0,0-1.87-4.44,10.67,10.67,0,0,0-4.9-1.48A53,53,0,0,0,6.65,14.45c-1.79.93-3.73,2.27-3.9,4.28C2.54,21.35,5.36,23.08,7.82,24a52.67,52.67,0,0,0,33.65.63c2.79-.89,6-2.75,5.83-5.68-.13-2.2-2.2-3.74-4.14-4.79A40.63,40.63,0,0,0,20.67,9.39,14.12,14.12,0,0,0,14,11.25a6.21,6.21,0,0,0-3,5.87c.49,3.12,3.83,4.89,6.88,5.72a32.91,32.91,0,0,0,22.54-2c1.59-.75,3.31-1.95,3.36-3.71.06-2.36-2.82-3.55-5.16-3.83a33.23,33.23,0,0,0-18.81,3.3c-3.05,1.53-6.18,4.17-5.95,7.57s3.75,5.62,7,6.56a25.32,25.32,0,0,0,15.63-.65c4-1.5,8.06-5.28,6.78-9.33-.88-2.8-3.92-4.26-6.72-5.13a45.58,45.58,0,0,0-22.13-1.11c-5.16,1-10.91,3.88-11.64,9.09-.77,5.48,4.58,9.93,9.82,11.72a31.64,31.64,0,0,0,22.87-1c5.44-2.42,10.61-7.43,10-13.35S39.33,11.25,33.82,9.36a43,43,0,0,0-17-2.22c-3.34.24-7.56,2-7.19,5.31.26,2.42,2.91,3.77,5.27,4.35a27.07,27.07,0,0,0,18.47-2.09c3.07-1.54,6.18-4.63,5.15-7.9C37.7,4.18,34.65,3,31.94,2.49a44.57,44.57,0,0,0-12.68-.66c-3.14.28-6.77,1.3-7.9,4.25a6,6,0,0,0,1.46,6,11.88,11.88,0,0,0,5.67,3.12,24.36,24.36,0,0,0,17-1.52c1.57-.76,3.24-2,3.34-3.71.14-2.55-3-3.9-5.5-4.17a28.28,28.28,0,0,0-18,4.27c-2.48,1.59-4.94,4.28-4.13,7.11.63,2.21,3,3.42,5.17,4.07a26.37,26.37,0,0,0,20.82-2.61,28.66,28.66,0,0,0-20.52-.78c-3.88,1.34-7.9,4.23-8,8.34-.14,3.88,3.25,7,6.7,8.75a30.06,30.06,0,0,0,25.22,1c4.71-2,9.28-6,9.24-11.13,0-4.8-4.09-8.61-8.28-11A37.66,37.66,0,0,0,15,10.09C9.29,11.41,3.5,14.53,1.34,20-.75,25.19,1.25,31.51,5.4,35.33s10.06,5.34,15.69,5,11-2.35,16.1-4.84c4.29-2.11,9-5.54,8.7-10.3-.15-3.06-2.48-5.69-5.26-6.95a17.9,17.9,0,0,0-9-1.07,22.36,22.36,0,0,0-10.28,3.13,11.74,11.74,0,0,0-5.57,8.87c-.19,3.61,2.16,7.4,5.68,8.23,2.27.53,4.63-.13,7-.13" style="fill:none;stroke:#7489ed;stroke-linecap:round;stroke-linejoin:round"/></g></g></svg>