<svg xmlns="http://www.w3.org/2000/svg" xmlns:xlink="http://www.w3.org/1999/xlink" viewBox="0 0 59.45 68.91"><defs><linearGradient id="linear-gradient" x1="38.94" y1="61.1" x2="39.03" y2="45.52" gradientUnits="userSpaceOnUse"><stop offset="0" stop-color="#feb6aa" stop-opacity="0"/><stop offset="1" stop-color="#fe9187"/></linearGradient><linearGradient id="linear-gradient-2" x1="1424.38" y1="36.9" x2="1428" y2="32.13" gradientTransform="matrix(-1, 0, 0, 1, 1479.14, 0)" xlink:href="#linear-gradient"/><linearGradient id="linear-gradient-3" x1="35.51" y1="47.05" x2="52.48" y2="30.46" gradientUnits="userSpaceOnUse"><stop offset="0" stop-color="#feb6aa" stop-opacity="0"/><stop offset="1" stop-color="#fe9187" stop-opacity="0.5"/></linearGradient><linearGradient id="linear-gradient-4" x1="51" y1="45.77" x2="55.38" y2="45.77" xlink:href="#linear-gradient"/><linearGradient id="linear-gradient-5" x1="51.08" y1="42.52" x2="56.56" y2="42.52" xlink:href="#linear-gradient"/></defs><g style="isolation:isolate"><g id="Layer_2" data-name="Layer 2"><g id="OBJECTS"><path d="M54.69,27.15a3.49,3.49,0,0,1-.57,1.25.92.92,0,0,1-1.06.35,1.92,1.92,0,0,1-.66-.83,25.13,25.13,0,0,1-3.1-7.74c-.31-1.91.06-8.77,2.8-7.37,2.15,1.1,3.09,6.26,3.22,8.8A16.87,16.87,0,0,1,54.69,27.15Z" style="fill:#fe9187"/><path d="M45.11,52.26a8.33,8.33,0,0,0-.23,1h0c-.33,1.57-.88,4.68-1.21,7.7a25.57,25.57,0,0,0-.16,6.43c.48,2.58-12.29,1.6-15-.56-3-2.35-3.65-2.82-3.65-2.82l3.6-20.74.52-3Z" style="fill:#feb6aa"/><path d="M44.88,53.23h0c-.33,1.57-.88,4.68-1.21,7.7-4.34-1.62-7.78-7.89-9.45-11.5-.7-1.53-1.09-2.58-1.09-2.58,2.14,2.8,11.16,6.15,11.72,6.36Z" style="opacity:0.46;mix-blend-mode:multiply;fill:url(#linear-gradient)"/><path d="M59.14,38.94c-.49.81-1.51,1.17-2,2a4.69,4.69,0,0,0-.53.89,3.57,3.57,0,0,0-.16.54c0,.18,0,.47-.19.61a.67.67,0,0,1-.28.06l-.63,0-1.85.1-1.11.07-.69.06-.35,0c-.07,0-.16,0-.19.07l0,0c0,.18.33.43.44.53s.31.29.48.43a11.43,11.43,0,0,0,1,.78,18.32,18.32,0,0,0,2.07,1.17.48.48,0,0,1,.27.53c-.08.39-.16.78-.25,1.17-.14.63-.28,1.25-.43,1.87-.47,1.94-.9,3.55-3.14,3.82a21.08,21.08,0,0,1-6.08-.36l-.59-.11a28.42,28.42,0,0,1-10.33-3.57,19.31,19.31,0,0,1-6.14-6.41,21.48,21.48,0,0,1-1.83-3.88,27.68,27.68,0,0,1-1.25-11.19,18.7,18.7,0,0,1,2.84-8.92,15.65,15.65,0,0,1,14.9-6.73,14.36,14.36,0,0,1,6,2.36,11.21,11.21,0,0,1,3.29,3.53,15.1,15.1,0,0,1,1.77,7.11,14.59,14.59,0,0,0,.48,4.72c.66,1.81,2.17,3.15,3.43,4.6C59.06,36,59.94,37.65,59.14,38.94Z" style="fill:#feb6aa"/><path d="M49.8,32.69a1.2,1.2,0,1,0,1-1.35A1.2,1.2,0,0,0,49.8,32.69Z" style="fill:#071a42"/><path d="M53.36,33.29l-1.31,1.82S53.67,36.49,53.36,33.29Z" style="opacity:0.46;mix-blend-mode:multiply;fill:url(#linear-gradient-2)"/><path d="M45.67,30.1a3.13,3.13,0,0,1,.92-1.8,4.38,4.38,0,0,1,1.68-1.08,4.1,4.1,0,0,1,2-.21,2.65,2.65,0,0,1,1.8,1,.21.21,0,0,1-.06.28l-.08,0h0a10.7,10.7,0,0,0-1.59.41L49,29.25l-1.4.51L46,30.33h0a.23.23,0,0,1-.29-.14A.2.2,0,0,1,45.67,30.1Z" style="fill:#071a42"/><path d="M50.39,39.8a7.59,7.59,0,0,1-.58,3.13,2.72,2.72,0,0,1-.11.25,7.67,7.67,0,1,1,.69-3.38Z" style="opacity:0.46;mix-blend-mode:multiply;fill:url(#linear-gradient-3)"/><path d="M56.55,38.93H55.23c-.21-.27.07-.82.36-1.17a.09.09,0,0,0,0-.12.08.08,0,0,0-.12,0,2.37,2.37,0,0,0-.49.63.88.88,0,0,0,0,.89h0l0,0h0a.17.17,0,0,0,.15.12h1.07l-.26.36a.19.19,0,0,0,0,.26.18.18,0,0,0,.21,0l0,0,.48-.66a.19.19,0,0,0,0-.19A.2.2,0,0,0,56.55,38.93Z" style="fill:#071a42"/><path d="M37.47,34s8.85-5.19,11.91-13,3-9.45,3-9.45c-.4-.95-2.11-1.53-2.93-2.09C42,4.44,30,2.08,22.83,8.3a35.07,35.07,0,0,0-7.4,10.13,33.87,33.87,0,0,0-2.82,18.26C13.36,42,17.07,44.91,21,47.92a17.33,17.33,0,0,0,3,1.9c.35.17,2.83,1.59,3.1,1.14,0,0,1.93-.91,3.59-4.45C33.25,41.05,37.47,34,37.47,34Z" style="fill:#fe9187"/><path d="M4.72,25.39A10.35,10.35,0,0,1,0,16.48C.14,12.4,2.68,8.83,5.28,5.68c2-2.4,4.26-4.85,7.3-5.52,3.53-.77,7.3,1.26,9.21,4.32A14.29,14.29,0,0,1,23.2,15c-.84,3.85-3.26,9.18-7,11.13C13.11,27.75,7.59,27.21,4.72,25.39Z" style="fill:#fe9187"/><path d="M37.13,34.59s-5.75-8.15-10.26-4.43S25,45.08,32.93,42.21Z" style="fill:#feb6aa"/><path d="M28.5,33.13a7,7,0,0,1,5,5.23" style="fill:none;stroke:#071a42;stroke-linecap:round;stroke-linejoin:round;stroke-width:0.25px"/><path d="M31.13,34.6A6.55,6.55,0,0,0,30,38.76" style="fill:none;stroke:#071a42;stroke-linecap:round;stroke-linejoin:round;stroke-width:0.25px"/><path d="M36.49,39c.31.12.59-.22.76-.5L40.41,33a7.46,7.46,0,0,0,.83-1.79,2.53,2.53,0,0,0-.17-1.91,2.31,2.31,0,0,0-2.8-.83c-1.77.68-2.6,3-2.62,4.8C35.64,34.19,35.75,38.69,36.49,39Z" style="fill:#fe9187"/><path d="M55.37,46.84c-.08.39-.16.78-.25,1.17a1,1,0,0,1-.43,0,2.64,2.64,0,0,1-.76-.44,10.14,10.14,0,0,1-2-1.88c-.29-.38-1-1.34-.93-1.85a.33.33,0,0,1,.2-.27s0,0,0,.06a13,13,0,0,0,3.91,2.72A.48.48,0,0,1,55.37,46.84Z" style="opacity:0.46;mix-blend-mode:multiply;fill:url(#linear-gradient-4)"/><path d="M56.56,41.78a3.57,3.57,0,0,0-.16.54c0,.18,0,.47-.19.61a.67.67,0,0,1-.28.06l-.63,0-1.85.1-1.11.07-.69.06-.35,0c-.07,0-.16,0-.19.07a.09.09,0,0,1,0-.06,20.7,20.7,0,0,1,2.18-.74l2.2-.75a2.32,2.32,0,0,1,.63-.15A.86.86,0,0,1,56.56,41.78Z" style="opacity:0.46;mix-blend-mode:multiply;fill:url(#linear-gradient-5)"/></g></g></g></svg>