<svg xmlns="http://www.w3.org/2000/svg" xmlns:xlink="http://www.w3.org/1999/xlink" viewBox="0 0 474.2 277.79"><defs><linearGradient id="linear-gradient" x1="147.53" y1="133.9" x2="185.39" y2="133.9" gradientUnits="userSpaceOnUse"><stop offset="0" stop-color="#99b4f9" stop-opacity="0"/><stop offset="1" stop-color="#7489ed" stop-opacity="0.5"/></linearGradient><linearGradient id="linear-gradient-2" x1="299.66" y1="77.73" x2="300.73" y2="141.29" xlink:href="#linear-gradient"/><linearGradient id="linear-gradient-3" x1="297.53" y1="162.44" x2="296.46" y2="226.71" xlink:href="#linear-gradient"/><linearGradient id="linear-gradient-4" x1="323.33" y1="129.53" x2="323.69" y2="159.17" xlink:href="#linear-gradient"/><linearGradient id="linear-gradient-5" x1="326.63" y1="77.19" x2="318.93" y2="53.56" gradientUnits="userSpaceOnUse"><stop offset="0" stop-color="#feb6aa" stop-opacity="0"/><stop offset="1" stop-color="#fe9187"/></linearGradient><linearGradient id="linear-gradient-6" x1="1333.16" y1="56.31" x2="1337.05" y2="51.18" gradientTransform="matrix(-1, 0, 0, 1, 1641.45, 0)" xlink:href="#linear-gradient-5"/><linearGradient id="linear-gradient-7" x1="-184.92" y1="-111.41" x2="-181.03" y2="-116.54" gradientTransform="translate(517.2 122.23) rotate(-12.52)" xlink:href="#linear-gradient-5"/><linearGradient id="linear-gradient-8" x1="333.3" y1="53.67" x2="306.67" y2="46.73" gradientUnits="userSpaceOnUse"><stop offset="0" stop-color="#feb6aa" stop-opacity="0"/><stop offset="1" stop-color="#fe9187" stop-opacity="0.5"/></linearGradient><linearGradient id="linear-gradient-9" x1="301.44" y1="68.85" x2="307.43" y2="49.66" xlink:href="#linear-gradient-8"/><linearGradient id="linear-gradient-10" x1="275.16" y1="114.65" x2="315.56" y2="27.68" gradientUnits="userSpaceOnUse"><stop offset="0" stop-color="#feb6aa" stop-opacity="0"/><stop offset="1" stop-color="#fe9187" stop-opacity="0.6"/></linearGradient><linearGradient id="linear-gradient-11" x1="201.52" y1="131.16" x2="197.09" y2="127.88" gradientUnits="userSpaceOnUse"><stop offset="0.01" stop-color="#feb6aa" stop-opacity="0"/><stop offset="1" stop-color="#fe9187"/></linearGradient><linearGradient id="linear-gradient-12" x1="203.86" y1="121.49" x2="193.52" y2="126.64" xlink:href="#linear-gradient-11"/><linearGradient id="linear-gradient-13" x1="199.11" y1="114.5" x2="193.32" y2="126.67" xlink:href="#linear-gradient-11"/><linearGradient id="linear-gradient-14" x1="153.67" y1="129.13" x2="128.78" y2="129.26" xlink:href="#linear-gradient"/><linearGradient id="linear-gradient-15" x1="176.54" y1="226.89" x2="152.4" y2="223.69" xlink:href="#linear-gradient"/></defs><g style="isolation:isolate"><g id="Layer_2" data-name="Layer 2"><g id="OBJECTS"><ellipse cx="262.03" cy="248.43" rx="212.17" ry="29.36" style="fill:#d7e0fc"/><ellipse cx="266.11" cy="246.89" rx="145.75" ry="14.04" style="fill:#efefff"/><path d="M421.77,211.39,431,222.77a3,3,0,0,0,5-.39l6.72-11.71Z" style="fill:#feb6aa"/><path d="M152.35,211.39l9.18,11.38a3,3,0,0,0,5-.39l6.73-11.71Z" style="fill:#feb6aa"/><polygon points="147.53 115.96 183.41 114.62 185.39 145.41 172.97 153.18 147.53 115.96" style="fill:#7489ed"/><polygon points="147.53 115.96 183.41 114.62 185.39 145.41 172.97 153.18 147.53 115.96" style="opacity:0.53;mix-blend-mode:multiply;fill:url(#linear-gradient)"/><path d="M185.82,146.31s-7.14-46.07,1.08-48.57,214.25-1.78,224.61.72S416.15,147,416.15,147,185.47,146,185.82,146.31Z" style="fill:#7489ed"/><path d="M185.82,146.31s-7.14-46.07,1.08-48.57,214.25-1.78,224.61.72S416.15,147,416.15,147,185.47,146,185.82,146.31Z" style="opacity:0.65;mix-blend-mode:multiply;fill:url(#linear-gradient-2)"/><path d="M174.67,178.54H414.5a5.13,5.13,0,0,1,5.13,5.13v29.86a0,0,0,0,1,0,0H174.31a0,0,0,0,1,0,0V178.89A.36.36,0,0,1,174.67,178.54Z" style="fill:#7489ed"/><path d="M174.31,178.72H414.5a5.13,5.13,0,0,1,5.13,5.13v29.86a0,0,0,0,1,0,0H174.31a0,0,0,0,1,0,0v-35A0,0,0,0,1,174.31,178.72Z" style="opacity:0.53;mix-blend-mode:multiply;fill:url(#linear-gradient-3)"/><path d="M420.15,174a5,5,0,0,1-5,4.68l-240.65.77a4.33,4.33,0,0,1-4.38-4.25c-.07-6.6-.15-18.7,0-20.64.28-2.68,15.25-9.11,15.25-9.11C185,145,416.07,147,416.07,147s3.58,3.29,4.45,7.5a7.57,7.57,0,0,1,.18,1.34C420.88,159.1,420.45,168.29,420.15,174Z" style="fill:#7489ed"/><path d="M420.15,174a5,5,0,0,1-5,4.68l-240.65.77a4.33,4.33,0,0,1-4.38-4.25c-.07-6.6-.15-18.7,0-20.64H420.52a7.57,7.57,0,0,1,.18,1.34C420.88,159.1,420.45,168.29,420.15,174Z" style="fill:#7489ed;opacity:0.34;mix-blend-mode:multiply"/><path d="M416.07,146s-.46-25.71,17.49-29.73,18.74,12.32,18.74,12.32v75.93a9.24,9.24,0,0,1-9.24,9.24H414.81Z" style="fill:#7489ed"/><path d="M173.58,146s.46-25.71-17.48-29.73-18.75,12.32-18.75,12.32v75.93a9.24,9.24,0,0,0,9.24,9.24h28.25Z" style="fill:#7489ed"/><path d="M245.66,144.23a3.37,3.37,0,0,1-3.47,2.33c-6.12-.47-22.34-1.56-30.07-.7-7,.79-19.09,1.66-25.1,2.08h-.11a2.38,2.38,0,0,1-.54,0,3.08,3.08,0,0,1-2.66-3.24c.43-6.95-2.11-13.86-3.84-20.57a96.6,96.6,0,0,0-4.8-15.09c-2.08-4.69-6.22-7.53-9.78-11.06a1.2,1.2,0,0,1,.35-2l.32-.13c.18-.09.36-.16.54-.24a36.38,36.38,0,0,1,6.23-2,34.23,34.23,0,0,1,10.5-.18,55.27,55.27,0,0,0,11.5-.3c6.89-.81,13.72-2,20.53-3.21,6.32-1.13,13.12-3.27,19.57-2.94a2,2,0,0,1,1.79,2.59c-3.25,9.5,2.72,18,6.33,26.42C246.67,124.77,248.68,134.92,245.66,144.23Z" style="fill:#ffe591"/><path d="M186.91,147.94a2.38,2.38,0,0,1-.54,0L182.79,127c-1.17-6.78-2.49-14.45-6.53-20.6-2.72-4.13-6.53-7.41-10.3-10.53.18-.09.36-.16.54-.24,3.72,3.1,7.49,6.35,10.19,10.49,4.12,6.24,5.44,14,6.61,20.8Z" style="fill:#d7e0fc"/><path d="M358.51,145.84a3.37,3.37,0,0,0,3.47,2.33c6.13-.47,22.35-1.56,30.08-.7,7,.78,19.09,1.65,25.1,2.07h.1a2.51,2.51,0,0,0,.55,0,3.06,3.06,0,0,0,2.65-3.23c-.43-6.95,2.11-13.87,3.84-20.57a96,96,0,0,1,4.81-15.09c2.07-4.69,6.22-7.53,9.77-11.06a1.2,1.2,0,0,0-.34-2l-.33-.14c-.18-.08-.36-.15-.53-.24a36,36,0,0,0-6.23-2,34.56,34.56,0,0,0-10.5-.19,54.59,54.59,0,0,1-11.5-.29c-6.89-.81-13.72-2-20.54-3.21-6.31-1.13-13.11-3.27-19.56-2.94a2,2,0,0,0-1.8,2.58c3.26,9.51-2.71,18-6.32,26.43C357.5,126.37,355.49,136.53,358.51,145.84Z" style="fill:#ffe591"/><path d="M417.26,149.54a2.51,2.51,0,0,0,.55,0l3.58-20.9c1.16-6.78,2.48-14.46,6.52-20.6,2.73-4.14,6.54-7.41,10.3-10.54-.18-.08-.36-.15-.53-.24-3.73,3.11-7.49,6.36-10.2,10.49-4.11,6.24-5.43,14-6.61,20.8Z" style="fill:#d7e0fc"/><ellipse cx="323.57" cy="149.43" rx="59.81" ry="4.29" style="mix-blend-mode:multiply;fill:url(#linear-gradient-4)"/><polygon points="299.17 204.46 300.2 212.98 286.81 214.5 285.71 206.11 299.17 204.46" style="fill:#fe9187"/><path d="M283.92,214.49c2.13-3.16,1.9-6.48,6.6-7,6.5-.7,7.49,3.62,7.94,4.53s1.65-1.19,2.66-1.09,1.74,5.86,2.11,7.78,1.1,4.21.09,5.31-14,7.42-17.86,9c-3.33,1.36-12.46,2.36-11.36-4C274.82,224.79,281.81,217.63,283.92,214.49Z" style="fill:#0b2c6f"/><polygon points="357.5 206.27 356.68 214.52 369.04 214.24 369.45 206.55 357.5 206.27" style="fill:#fe9187"/><path d="M364.43,211a5.55,5.55,0,0,1,5,.07c1.28.84,1.87,2.38,2.52,3.76a22.4,22.4,0,0,0,4.86,6.64,52.08,52.08,0,0,1,4.28,4,6.88,6.88,0,0,1,1.86,5.35,6,6,0,0,1-5,4.56,11.32,11.32,0,0,1-7-1.43c-2.15-1.09-4.09-2.56-6.18-3.75a28.84,28.84,0,0,0-7.41-3c-1.9-.47-4.11-1-5-2.7-.72-1.48-.13-3.24.46-4.78l2-5.19a4.34,4.34,0,0,1,1.54-2.31,2.21,2.21,0,0,1,2.2,0c1.24.73.84,2.27,2.32,1A12.39,12.39,0,0,1,364.43,211Z" style="fill:#0b2c6f"/><path d="M373.58,89.89s-1.38-3.43-5.77-17.72c-4.93-16-20.51-28.38-37.74-26.66C295.16,42,290.86,51.7,285,58.29c-6.73,9.21-11,37.51-11,37.51l19-.11c1.77,12.81,3.58,27.5,3.58,27.5s3.48-.18,25.1-6A126.26,126.26,0,0,1,364,113.66s-4.3-8.4-8.55-17.82Z" style="fill:#ffcbc3"/><path d="M346.51,63s-2.94,14.09,8.9,32.88" style="fill:none;stroke:#071a42;stroke-linecap:round;stroke-linejoin:round;stroke-width:0.26908000000000004px"/><path d="M347.5,57.75a15.43,15.43,0,0,1,3.91-7.2" style="fill:none;stroke:#071a42;stroke-linecap:round;stroke-linejoin:round;stroke-width:0.26908000000000004px"/><path d="M344.51,73.7A29.26,29.26,0,0,0,349,82.43l-.12-.38" style="fill:none;stroke:#071a42;stroke-linecap:round;stroke-linejoin:round;stroke-width:0.26908000000000004px"/><path d="M284.81,58.69c4.15,3.69,5.78,8.39,7.29,14.72" style="fill:none;stroke:#071a42;stroke-linecap:round;stroke-linejoin:round;stroke-width:0.26908000000000004px"/><path d="M327.19,46.28a.93.93,0,0,0,.59.48.67.67,0,0,0,.67-.47,1.87,1.87,0,0,0,.05-.88c-.22-2.23-.43-4.45-.65-6.67,0-.49-.16-1.08-.62-1.25s-1,.29-1.31.77C324.4,40.88,325.6,44,327.19,46.28Z" style="fill:#071a42"/><path d="M274.78,95.8s-3,15,2.75,20.2,12-.73,16-7.92l1.86-13Z" style="fill:#fe9187"/><path d="M379.35,134.92c-2-14.48-7.15-20.52-14.66-21.07l-.48,0-.25-.17s-18.32-2.56-44.7,2.39A112.4,112.4,0,0,0,306,119.31a70.21,70.21,0,0,0-20.19-1.39c-18.42,1.55-14.52,24.87-13.42,33.3s11.72,56.43,11.72,56.43l16.49-1.1-1.83-53a62.42,62.42,0,0,0,17.77-.36c8.79-1.65,11-2.39,15.57-2.39,3.85,0,15.17,1.29,20.23,1.49l.11.53,2.93,56.24,15.2.19S381.36,149.39,379.35,134.92Z" style="fill:#0b2c6f"/><path d="M325.38,114.62l2,16.06a4.25,4.25,0,0,0,.49,1.76,1.45,1.45,0,0,0,1.55.74c.94-.28,1.05-1.55,1-2.52q-.72-8.18-1.89-16.31" style="fill:none;stroke:#d7e0fc;stroke-linecap:round;stroke-linejoin:round;stroke-width:0.26908000000000004px"/><path d="M330.24,151l0-1.08" style="fill:none;stroke:#d7e0fc;stroke-linecap:round;stroke-linejoin:round;stroke-width:0.26908000000000004px"/><path d="M330.15,148.09c-.06-2.2-.13-4.39-.19-6.58" style="fill:none;stroke:#d7e0fc;stroke-linecap:round;stroke-linejoin:round;stroke-width:0.26908000000000004px;stroke-dasharray:1.8792555332183838,1.8792555332183838"/><path d="M329.93,140.57l0-1.07" style="fill:none;stroke:#d7e0fc;stroke-linecap:round;stroke-linejoin:round;stroke-width:0.26908000000000004px"/><path d="M356.68,131.94s-4.67,5.59-4.26,20.93" style="fill:none;stroke:#d7e0fc;stroke-linecap:round;stroke-linejoin:round;stroke-width:0.26908000000000004px"/><path d="M351.16,135.67a31.51,31.51,0,0,0,1,16.67" style="fill:none;stroke:#d7e0fc;stroke-linecap:round;stroke-linejoin:round;stroke-width:0.26908000000000004px"/><path d="M305.88,119.17a96,96,0,0,1,10.85,1.48" style="fill:none;stroke:#d7e0fc;stroke-linecap:round;stroke-linejoin:round;stroke-width:0.26908000000000004px"/><path d="M296.91,136.66c2,6.2,2.06,9.71,1.78,17" style="fill:none;stroke:#d7e0fc;stroke-linecap:round;stroke-linejoin:round;stroke-width:0.26908000000000004px"/><path d="M355.49,95.85l9.39,23s10.16-1,11.54-6S373.3,90,373.3,90Z" style="fill:#fe9187"/><path d="M360.11,102.4s-33.8,15.39-37.78,19.37l5.22,5.91s37-5.5,45.89-12.23Z" style="fill:#fe9187"/><path d="M322.35,121.84s-6.46,6.55-9.48,10.95-4.74,7.69-5.11,9.8-.75,13.28.14,13.51,5.7.14,6.07-1.7,1-6.32,1-6.32-.37,3.67.36,3.76,2.66-8.52,2.66-8.52,5.08-3.11,6.55-7,3-8.52,3-8.52Z" style="fill:#fe9187"/><path d="M309.87,142.84s-.35,10.42-.18,13.21" style="fill:none;stroke:#071a42;stroke-linecap:round;stroke-linejoin:round;stroke-width:0.26908000000000004px"/><path d="M312,155.78s.39-9.89.53-12.71" style="fill:none;stroke:#071a42;stroke-linecap:round;stroke-linejoin:round;stroke-width:0.26908000000000004px"/><line x1="314.91" y1="149.07" x2="315.18" y2="143.21" style="fill:none;stroke:#071a42;stroke-linecap:round;stroke-linejoin:round;stroke-width:0.26908000000000004px"/><path d="M358.33,103.08s6-1.1,11.26,1.24" style="fill:none;stroke:#071a42;stroke-linecap:round;stroke-linejoin:round;stroke-width:0.26908000000000004px"/><path d="M310.62,68.23s4.4,8.24,11.64,6.23,9.07-16.67,8.33-25.28Z" style="fill:#fe9187"/><path d="M310.62,68.23s4.4,8.24,11.64,6.23,9.07-16.67,8.33-25.28Z" style="opacity:0.46;mix-blend-mode:multiply;fill:url(#linear-gradient-5)"/><path d="M292.57,45.1c.37,1,.93,2,1.23,3s.32,2,.65,2.91c.78,2.27,3,3.68,5.06,4.92a2.66,2.66,0,0,0,2.05.56c.88-.26,1.24-1.28,1.43-2.17a25.75,25.75,0,0,0,0-10.67,13.46,13.46,0,0,0-1.69-4.46,6.79,6.79,0,0,0-3.69-2.9c-1.76-.5-4.07-.07-4.71,1.8A10.22,10.22,0,0,0,292.57,45.1Z" style="fill:#071a42"/><path d="M326.05,20.87a5.2,5.2,0,0,1,3,.44,3.72,3.72,0,0,1,1.28,2.93,8.9,8.9,0,0,0,.48,3.26c.61,1.29,2,2,2.75,3.25a8,8,0,0,1,.74,4.65c-.16,3.46-.32,7-1.51,10.23-.57,1.57-1.67,3.26-3.34,3.36s-2.83-1.27-3.66-2.61a25.81,25.81,0,0,1-3.44-10.31A75.22,75.22,0,0,1,322,25.14c0-1.17-.15-3.49.8-4.36S325.05,20.88,326.05,20.87Z" style="fill:#071a42"/><path d="M329.14,57.7h0a22.06,22.06,0,0,1-.8,2.15,15.9,15.9,0,0,1-8.46,8.47,12.78,12.78,0,0,1-9,.42,14.52,14.52,0,0,1-3.16-1.56c-3.84-2.5-6.65-6.74-8.65-10.7-.21-.43-.43-.87-.62-1.32a27.78,27.78,0,0,1-2.55-16.08,12.57,12.57,0,0,1,1.78-4.75c2.33-3.53,6.51-5.34,10.52-6.16,6.53-1.33,13.43-.34,17.46,5.42a27.21,27.21,0,0,1,4.56,12.55s0,0,0,0A27.68,27.68,0,0,1,329.14,57.7Z" style="fill:#fe9187"/><path d="M302.27,45.46a5,5,0,0,1,1.75-.94,1.72,1.72,0,0,1,1.8.56,1.68,1.68,0,0,1,.05,1.63A3.85,3.85,0,0,1,304.76,48c-.95.77-5.79,3.83-6.78,2.19S301.41,46.08,302.27,45.46Z" style="fill:#071a42"/><path d="M315.12,41.42a5.19,5.19,0,0,0-1.95.4,1.73,1.73,0,0,0-1,1.58,1.64,1.64,0,0,0,1,1.28,3.77,3.77,0,0,0,1.67.27c1.21,0,6.89-.78,6.6-2.67S316.18,41.34,315.12,41.42Z" style="fill:#071a42"/><path d="M303,51.79a1.29,1.29,0,1,0,1.09-1.46A1.29,1.29,0,0,0,303,51.79Z" style="fill:#071a42"/><path d="M306.79,52.43l-1.4,2S307.12,55.87,306.79,52.43Z" style="opacity:0.46;mix-blend-mode:multiply;fill:url(#linear-gradient-6)"/><path d="M316.76,48a1.27,1.27,0,0,1-1.18,1.38,1.29,1.29,0,0,1-1.39-1.18,1.3,1.3,0,0,1,1.19-1.39A1.29,1.29,0,0,1,316.76,48Z" style="fill:#071a42"/><path d="M313.16,49.44,315,51S313.58,52.86,313.16,49.44Z" style="opacity:0.46;mix-blend-mode:multiply;fill:url(#linear-gradient-7)"/><path d="M308.13,47.55a22.21,22.21,0,0,0,1.32,7,7.84,7.84,0,0,0,1.88,2.86,3.1,3.1,0,0,0,1.43.75,2.18,2.18,0,0,0,1.57-.35.14.14,0,0,1,.19,0,.13.13,0,0,1,0,.17,2.26,2.26,0,0,1-1.8.67,3.32,3.32,0,0,1-1.8-.76,7.23,7.23,0,0,1-2.07-3.13,17.44,17.44,0,0,1-1-7.24.12.12,0,0,1,.14-.13A.14.14,0,0,1,308.13,47.55Z" style="fill:#071a42"/><path d="M315.48,56.36l1,.28c.21-.15.13-.61,0-.92a.08.08,0,0,1,0-.09.07.07,0,0,1,.09,0,2.2,2.2,0,0,1,.23.57.66.66,0,0,1-.17.65h0a.11.11,0,0,1-.13,0l-.78-.23.11.32a.13.13,0,0,1-.08.18.14.14,0,0,1-.16,0l0,0-.2-.58a.14.14,0,0,1,0-.15A.14.14,0,0,1,315.48,56.36Z" style="fill:#071a42"/><path d="M313.76,61.76l-.07,0a13,13,0,0,1,6.24-3.69" style="fill:none;stroke:#071a42;stroke-linecap:round;stroke-linejoin:round;stroke-width:0.26908000000000004px"/><path d="M316.31,61.73a4.42,4.42,0,0,0,1.91-1" style="fill:none;stroke:#071a42;stroke-linecap:round;stroke-linejoin:round;stroke-width:0.26908000000000004px"/><path d="M329.14,57.7h0a7.59,7.59,0,1,1,1.11-11.56s0,0,0,0A27.68,27.68,0,0,1,329.14,57.7Z" style="opacity:0.46;mix-blend-mode:multiply;fill:url(#linear-gradient-8)"/><path d="M310.72,61a7.7,7.7,0,0,1-.58,3.09,1.45,1.45,0,0,1-.11.25,7.61,7.61,0,0,1-2.28,2.89c-3.84-2.5-6.65-6.74-8.65-10.7-.21-.43-.43-.87-.62-1.32a7.44,7.44,0,0,1,4.43-1.59A7.6,7.6,0,0,1,310.72,61Z" style="opacity:0.46;mix-blend-mode:multiply;fill:url(#linear-gradient-9)"/><path d="M328.23,36.91c.66-.95,1.71-1.86,2.85-1.65s1.75,1.31,2.11,2.37a11.88,11.88,0,0,1-1.11,9.88c-.66,1.08-1.81,2.17-3,1.84-1.05-.27-1.58-1.44-1.89-2.48C326.17,43.5,326.17,39.91,328.23,36.91Z" style="fill:#fe9187"/><path d="M330.6,38a10.08,10.08,0,0,0,0,5.63" style="fill:none;stroke:#071a42;stroke-linecap:round;stroke-linejoin:round;stroke-width:0.26908000000000004px"/><path d="M330.24,40.12a2.58,2.58,0,0,1,1.68,2.76" style="fill:none;stroke:#071a42;stroke-linecap:round;stroke-linejoin:round;stroke-width:0.26908000000000004px"/><path d="M331.37,31.58a7.35,7.35,0,0,0-2.14-3,17.6,17.6,0,0,1-3-2.92,20.56,20.56,0,0,1-1.62-4.07,7.57,7.57,0,0,0-5-4.86c-1.89-.42-3.84.18-5.75.45-3.07.42-6.19,0-9.28.2a15.88,15.88,0,0,0-11.19,6.3c-2.06,2.63-3.9,6.27-4,9.66a3.62,3.62,0,0,0,.46,2.1c.54.82,1.56,1.17,2.29,1.83,1.12,1,1.28,2.65,2.26,3.77a5,5,0,0,0,3.08,1.54c2.07.32,5,.48,6.58-1.17s1.35-5.9,4.89-4.22a11.24,11.24,0,0,0,2.45,1.12c2.46.49,3.77-2.1,5-3.68a4.77,4.77,0,0,1,2.38-1.73c2.27-.58,3.14,1.76,3.2,3.56a10,10,0,0,0,.73,4.44c.55,1.05,3.43,5,4.61,5.15s.59-3.76.8-4.93-.53-2.27-.19-3.35c.39-1.27,2-1.69,2.86-2.69A3.64,3.64,0,0,0,331.37,31.58Z" style="fill:#071a42"/><path d="M275,106.57s.41-6.46,7.42-18.83c7.32-12.92,13-20.88,13-20.88s-2.61-5.78-3-9.35-.49-14.62,1.1-15S296,46,296.43,47.76a31.87,31.87,0,0,1,.55,4.39s4.25-5.08,7.14-7.83,5.77-4.94,7-4.53-1.24,3.71-2.06,4.81-4.26,5.77-4.26,5.77,10-9.48,11.95-8.93a1.62,1.62,0,0,1,1.1,2.33s1.92.41,1.79,1.93-5.91,8.24-5.91,8.24,3-2.47,4.12-2.06-.41,3.71-1.79,5.36-3.84,8-5.35,10A16.42,16.42,0,0,1,306.18,71s-9.07,30.5-12.64,37.1S283.92,121,278.7,117C272.54,112.3,275,106.57,275,106.57Z" style="fill:#fe9187"/><path d="M275,106.57s.41-6.46,7.42-18.83c7.32-12.92,13-20.88,13-20.88s-2.61-5.78-3-9.35-.49-14.62,1.1-15S296,46,296.43,47.76a31.87,31.87,0,0,1,.55,4.39s4.25-5.08,7.14-7.83,5.77-4.94,7-4.53-1.24,3.71-2.06,4.81-4.26,5.77-4.26,5.77,10-9.48,11.95-8.93a1.62,1.62,0,0,1,1.1,2.33s1.92.41,1.79,1.93-5.91,8.24-5.91,8.24,3-2.47,4.12-2.06-.41,3.71-1.79,5.36-3.84,8-5.35,10A16.42,16.42,0,0,1,306.18,71s-9.07,30.5-12.64,37.1S283.92,121,278.7,117C272.54,112.3,275,106.57,275,106.57Z" style="opacity:0.6000000000000001;mix-blend-mode:multiply;fill:url(#linear-gradient-10)"/><line x1="317.86" y1="43.77" x2="307.35" y2="54.08" style="fill:none;stroke:#071a42;stroke-linecap:round;stroke-linejoin:round;stroke-width:0.26908000000000004px"/><path d="M314.08,53.46c0,.07-3.5,4-3.5,4" style="fill:none;stroke:#071a42;stroke-linecap:round;stroke-linejoin:round;stroke-width:0.26908000000000004px"/><path d="M278.4,95.62a17.41,17.41,0,0,0-3.11,7.33" style="fill:none;stroke:#071a42;stroke-linecap:round;stroke-linejoin:round;stroke-width:0.26908000000000004px"/><polygon points="174.58 241.66 174.2 246.77 183.9 247.15 184.16 241.53 174.58 241.66" style="fill:#feb6aa"/><path d="M212.47,262.88c-.23,3.31-17.51,3.33-22,2.45s-16.59,0-17.5-.07c-.48-.06-1.17-.55-1.7-1.69a1.73,1.73,0,0,1-.1-.24,11.23,11.23,0,0,1-.7-4.43c0-4.6,3.85-12.46,3.85-12.46l9.59-.06s3.63,2.25,6.74,3.75l.24.12q.68.31,1.29.57l1.27.53.25.11c.69.29,1.52.65,2.44,1.06l.23.11c5.74,2.55,14.79,7,16,9.62a1.36,1.36,0,0,1,.09.23A1.13,1.13,0,0,1,212.47,262.88Z" style="fill:#071a42"/><path d="M212.42,262.48a22.63,22.63,0,0,1-10.14,2.06c-.77,0-1.56,0-2.38-.07-2.29-.14-4.6-.45-6.84-.75-2.08-.28-4.24-.57-6.37-.71a93.79,93.79,0,0,0-15.46.56,1.73,1.73,0,0,1-.1-.24,93.08,93.08,0,0,1,15.58-.57c2.14.15,4.3.43,6.39.71s4.53.61,6.81.75c5.05.31,9.12-.34,12.42-2A1.36,1.36,0,0,1,212.42,262.48Z" style="fill:#fff6ed"/><path d="M190.85,250.25a21,21,0,0,0-4.37,5.75l-.22-.11a20.88,20.88,0,0,1,4.35-5.76Z" style="fill:#fff6ed"/><path d="M193.66,251.46a20.57,20.57,0,0,0-3.54,4.92l-.22-.11a20.73,20.73,0,0,1,3.51-4.92Z" style="fill:#fff6ed"/><path d="M196.33,252.63a20.28,20.28,0,0,0-2.7,4l-.22-.12a20.46,20.46,0,0,1,2.69-4Z" style="fill:#fff6ed"/><path d="M92.07,147.7a102.11,102.11,0,0,0-2.72,43.87c2.8,17,36.85,10.9,47.57,8.6S175.73,193,175.73,193s-6.38,29.87-2,49l11.23.26c3.34-11.19,6.43-22.45,9.19-33.8,2.58-10.64,6.14-22.12,5.89-33.15-.21-9.07-6.67-14-15.24-15.49s-17.33.27-25.88.66c-1.48.07-22.13,1.59-22.21,1.1L134,146Z" style="fill:#071a42"/><path d="M97.19,147.34c.81,6.92,0,14,.76,20.89s3.63,14.19,9.66,17.68c4.67,2.71,10.38,2.69,15.77,2.52q25.11-.8,50.07-3.84c2.77-.34,6.21-.39,7.62,2,.84,1.43.59,3.22.33,4.86a239.11,239.11,0,0,0-2.58,50.5" style="fill:none;stroke:#fff6ed;stroke-miterlimit:10;stroke-width:0.25px"/><path d="M192.26,126.42s4.37,1.76,5.3,2.26,3.89,2.33,4.2,1.68-2.27-2.79-2.84-3.24-3.88-2.49-3.88-2.49Z" style="fill:#feb6aa"/><path d="M192.26,126.42s4.37,1.76,5.3,2.26,3.89,2.33,4.2,1.68-2.27-2.79-2.84-3.24-3.88-2.49-3.88-2.49Z" style="opacity:0.37;mix-blend-mode:multiply;fill:url(#linear-gradient-11)"/><path d="M193.7,124.5a19.91,19.91,0,0,0,3.64-.29c.92-.29,4.95-1.82,5.62-1.47S201,125,200.31,125.5a29.56,29.56,0,0,1-5.14,1.68c-.64.08-4.13-.93-4.14-1.37S193.7,124.5,193.7,124.5Z" style="fill:#feb6aa"/><path d="M193.7,124.5a19.91,19.91,0,0,0,3.64-.29c.92-.29,4.95-1.82,5.62-1.47S201,125,200.31,125.5a29.56,29.56,0,0,1-5.14,1.68c-.64.08-4.13-.93-4.14-1.37S193.7,124.5,193.7,124.5Z" style="opacity:0.23;mix-blend-mode:multiply;fill:url(#linear-gradient-12)"/><path d="M191.94,124.72s3.77-3.06,4.47-4.46,1.53-3.77,2.17-3.64-.19,4-.44,4.85-2.46,3.41-3.1,4.24a3.49,3.49,0,0,1-3.45.64C191.07,126,191.94,124.72,191.94,124.72Z" style="fill:#feb6aa"/><path d="M191.94,124.72s3.77-3.06,4.47-4.46,1.53-3.77,2.17-3.64-.19,4-.44,4.85-2.46,3.41-3.1,4.24a3.49,3.49,0,0,1-3.45.64C191.07,126,191.94,124.72,191.94,124.72Z" style="opacity:0.35000000000000003;fill:url(#linear-gradient-13)"/><path d="M148.54,120.51s25.79-7.15,26.43-7.4,8.68-.39,10.59-.39,10.34.51,10.73,1.66-5.11,1.79-6.9,2.05S175,121.15,175,121.15l-24.51,12.13Z" style="fill:#feb6aa"/><path d="M173.86,121.28s8,4.34,9.7,4.76,8.17.85,8.68.43,2-4.9,2.23-5.74c.25-1,.5-4.39-.18-4.13s-2.22,4.59-2.22,4.59l-6-5.87Z" style="fill:#feb6aa"/><path d="M185.5,115.66l2.33,1.24a9.43,9.43,0,0,1-2,1.84,11.64,11.64,0,0,1-5.89,1.69" style="fill:none;stroke:#071a42;stroke-linecap:round;stroke-linejoin:round;stroke-width:0.15px"/><path d="M188.54,124.51a16.22,16.22,0,0,0,2.21-.72,16.79,16.79,0,0,0,1.32-2.6" style="fill:none;stroke:#071a42;stroke-linecap:round;stroke-linejoin:round;stroke-width:0.15px"/><path d="M187.81,116.86l-.12-1.5" style="fill:none;stroke:#071a42;stroke-linecap:round;stroke-linejoin:round;stroke-width:0.15px"/><polygon points="135.78 119.23 150.07 118.72 150.71 134.04 135.01 139.66 135.78 119.23" style="fill:#d7e0fc"/><polygon points="135.78 119.23 150.07 118.72 150.71 134.04 135.01 139.66 135.78 119.23" style="opacity:0.35000000000000003;fill:url(#linear-gradient-14)"/><path d="M107.72,67.5a10.14,10.14,0,0,0-.21,1.32c0,.87,11.93,5.91,17.31,5.77l.27-2.42s4,1.23,4.56,4.17-1.15,10.6-1.15,10.6a27.93,27.93,0,0,1-16.47-1C103,82.6,98.88,79,98.88,79S99.93,66.1,107.72,67.5Z" style="fill:#d7e0fc"/><path d="M101.69,77.23c-3-1.76-8.51,9.65-9.42,11.42a51.32,51.32,0,0,0-5.16,18.83c-.6,6.77-1.12,13.42-.16,20.2.36,2.59,3.19,20,4.85,21l42-1.4s5.62-25.7,5.45-31.15S128.5,86.94,128.5,86.94Z" style="fill:#d7e0fc"/><polygon points="152.37 156.25 164.24 143.75 209.94 143.75 218.12 156.25 152.37 156.25 152.37 156.25" style="fill:#ffe591"/><polygon points="158.41 155.48 168.9 144.43 209.5 144.38 216.5 155.48 158.41 155.48 158.41 155.48" style="fill:#fff"/><path d="M209.77,146.17l3.07,5.4a2.6,2.6,0,0,0,1.32-3.7C213.05,145.79,209.77,146.17,209.77,146.17Z" style="fill:#0b2c6f"/><line x1="206.82" y1="145.09" x2="211.6" y2="154.21" style="fill:none;stroke:#99b4f9;stroke-linecap:round;stroke-linejoin:round;stroke-width:0.25px"/><line x1="204.96" y1="145.09" x2="208.98" y2="154.13" style="fill:none;stroke:#99b4f9;stroke-linecap:round;stroke-linejoin:round;stroke-width:0.25px"/><line x1="203.09" y1="145.09" x2="206.36" y2="154.04" style="fill:none;stroke:#99b4f9;stroke-linecap:round;stroke-linejoin:round;stroke-width:0.25px"/><line x1="201.23" y1="145.1" x2="203.73" y2="153.96" style="fill:none;stroke:#99b4f9;stroke-linecap:round;stroke-linejoin:round;stroke-width:0.25px"/><line x1="199.37" y1="145.1" x2="201.11" y2="153.87" style="fill:none;stroke:#99b4f9;stroke-linecap:round;stroke-linejoin:round;stroke-width:0.25px"/><line x1="197.51" y1="145.1" x2="198.48" y2="153.79" style="fill:none;stroke:#99b4f9;stroke-linecap:round;stroke-linejoin:round;stroke-width:0.25px"/><line x1="195.65" y1="145.11" x2="195.86" y2="153.7" style="fill:none;stroke:#99b4f9;stroke-linecap:round;stroke-linejoin:round;stroke-width:0.25px"/><path d="M96.16,82.13s9.7-4.26,16,4.93S123,142.64,123,142.64L146.2,148,145,161.79s-36.94,3.4-40.51-5.28-16.85-46.64-15.83-55.32S96.16,82.13,96.16,82.13Z" style="fill:#d7e0fc"/><path d="M92.37,103.28c.2,15.55,2.28,31.57,9.23,45.66" style="fill:none;stroke:#99b4f9;stroke-linecap:round;stroke-linejoin:round;stroke-width:0.25px"/><path d="M90.77,111.77a34.35,34.35,0,0,0,2.32,5.86" style="fill:none;stroke:#99b4f9;stroke-linecap:round;stroke-linejoin:round;stroke-width:0.25px"/><path d="M109.6,85.53s7.41,4.73,8.56,19.41S122,142.85,122,142.85L146.2,148" style="fill:none;stroke:#99b4f9;stroke-linecap:round;stroke-linejoin:round;stroke-width:0.25px"/><path d="M122.11,142.8A11.35,11.35,0,0,0,115,147" style="fill:none;stroke:#99b4f9;stroke-linecap:round;stroke-linejoin:round;stroke-width:0.25px"/><path d="M99.14,78a28.24,28.24,0,0,0,8.6,4.48" style="fill:none;stroke:#99b4f9;stroke-linecap:round;stroke-linejoin:round;stroke-width:0.25px"/><path d="M120.34,86.16a33.47,33.47,0,0,0,8.24.82" style="fill:none;stroke:#99b4f9;stroke-linecap:round;stroke-linejoin:round;stroke-width:0.25px"/><path d="M143.45,147.58a45.29,45.29,0,0,0-1.69,14" style="fill:none;stroke:#99b4f9;stroke-linecap:round;stroke-linejoin:round;stroke-width:0.25px"/><path d="M106.63,68.09s7.12,6.08,19.7,6.59" style="fill:none;stroke:#99b4f9;stroke-linecap:round;stroke-linejoin:round;stroke-width:0.25px"/><path d="M146,151.79l18.12,2.81s5.88-1.54,8.18-1.41,13.65-4.59,14.93-3.57-8.55,7.27-8.55,7.27l-4,4-29.7.94Z" style="fill:#feb6aa"/><path d="M178.54,156.34l13.79-.17a40.6,40.6,0,0,1-6,3.57c-2,.77-11.58,1.11-11.58,1.11Z" style="fill:#feb6aa"/><path d="M144.84,254.43l3.25,12.72a1.43,1.43,0,0,0,2.74.09l4.09-12.56Z" style="fill:#7489ed"/><path d="M173.17,198.4l-8.42,56.67-9.81-.22h-.08l-5.09-.11-.51,0-4.37-.09c-26.07-.59-70.69-1.53-89.18-1.7h-.2c-2.79,0-5,0-6.38,0a8.72,8.72,0,0,0-1.83.09L.51,80.46.36,79.9l-.07-.26A8.38,8.38,0,0,1,1.7,72.4C9.62,61.91,24.62,54,38,56.51c17.34,3.27,20.13,23,17.91,37.62-1.65,10.88-5.36,21.46-6,32.45-.74,12.89,4.58,27.14,17.6,31.8,7.07,2.53,14.58,2,22,.69,2.71-.48,5.41-1.06,8.08-1.62,2.28-.48,4.54-1,6.75-1.35l.1,0c10-1.79,20.23-3.78,30.42-5.25q4-.59,8-1,1.59-.18,3.18-.33c.91-.09,1.82-.18,2.73-.25,3.3-.4,7.09-.79,10.4-.15a11.27,11.27,0,0,1,3.92,1.46,8.42,8.42,0,0,1,3.16,3.56,10.33,10.33,0,0,1,.56,1.39h0q.14.39.24.78a18.7,18.7,0,0,1,.58,3.58q0,.61.06,1.23c.11,4.33-.84,8.83-1.3,13q-.64,5.79-1.61,11.55c-.52,3.09-1.1,6.18-1.76,9.24h.13l1.64.11h0l5.83.37A2.7,2.7,0,0,1,173.17,198.4Z" style="fill:#99b4f9"/><path d="M158.9,181.48c-.15,1.47-.3,2.87-.41,4.23,0,.17,0,.33,0,.5-.27,3.2-.59,6.5-1,10s-.87,7.46-1.41,11.65c-.79,6.09-1.67,12.26-2.52,18.23-1.22,8.52-2.47,17.32-3.49,26-.12,1-.13,1.17-.14,1.34s0,.31-.12,1.08c0,.06,0,.12,0,.19s0,0,0,.08l-.5-.06v0l0-.18c.09-.8.1-.95.12-1.11s0-.34.14-1.36c1-8.69,2.28-17.49,3.49-26,.85-6,1.74-12.14,2.53-18.22.54-4.14,1-7.94,1.39-11.5s.71-6.88,1-10.08c0-.2,0-.39.05-.59.11-1.37.26-2.76.42-4.24.6-5.73,1.23-11.65,0-16.84a11.18,11.18,0,0,0-1.3-3.18,5.66,5.66,0,0,0-.5-.74,8.45,8.45,0,0,0-1.23-1.32c-2.51-2.11-6-2.66-9.84-2.41h-.06a35.9,35.9,0,0,0-3.62.42c-1.88.31-3.79.74-5.66,1.2-1.45.37-2.87.75-4.23,1.12-2.31.63-4.5,1.22-6.32,1.56l-4.78.92h0l-5,1c-5.9,1.19-11.93,2.41-18,3.3-3.1.46-6.21.83-9.32,1.07l-2,.13c-8.79.5-16.07-.29-22.25-2.43-7.77-2.69-13.91-7.58-17.29-13.79-7-12.8-3.54-27.93-.22-42.56C48.46,101.21,50.1,94,50.3,87.1c.2-6.65-.81-11.56-3.17-15.46-3.1-5.12-7.38-8-12.71-8.47C22.94,62.11,8.71,72.21.51,80.46L.36,79.9c8.3-8.28,22.54-18.3,34.1-17.22,5.5.51,9.91,3.43,13.1,8.7,2.41,4,3.44,9,3.24,15.73C50.6,94,49,101.3,47.2,109c-3.29,14.54-6.7,29.58.18,42.21,3.32,6.1,9.36,10.91,17,13.56,6.12,2.11,13.34,2.9,22.06,2.4.69,0,1.37-.08,2.06-.14,3.09-.23,6.17-.6,9.24-1.05,6.06-.89,12.07-2.11,18-3.3L119,162c2.15-.44,4.32-.87,6.47-1.26,1.8-.34,4-.93,6.28-1.55,1.38-.37,2.82-.76,4.28-1.12,1.9-.48,3.85-.92,5.77-1.23a33.06,33.06,0,0,1,3.63-.41h.07c3.91-.23,7.5.35,10.11,2.54a8.67,8.67,0,0,1,1.51,1.66c.17.25.33.51.47.76a11.91,11.91,0,0,1,1.21,3.08C160.14,169.75,159.51,175.71,158.9,181.48Z" style="fill:#efefff"/><path d="M173.17,198.4l-8.42,56.67-9.81-.22,8.24-60,7.49.48A2.7,2.7,0,0,1,173.17,198.4Z" style="fill:url(#linear-gradient-15)"/><path d="M49.09,252.77l3.25,12.72a1.43,1.43,0,0,0,2.75.09L59.18,253Z" style="fill:#7489ed"/><path d="M148.67,56.68l12.52-19c-2.82-8.51-.65-18.28,5-25.21S180.58,1.39,189.48.3A36.44,36.44,0,0,1,210.93,4a28.66,28.66,0,0,1,14,16.38,23.69,23.69,0,0,1-3.35,21c-4.47,5.91-11.75,9.12-19,10.5a52.29,52.29,0,0,1-33.18-4.7C162.75,51.06,155.75,53.74,148.67,56.68Z" style="fill:#efefff"/></g></g></g></svg>