<svg xmlns="http://www.w3.org/2000/svg" viewBox="0 0 199.05 197.77"><g id="Layer_2" data-name="Layer 2"><g id="OBJECTS"><path d="M38.34,119.42,19,189.6l-3.09-2.16s-6.8-26.78,5.57-35.55c-.83-18.87,0-37.71,0-37.71Z" style="fill:#ecb579"/><path d="M53.59,120.65c-.2.62-15.25,68.95-15.25,68.95s-3.51-1.75-3.51-2.37-7.52-24.07,4-34.71c-2.73-14.14-3.21-34-3.21-34Z" style="fill:#ecb579"/><path d="M35.87,82S23.7,85,12.16,114.18c2.68,2.35,11.86,3.38,11.86,3.38v1.86s9.58,2.47,13.91,2.88V124s13.19.83,19.37,0l-.2-1.44a138.41,138.41,0,0,0,14.84-4.74C69.67,97.36,56.15,82,56.15,82Z" style="fill:#005860"/><path d="M76.07,46.9l.72-2.44s3.59,1.88,5-.94,2.09-8.8-1.62-10.84S73.74,43.9,73.74,43.9Z" style="fill:#d39557"/><path d="M29.49,37.54s-10.32,1.09-8.82,6S35.87,82,35.87,82s14.83,1.88,20.28,0c-1.69-14.83-3.37-28.66-3.37-28.66l13.5,17.4,10.51-22.9-3.94-5.07s-7.13,13.33-7.51,12.76S52.78,35.81,52.78,35.81l-4-.18Z" style="fill:#13a367"/><rect x="73.74" y="38.75" width="3.56" height="159.02" style="fill:#292e3d"/><path d="M54,1.23s5.9,13,3.38,24.27c-11.6-.28-15.27-.64-15.27-.64l1.82,10.77h4.9L47,51,29.49,37.54l9.23-1.77L35.78,10.18S44.73-4.22,54,1.23Z" style="fill:#ecb579"/><polygon points="15.87 187.44 0 196.92 20.52 193.83 18.96 189.6 15.87 187.44" style="fill:#005860"/><polygon points="34.83 187.23 32.42 194.44 55.03 196.92 38.34 189.6 34.83 187.23" style="fill:#005860"/><path d="M26.87,40.54S46,57.9,45.85,57.41,65.49,42,65.49,42l3.24,3.57L46.66,68.94,26.05,54.66" style="fill:#13a367"/><path d="M68.73,45.57c-3.51,4-7.13,8-10.74,12L52.51,63.4c-1.82,2-3.65,3.92-5.51,5.85l-.28.29-.32-.23C43,66.9,39.55,64.53,36.17,62.07s-6.78-4.9-10.12-7.41c3.54,2.24,7,4.53,10.5,6.86s6.92,4.69,10.37,7l-.59.06c1.82-2,3.67-3.9,5.52-5.84L57.41,57C61.16,53.15,64.9,49.31,68.73,45.57Z" style="fill:#0e7244"/><path d="M26.87,40.54c3.24,2.67,6.42,5.42,9.6,8.17s6.3,5.6,9.49,8.22L46,57h0a.29.29,0,0,0-.1,0c-.06,0,.08,0-.16,0-.54,0-.38.9-.4.58a.48.48,0,0,1,0-.29.53.53,0,0,1,.08-.16.85.85,0,0,1,.1-.13c.11-.12.21-.21.31-.31l.61-.53,1.23-1,2.48-2c1.67-1.28,3.32-2.58,5-3.82,3.38-2.5,6.78-5,10.25-7.34-3.23,2.69-6.52,5.3-9.8,7.93l-4.93,3.91-2.44,2-1.2,1-.57.51-.25.24s0,.05,0,0,0,0,0-.08a.33.33,0,0,0,0-.24c0-.31.14.57-.41.61-.24,0-.11,0-.18,0l-.14-.05,0,0-.06,0-.09-.07c-1.67-1.37-3.19-2.78-4.76-4.19S37.5,50.7,36,49.25C32.9,46.39,29.85,43.5,26.87,40.54Z" style="fill:#0e7244"/><polygon points="81.63 46.9 83.9 51.01 82.77 51.59 80.27 47.84 81.63 46.9" style="fill:#292e3d"/><polygon points="82.34 46.9 74.14 25.86 67.7 29.27 80.01 48.44 82.34 46.9" style="fill:#292e3d"/><path d="M68.17,44.94l2.29-1.64a11,11,0,0,0,6.73-1.67,29.93,29.93,0,0,0,4.13-3s-.8-5.87-2-8S70.79,34,70.79,34l-1.3-2a10.76,10.76,0,0,0-1.11,8.43l-2.21,2.26Z" style="fill:#ecb579"/><rect x="61.47" y="196.92" width="27.55" height="0.85" style="fill:#292e3d"/><path d="M74.46,23.9a5.61,5.61,0,1,1-5.61-5.61A5.61,5.61,0,0,1,74.46,23.9Z" style="fill:#292e3d"/><path d="M83,50.83s9.29,14.15,6.71,22-20,16.91-18.34,26.21,12.76,41.09,9.34,52.82-12.13,35.72-7,45" style="fill:none;stroke:#292e3d;stroke-miterlimit:10;stroke-width:0.573576px"/><path d="M94.92,196.92l15.88-58.06h56.27L194.59,156a9.43,9.43,0,0,1,4.07,10.69l-8.94,30.28Z" style="fill:#292e3d"/><path d="M112.86,140.67l9.75,4.91,9.71,5c3.25,1.65,6.45,3.37,9.68,5.05l9.67,5.08-.23-.06,10.67,0c3.56,0,7.11,0,10.67.07,7.11.08,14.22.17,21.34.37-7.12.19-14.23.29-21.34.36-3.56.06-7.11.05-10.67.07l-10.67,0h-.12l-.1-.05-9.63-5.15c-3.2-1.72-6.43-3.41-9.61-5.17L122.39,146Z" style="fill:#171a23"/><polygon points="151.91 161.22 143.78 195.87 150.97 161.01 151.91 161.22" style="fill:#171a23"/></g></g></svg>