<svg xmlns="http://www.w3.org/2000/svg" viewBox="0 0 37.82 38.22"><g id="Layer_2" data-name="Layer 2"><g id="OBJECTS"><path d="M33.24,14.85a26,26,0,0,0,4.58-5.73C28.46,2.55,11.26.45,6.09,0S-.34,3.25.07,11.92s3.5,22.93,5.18,25c5.59,1,22.65,1.82,28.38.84-2.1-3.49-3.22-11.32-3.22-11.32Z" style="fill:#e86153"/><path d="M29.93,8.17S29,13.43,24.8,16.05s-2.85.46-1.59-1.48c-4.22,3.87-4.89,6.61-10.82,7.52S11.81,10,11.81,10l11.85-4.9Z" style="fill:#e86153"/><path d="M17.23,21.36s-3.74-3.74-5.7,0a4.17,4.17,0,0,0,5.88,5.53" style="fill:#ecb579"/><path d="M29.49,21.11a15.06,15.06,0,0,1,.61,1.52l-.22-.13c.63-.23,1.27-.45,1.91-.63l.53-.16-.19.52a5.58,5.58,0,0,1-.59,1.17,3.14,3.14,0,0,1-1,1,1.71,1.71,0,0,1-1.36.13,1.42,1.42,0,0,1-.92-.9,1.48,1.48,0,0,0,1,.6,1.31,1.31,0,0,0,1-.24A4.69,4.69,0,0,0,31.61,22l.33.36c-.65.18-1.3.32-2,.45l-.19,0,0-.16C29.64,22.2,29.56,21.66,29.49,21.11Z" style="fill:#cc8a4a"/><path d="M13,22.75a2,2,0,0,1,1-.73,1.56,1.56,0,0,1,1.29.21,2.68,2.68,0,0,1,.87.94,6.38,6.38,0,0,1,.52,1.13l.2.49-.53-.13a5.23,5.23,0,0,0-.68-.18,1.77,1.77,0,0,0-.63-.06c-.09,0-.14,0-.16.11a.56.56,0,0,0,0,.28,2.53,2.53,0,0,0,.3.65,2,2,0,0,1-.51-.56.68.68,0,0,1-.11-.43.5.5,0,0,1,.34-.39,3.06,3.06,0,0,1,1.57.05l-.32.36a10.85,10.85,0,0,0-.49-1,3.05,3.05,0,0,0-.67-.83,1.25,1.25,0,0,0-.95-.29A2.29,2.29,0,0,0,13,22.75Z" style="fill:#cc8a4a"/><path d="M30.66,27.27s-7.42-4.82-10-6.24C18.85,26.75,22.56,32.5,30.66,27.27Z" style="fill:#292e3d"/><path d="M20.24,23.59l7.53,3.25.59-1.05c-2.4-1.54-6-3.85-7.67-4.76A9,9,0,0,0,20.24,23.59Z" style="fill:#fff"/><ellipse cx="26.79" cy="20.26" rx="0.55" ry="0.85" style="fill:#292e3d"/><path d="M31.21,20.55c0,.47-.24.86-.55.86s-.54-.39-.54-.86.24-.85.54-.85S31.21,20.08,31.21,20.55Z" style="fill:#292e3d"/><path d="M28.3,16.89c-.78.12-1.4.14-2,.24a5,5,0,0,0-.84.23,7.84,7.84,0,0,0-.92.46,1.58,1.58,0,0,1,.5-1.08,2.21,2.21,0,0,1,1.1-.55,2.56,2.56,0,0,1,1.17.09A2,2,0,0,1,28.3,16.89Z" style="fill:#292e3d"/><path d="M30.12,17.22a1,1,0,0,1,.64-.62,1.42,1.42,0,0,1,.91,0,1.49,1.49,0,0,1,1.08,1.26,5,5,0,0,1-.77-.17c-.22-.05-.4-.14-.59-.18A6.07,6.07,0,0,0,30.12,17.22Z" style="fill:#292e3d"/></g></g></svg>