<svg xmlns="http://www.w3.org/2000/svg" viewBox="0 0 23.2 24.26"><g id="Layer_2" data-name="Layer 2"><g id="OBJECTS"><path d="M21,3.47S19.77,8.66,15.39,11s-2.87.27-1.5-1.58C9.43,13,8.58,15.68,2.6,16.19S2.83,4.1,2.83,4.1L15,0Z" style="fill:#e86153"/><path d="M7.48,15.79s-3.48-4-5.69-.38a4.17,4.17,0,0,0,5.5,5.9" style="fill:#ecb579"/><path d="M19.73,16.35c.19.52.37,1,.51,1.56L20,17.77c.64-.19,1.29-.37,1.95-.51l.53-.12-.22.5a5.8,5.8,0,0,1-.67,1.13,3.14,3.14,0,0,1-1,.9,1.75,1.75,0,0,1-1.38,0,1.42,1.42,0,0,1-.85-1,1.51,1.51,0,0,0,.95.67,1.37,1.37,0,0,0,1-.18,4.78,4.78,0,0,0,1.41-1.82l.31.38c-.66.13-1.32.24-2,.32l-.19,0,0-.16C19.81,17.44,19.76,16.9,19.73,16.35Z" style="fill:#cc8a4a"/><path d="M3.12,16.89a1.87,1.87,0,0,1,1-.66,1.55,1.55,0,0,1,1.28.29,2.78,2.78,0,0,1,.81,1,7.09,7.09,0,0,1,.44,1.16l.16.51L6.33,19c-.23-.07-.45-.16-.67-.21A1.48,1.48,0,0,0,5,18.7c-.09,0-.14,0-.16.09a.51.51,0,0,0,0,.28,2.9,2.9,0,0,0,.26.67,2,2,0,0,1-.47-.6.66.66,0,0,1-.08-.43.5.5,0,0,1,.36-.37,3.12,3.12,0,0,1,1.57.15l-.35.34a8.84,8.84,0,0,0-.42-1,3,3,0,0,0-.61-.87,1.27,1.27,0,0,0-.93-.36A2.28,2.28,0,0,0,3.12,16.89Z" style="fill:#cc8a4a"/><path d="M20.49,22.58s-7.08-5.3-9.53-6.89C8.74,21.27,12.06,27.25,20.49,22.58Z" style="fill:#292e3d"/><path d="M10.33,18.21,17.64,22l.65-1C16,19.25,12.53,16.71,11,15.69A9.13,9.13,0,0,0,10.33,18.21Z" style="fill:#fff"/><ellipse cx="17.09" cy="15.32" rx="0.85" ry="0.55" transform="translate(0.67 31.36) rotate(-86.2)" style="fill:#292e3d"/><path d="M21.48,15.91c0,.47-.3.83-.6.81s-.52-.41-.49-.88.3-.84.61-.82S21.52,15.44,21.48,15.91Z" style="fill:#292e3d"/><path d="M18.82,12.06c-.78.07-1.41,0-2,.11a5.12,5.12,0,0,0-.85.17,6.79,6.79,0,0,0-1,.4,1.58,1.58,0,0,1,.57-1,2.13,2.13,0,0,1,1.13-.48,2.55,2.55,0,0,1,1.17.17A2,2,0,0,1,18.82,12.06Z" style="fill:#292e3d"/><path d="M20.61,12.51a1,1,0,0,1,.69-.58,1.57,1.57,0,0,1,.91,0,1.51,1.51,0,0,1,1,1.33,3.86,3.86,0,0,1-.76-.22c-.21-.07-.39-.16-.57-.21A5.62,5.62,0,0,0,20.61,12.51Z" style="fill:#292e3d"/></g></g></svg>