<svg xmlns="http://www.w3.org/2000/svg" viewBox="0 0 151.82 158.01"><g id="Layer_2" data-name="Layer 2"><g id="OBJECTS"><path d="M86.6,68.94l-25.67,78.9,4.58,5L90.36,89.68l13.8,1.72-7,28.44L108.5,150l6.82,4.37-8.6-34.52,10.4-25.14s4.51-12.79,1.82-23.68S86.6,68.94,86.6,68.94Z" style="fill:#292e3d"/><polygon points="58.45 16.36 58.45 0 80.45 1.2 79.92 16.36 58.45 16.36" style="fill:#edc475"/><polygon points="50.71 36.53 49.11 16.54 90.32 15.74 88.85 36.53 50.71 36.53" style="fill:#e86153"/><polygon points="41.62 60.13 39.6 36.92 102.65 34.7 101.24 60.13 41.62 60.13" style="fill:#c3e1de"/><rect y="60.13" width="151.82" height="3.35" style="fill:#e86153"/><rect x="7.85" y="63.47" width="4.31" height="94.54" style="fill:#292e3d"/><rect x="138.55" y="63.47" width="4.31" height="94.54" style="fill:#292e3d"/><line x1="40.17" y1="43.41" x2="102.2" y2="42.83" style="fill:none;stroke:#e86153;stroke-linecap:round;stroke-linejoin:round;stroke-width:1.1916300000000002px"/><line x1="40.71" y1="49.61" x2="101.83" y2="49.61" style="fill:none;stroke:#e86153;stroke-linecap:round;stroke-linejoin:round;stroke-width:1.1916300000000002px"/><polygon points="60.93 147.84 36.57 155.62 65.51 155.62 65.51 152.89 60.93 147.84" style="fill:#e86153"/><polygon points="108.5 149.99 84.31 156.19 115.41 157.2 115.32 154.36 108.5 149.99" style="fill:#e86153"/></g></g></svg>