<svg xmlns="http://www.w3.org/2000/svg" viewBox="0 0 66.62 62.31"><g id="Layer_2" data-name="Layer 2"><g id="OBJECTS"><path d="M51.36,19s-3.22,2-3.11,3.78S51.36,24,51.36,24Z" style="fill:#c68244"/><path d="M65.63,40.91l-3-2.09L43.85,13.73s1.76-2.31,3.19-2.42c1.43,3.53,17.27,25.53,17.27,25.53l2.31,4.07Z" style="fill:#a8e2db"/><path d="M52.92,15.72s-3.13,6.38-3.24,7.37,2.75,5.72,4.07,6.16,8.91-3.19,8.91-3.19,1.87-1.65-1.21-5.83S55.27,13,52.92,15.72Z" style="fill:#c68244"/><polyline points="0 19.59 24.28 44.49 30.84 17.33 36.6 18.98 31.42 62.31 1.73 38.97" style="fill:#0192cf"/><polygon points="32.82 10.06 25.36 6.75 27.28 1.84 22.3 0 18.88 12.23 23.33 14.79 24.85 9.83 32.36 12.8 32.82 10.06" style="fill:#a8e2db"/><path d="M31.58,17.72l-3-6.64S31,6.63,34.81,6.63s6.74,3.91,6.74,3.91.16,6.78-3.1,4.62c-1,.88-3.39,3.56-3.39,3.56Z" style="fill:#c68244"/><polygon points="0 19.59 12.71 31.47 25.38 43.39 24.95 43.52 30.52 17.26 30.59 16.92 30.94 17.01 36.69 18.65 36.99 18.73 36.94 19.04 29.91 60.95 29.83 61.41 29.47 61.12 15.57 50.08 1.73 38.97 15.79 49.8 29.81 60.69 29.37 60.86 36.26 18.92 36.51 19.31 30.75 17.65 31.17 17.4 25.46 43.63 25.36 44.08 25.03 43.76 12.49 31.7 0 19.59" style="fill:#00698e"/><polygon points="38.86 12.67 37.89 15.7 43.85 18.98 45.42 15.83 38.86 12.67" style="fill:#a8e2db"/></g></g></svg>