<svg xmlns="http://www.w3.org/2000/svg" viewBox="0 0 82.98 124.23"><g id="Layer_2" data-name="Layer 2"><g id="OBJECTS"><path d="M40.65,22.41c-.3-.18-10.69,14.71-12.08,20.42s15.09,6.09,15.09,6.09L40,54.76l6.54.74L60.73,32.1Z" style="fill:#c68244"/><path d="M55.41,27.84c-.22,0-3.43,8.82-3.43,8.82l3.43,4.2,6.25-9.37Z" style="fill:#0f1219"/><path d="M59.75,34.35,40.65,22.41l7.06-10.7s-6.32-3.35-1-5.63c-3-3.19.67-11.41,16.63-.91C67.82-.76,81.4,6.54,76.11,15.51c2.35-2.13,1.2,2.29,1.2,2.29s8.8,2.58,4.48,9-10.64-3.35-10.64-3.35Z" style="fill:#fff"/><path d="M69.32,69.82,47.88,55.5l1.82-2.41-8-3.23L39.4,52.94,28.48,46.85,0,61l1.16,9.89,19.62-9.74L3,112s2.66,4.87,6,7.46l3.49-5.48L11,120.63s21.61,6.09,30.92,2.44l1.83-18.41,11.69-.76S66,82.91,69.32,69.82Z" style="fill:#fff"/><path d="M54.18,73.43c-.42,1.76-.93,3.5-1.46,5.23S51.59,82.1,51,83.81s-1.27,3.4-2,5a21.87,21.87,0,0,1-2.65,4.75,17.08,17.08,0,0,0,1.21-2.42c.37-.82.69-1.66,1-2.5.64-1.68,1.27-3.38,1.87-5.08l1.85-5.1C52.91,76.82,53.52,75.12,54.18,73.43Z" style="fill:#c2cece"/><path d="M44.6,93.7a1.51,1.51,0,0,1,.78-.38,1.13,1.13,0,0,1,.86.24,1.9,1.9,0,0,1,.55.72,4.81,4.81,0,0,1,.32.82L46.8,95a1.87,1.87,0,0,1,1.6-.19A2.06,2.06,0,0,1,49.48,96a12.06,12.06,0,0,1,.46,2.91c.17,1.92.3,3.85.32,5.78-.37-1.9-.65-3.8-.88-5.71a14.07,14.07,0,0,0-.44-2.77,1.6,1.6,0,0,0-.74-.93,1.55,1.55,0,0,0-1.19.06l-.26.12,0-.25a3,3,0,0,0-.63-1.44,1,1,0,0,0-.68-.3A1.55,1.55,0,0,0,44.6,93.7Z" style="fill:#c2cece"/><path d="M25.22,71.59s8.92-8.29,13.52-4S44.6,79.06,44.6,79.06L25.22,75.41Z" style="fill:#c3e1de"/><polygon points="16.34 73.84 11.26 75.41 11.26 77.07 18.61 76.73 16.34 73.84" style="fill:#ccc"/><path d="M44.6,93.7a13.08,13.08,0,0,1-4,11.87c-10-9-17-23.73-17-23.73s-6.14-1.59-8.25-5.2S26.94,68.8,26.94,68.8l.19,10.5Z" style="fill:#c68244"/><path d="M11.26,75.41s-3.63-.33-6.35,3.65a1.92,1.92,0,0,0,3.18,0l3.17-2Z" style="fill:#c3e1de"/><path d="M52.86,39.7s5.82-1.37,6,1.52-4,6.24-6,3.2S52.86,39.7,52.86,39.7Z" style="fill:#c68244"/><path d="M37.47,36.2a2.58,2.58,0,0,0-1.83-.26,1.21,1.21,0,0,0-.63.57,2.52,2.52,0,0,0-.17.41.7.7,0,0,0,0,.38A3.06,3.06,0,0,0,36,38.61a12.08,12.08,0,0,0,1.64,1,14.42,14.42,0,0,0,3.61,1.19c1.44.5,1.67-1.22,1-2.25l.15.08c-1,0-2-.09-3.06-.17,1-.08,2-.14,3.06-.17h.09l.05.09a2.57,2.57,0,0,1,.44,2,1.73,1.73,0,0,1-.25.51,1.9,1.9,0,0,1-.2.22.92.92,0,0,1-.3.17,2.65,2.65,0,0,1-1.08,0,12,12,0,0,1-3.78-1.23,11.15,11.15,0,0,1-1.71-1,3.13,3.13,0,0,1-1.27-1.63,1.19,1.19,0,0,1,0-.59,3.48,3.48,0,0,1,.24-.47,1.37,1.37,0,0,1,.84-.63A2.53,2.53,0,0,1,37.47,36.2Z" style="fill:#a56028"/><path d="M35.91,42.5a14.74,14.74,0,0,0,2.53,1.09,10.07,10.07,0,0,0,2.64.49,7,7,0,0,0,2.64-.35,9.59,9.59,0,0,0,2.43-1.23,6.39,6.39,0,0,1-2.27,1.66,6.21,6.21,0,0,1-2.82.52A7.81,7.81,0,0,1,38.28,44,8.07,8.07,0,0,1,35.91,42.5Z" style="fill:#a56028"/><path d="M56.82,41.9a2.82,2.82,0,0,0-1.09-.78A2.4,2.4,0,0,0,54.49,41a3.85,3.85,0,0,0-1.21.41,10.7,10.7,0,0,0-1.14.71L52,41.64a2.77,2.77,0,0,1,.67.22.88.88,0,0,1,.56.57.74.74,0,0,1-.33.68,2.15,2.15,0,0,1-.58.34,4.81,4.81,0,0,0,.44-.47c.12-.17.19-.37.14-.47s-.21-.19-.39-.24-.39-.07-.59-.11l-.56-.1.43-.36a7.76,7.76,0,0,1,1.2-.83,3.83,3.83,0,0,1,1.43-.42,2.45,2.45,0,0,1,1.45.35A2.26,2.26,0,0,1,56.82,41.9Z" style="fill:#a56028"/><path d="M43.57,35.24c-.34.59-.85,1-1.13.82s-.25-.73.09-1.32.84-1,1.13-.82S43.91,34.65,43.57,35.24Z" style="fill:#0f1219"/><path d="M40.08,33.4c-.34.59-.85,1-1.14.82s-.24-.73.09-1.32.85-1,1.14-.82S40.42,32.81,40.08,33.4Z" style="fill:#0f1219"/><path d="M44.6,30.27a4.41,4.41,0,0,1,3.22,3.41" style="fill:none;stroke:#0f1219;stroke-miterlimit:10;stroke-width:0.595818px"/><path d="M42.88,29.85a3.57,3.57,0,0,0-3-.58" style="fill:none;stroke:#0f1219;stroke-miterlimit:10;stroke-width:0.595818px"/><path d="M50,11.64a19.63,19.63,0,0,0,2.3.71,10.87,10.87,0,0,0,2.32.31,6.39,6.39,0,0,0,2.26-.38,6.41,6.41,0,0,0,2-1.32,4.51,4.51,0,0,1-1.76,1.73,5.22,5.22,0,0,1-2.45.57,7.72,7.72,0,0,1-2.45-.47A8.2,8.2,0,0,1,50,11.64Z" style="fill:#c2cece"/><path d="M61.81,13.81a15.22,15.22,0,0,0,1.31,2.08,8.78,8.78,0,0,0,1.69,1.7,5.11,5.11,0,0,0,2.11.92,5.55,5.55,0,0,0,2.32-.18l.6-.13-.31.48a2.37,2.37,0,0,0-.42,1.6,2.59,2.59,0,0,0,.81,1.54,2.47,2.47,0,0,1-1.11-1.48,2.31,2.31,0,0,1,0-1,3.24,3.24,0,0,1,.32-.92l.29.35a5.21,5.21,0,0,1-2.57.29,5.11,5.11,0,0,1-2.36-1,7.39,7.39,0,0,1-1.65-1.93A8.51,8.51,0,0,1,61.81,13.81Z" style="fill:#c2cece"/></g></g></svg>