<svg xmlns="http://www.w3.org/2000/svg" viewBox="0 0 21.61 31.03"><g id="Layer_2" data-name="Layer 2"><g id="OBJECTS"><path d="M19.21,3.76c-3-6-19.92-4-19.14.07.65,3.35,2.55,13.75,3.2,17.3l3.24-4.57s-.66-5.51-1.15-10.5C12.88,4,17.32,3.73,19.21,3.76Z" style="fill:#0f1219"/><path d="M5.06,21.29S3.62,17.85,1,19s.53,7.43,2.89,6A2.74,2.74,0,0,0,5.06,21.29Z" style="fill:#c68244"/><path d="M17.09,17.15c.78,1.52,1.52,3.05,2.24,4.6s1.42,3.09,2.11,4.64l.17.4-.43.08a26.1,26.1,0,0,1-3.64.37,12.52,12.52,0,0,1-3.69-.34,3.09,3.09,0,0,1-1.65-1,1.72,1.72,0,0,1-.32-1,1.33,1.33,0,0,1,.23-1,1.14,1.14,0,0,1,1-.37,3.11,3.11,0,0,1,.92.15,7.59,7.59,0,0,1,1.69.69,12.08,12.08,0,0,0-1.73-.49c-.56-.08-1.25-.12-1.53.25a1,1,0,0,0-.1.72,1.38,1.38,0,0,0,.29.71,2.55,2.55,0,0,0,1.41.75,12.75,12.75,0,0,0,3.5.24,32.09,32.09,0,0,0,3.55-.36l-.25.47c-.66-1.56-1.3-3.14-1.92-4.72S17.66,18.76,17.09,17.15Z" style="fill:#a56028"/><path d="M1.73,21.13a1.1,1.1,0,0,1,.19-.56.67.67,0,0,1,.62-.32A1.74,1.74,0,0,1,3.61,21a7.3,7.3,0,0,1,1.1,2l.29.77-.72-.36-.44-.21a1.07,1.07,0,0,0-.27-.06s-.09.21-.08.37a3.58,3.58,0,0,0,.09.54,2,2,0,0,1-.32-.48.72.72,0,0,1,0-.68A.72.72,0,0,1,4,22.66a2.61,2.61,0,0,1,.58.17l-.42.41c-.19-.32-.32-.66-.51-1s-.34-.63-.52-.93a1.78,1.78,0,0,0-.63-.67C2.26,20.56,1.93,20.81,1.73,21.13Z" style="fill:#a56028"/><path d="M16.6,30.92a6.32,6.32,0,0,1-3.76-.46,6.15,6.15,0,0,1-1.64-1A5.22,5.22,0,0,1,10,28a17.35,17.35,0,0,0,3.16,1.81A19.12,19.12,0,0,0,16.6,30.92Z" style="fill:#a56028"/><path d="M15.54,17.84c0,.5-.26.91-.57.91s-.56-.41-.56-.91.25-.91.56-.91S15.54,17.33,15.54,17.84Z" style="fill:#0f1219"/><path d="M19.21,17.84c0,.5-.26.91-.57.91s-.56-.41-.56-.91.25-.91.56-.91S19.21,17.33,19.21,17.84Z" style="fill:#0f1219"/><path d="M15.92,13.29s-1.41-1-3.39.93" style="fill:none;stroke:#0f1219;stroke-miterlimit:10;stroke-width:0.706768px"/><path d="M18.08,13.62a2.29,2.29,0,0,1,3,.6" style="fill:none;stroke:#0f1219;stroke-miterlimit:10;stroke-width:0.706768px"/></g></g></svg>