<svg xmlns="http://www.w3.org/2000/svg" viewBox="0 0 7.91 9.43"><g id="Layer_2" data-name="Layer 2"><g id="OBJECTS"><path d="M2.87,7.64a1.53,1.53,0,1,1-.61-2.07A1.53,1.53,0,0,1,2.87,7.64Z" style="fill:#263238"/><path d="M2.92,7.09a8.62,8.62,0,0,1-.44-3.54A14.56,14.56,0,0,1,2.72,0,10.44,10.44,0,0,1,3,3.55,20.66,20.66,0,0,1,2.92,7.09Z" style="fill:#263238"/><path d="M7.57,1a3.51,3.51,0,0,1-2.63.51A3.62,3.62,0,0,1,3.12.79C2.72.47,2.61.15,2.67.12s.26.16.66.36A4.68,4.68,0,0,0,5,1C6.38,1.12,7.53.82,7.57,1Z" style="fill:#263238"/><path d="M7.72,8.63A1.53,1.53,0,1,1,7.1,6.56,1.53,1.53,0,0,1,7.72,8.63Z" style="fill:#263238"/><path d="M7.77,8.07a8.54,8.54,0,0,1-.44-3.54A14.7,14.7,0,0,1,7.57,1a10.48,10.48,0,0,1,.29,3.55A20.66,20.66,0,0,1,7.77,8.07Z" style="fill:#263238"/><path d="M7.61,2a3.08,3.08,0,0,1-2.44.61,3,3,0,0,1-2.31-1c.07-.13,1.05.35,2.35.43S7.55,1.88,7.61,2Z" style="fill:#263238"/></g></g></svg>