<svg xmlns="http://www.w3.org/2000/svg" viewBox="0 0 156.02 210.84"><g id="Layer_2" data-name="Layer 2"><g id="OBJECTS"><polygon points="75.84 124.32 62.64 200.19 56.26 204.34 58.64 119.22 25.57 204.34 20.61 200.19 40.86 112.58 65.36 107.07 77.84 110.35 75.84 124.32" style="fill:#0f1219"/><path d="M43.36,45.84S34,50.29,31.68,53.06s16.86,47.77,16.86,47.77-3.49-1.63-2.33,1.63c-2.32,4-5.35,10.12-5.35,10.12s28.26,2.39,37-2.23c.46-12.66.58-22.08.58-22.08l-4.5-22.56s1.36,4,7.64,5.47c3.14-3.49,8.14-9,8.14-9l-.58-7.32-9.07,1.62L68.66,37.45l-8.07,2-5.12,6.35Z" style="fill:#0192cf"/><path d="M69.35,3.83s2.24,11.29,3.81,19.43.92,12.08-3.81,12.34-11.81-1.45-11.81-1.45l-.66,6.57,4.33-1.44L59.38,53.06l-16-7.22,8.53-3.55L53.6,22.34S51,7.9,50.19,3.83,66.47-2.21,69.35,3.83Z" style="fill:#c68244"/><path d="M83.69,124.32,92,83.46l11.38-9.08,1.87-8.52-1.87-21.08,8-11.44S108.43,31.06,108,30s0-2.93,6.29-1.47,23.06,8,23.06,8v7.13l-8.6,13.87s5.66-3.37,5,2.07S126.66,64,126.66,64l-5,12.2L147,87.45l1.05,36.87H85" style="fill:#edc475"/><path d="M115.87,49.29c-.58.92-1.17,1.82-1.8,2.7s-1.24,1.78-1.88,2.64c-1.29,1.74-2.6,3.46-4,5.13l-.24-.48,2.7.11c.89,0,1.79.1,2.69.19-.9.08-1.8.14-2.69.19l-2.7.11-.61,0,.37-.51c1.26-1.75,2.58-3.46,3.92-5.15.67-.85,1.37-1.68,2.06-2.51S115.14,50.09,115.87,49.29Z" style="fill:#d3a357"/><path d="M119.37,62.75a9.39,9.39,0,0,1-1.79,2.14,8.12,8.12,0,0,1-2.4,1.53,4.85,4.85,0,0,1-2.87.27,4.37,4.37,0,0,1-2.32-1.6,5.73,5.73,0,0,0,2.42,1.06,5.29,5.29,0,0,0,2.51-.39,10.65,10.65,0,0,0,2.32-1.3C118,63.93,118.68,63.37,119.37,62.75Z" style="fill:#d3a357"/><path d="M109.32,71.26a5.18,5.18,0,0,0,.32,3.22,4.84,4.84,0,0,0,1,1.27c.19.2.42.35.63.55s.47.33.7.53a7.48,7.48,0,0,1-.87-.23,5.57,5.57,0,0,1-.8-.42A3.73,3.73,0,0,1,109,74.79,3.45,3.45,0,0,1,109.32,71.26Z" style="fill:#d3a357"/><path d="M112.77,33.47c3.14,1.08,6.23,2.25,9.33,3.43s6.18,2.39,9.24,3.64l.33.14-.14.32-2.63,6.08c-.91,2-1.8,4-2.72,6V53c.45,1.09.9,2.17,1.33,3.27-.55-1-1.06-2.1-1.59-3.15l0,0,0-.07c.79-2.06,1.63-4.1,2.45-6.15l2.54-6.12.19.45C128,40,125,38.69,121.89,37.43S115.79,34.85,112.77,33.47Z" style="fill:#d3a357"/><polygon points="62.64 200.19 83.69 209.4 55.67 207.61 56.26 204.34 62.64 200.19" style="fill:#e86153"/><polygon points="20.61 200.19 0 209.4 25.57 209.4 25.57 204.34 20.61 200.19" style="fill:#e86153"/><rect x="77.73" y="123.02" width="78.29" height="5.48" style="fill:#e86153"/><rect x="82.21" y="128.5" width="65.84" height="82.33" style="fill:#ed3d4c"/></g></g></svg>