<svg xmlns="http://www.w3.org/2000/svg" viewBox="0 0 276.65 142.59"><g id="Layer_2" data-name="Layer 2"><g id="OBJECTS"><path d="M136.89,51.45a15.22,15.22,0,0,0-2.83-6.34,5.88,5.88,0,0,0-3.46-1.59,1.42,1.42,0,0,0-.68,0c-.61.2-.79,1-.86,1.61-.46,4.83.32,9.68,1.14,14.46a23.53,23.53,0,0,0,2.38,8c.68,1.18,1.87,2.36,3.21,2.11a2.63,2.63,0,0,0,1.8-1.62A7.12,7.12,0,0,0,138,65.6,61.05,61.05,0,0,0,136.89,51.45Z" style="fill:#3e755a"/><path d="M150.83,55.16a22.12,22.12,0,0,0-.2-2.29,8,8,0,0,0-.66-2.24c-4.11-8.71-20.31-7.53-32.43-6.46-16,1.42-31.91,2.91-48,3.88-4.92.3-43.23,1.16-69.57,1.39v33c15.78-.4,31.51-1.35,47.12-2.67a446.9,446.9,0,0,0,64.4-10q10.37-2.44,21.1-4.37c3.35-.59,6.42-.92,9.15-2.11a36,36,0,0,0,7.12-4.4,5.77,5.77,0,0,0,1.6-1.54A3.56,3.56,0,0,0,150.83,55.16Z" style="fill:#eeb799"/><path d="M26.24,77.44c11.51-.65,22.84-2,34.27-3,10.75-1,21.43-2,32-3.35,5.8-.75,13.14-1.86,16.72-4.77,1.86-1.49,2.07-3.3.48-4.89a16.94,16.94,0,0,0-8.32-4.12c-7.94-1.77-17.08-1.5-25.47-1.72-4.67-.12-9.2-.55-13.83-.92-5.51-.44-11.05-.76-16.6-1C34,53.18,22.37,53,10.78,52.77Q5.38,52.68,0,52.7V78.15C8.76,78.15,17.51,77.94,26.24,77.44Z" style="fill:none"/><path d="M150.83,55.16a22.12,22.12,0,0,0-.2-2.29,8,8,0,0,0-.66-2.24c-4.11-8.71-20.31-7.53-32.43-6.46-16,1.42-31.91,2.91-48,3.88-4.92.3-43.23,1.16-69.57,1.39V52.7q5.39,0,10.78.07c11.59.21,23.18.41,34.75.92,5.55.25,11.09.57,16.6,1,4.63.37,9.16.8,13.83.92,8.39.22,17.53,0,25.47,1.72a16.94,16.94,0,0,1,8.32,4.12c1.59,1.59,1.38,3.4-.48,4.89-3.58,2.91-10.92,4-16.72,4.77-10.61,1.36-21.29,2.4-32,3.35-11.43,1-22.76,2.32-34.27,3-8.73.5-17.48.71-26.24.71V82.4c15.78-.4,31.51-1.35,47.12-2.67a446.9,446.9,0,0,0,64.4-10q10.37-2.44,21.1-4.37c3.35-.59,6.42-.92,9.15-2.11a36,36,0,0,0,7.12-4.4,5.77,5.77,0,0,0,1.6-1.54A3.56,3.56,0,0,0,150.83,55.16Z" style="fill:#e3a17d"/><path d="M276.42,41.92a3.67,3.67,0,0,0-3.2-2,9.62,9.62,0,0,0-3.87.77c-6.66,2.38-12.91,6-19.81,7.46a60.82,60.82,0,0,1-11.43,1.11q-5.88.15-11.75,0c11.75-1,23.45-3,34.35-7.73,4.43-1.92,8.92-3.87,12.69-6.89,1.36-1.09,2.72-2.55,2.62-4.29s-1.87-3.21-3.67-3.52a12.38,12.38,0,0,0-5.4.73l-12.44,3.61c-5.58,1.62-10.84,3.43-16.63,4.21-1.35.18-2.72.33-4.08.46a92.18,92.18,0,0,1-13.5.19A19.46,19.46,0,0,1,224,34.82c4.14-1.39,8.36-2.59,12.36-4.37a80.35,80.35,0,0,0,15.26-8.85c3-2.21,5.93-4.73,7.57-8.08,1-2.06,1.38-4.83-.27-6.43a4.61,4.61,0,0,0-4-1,12.08,12.08,0,0,0-3.93,1.76c-4.17,2.54-8.19,5.65-12.8,7.37s-8.94,3.82-13.48,5.55a89.9,89.9,0,0,1-19.94,4.79c-4.13.56-10.1,1.72-14-.49-4.23-2.4.7-6.4,3.08-8.27,3.28-2.57,7.2-4.83,7.28-9.61A7.93,7.93,0,0,0,198.18,1a3.46,3.46,0,0,0-3.46-.78,4.64,4.64,0,0,0-1.06.82c-7.54,7.17-19.28,8-25.49,17.3a63.87,63.87,0,0,0-3.2,5.94c-2.37,4.58-5.18,9.12-9,12.62-3.58,3.24-9,4.49-13.63,5.22q-6.06,1-12.18,1.45c1.7,1.79,2.13,3.6,2.92,5.92s1.51,4.7,2.19,7.08a34.79,34.79,0,0,1,.63,13.1c0,.37,5.79-1.81,6.3-2,2.46-.78,5-1.45,7.41-2.36,2.11-.8,4-2,6.29-2.36a18.84,18.84,0,0,1,6.07.37c3.28.57,6.56,1.2,9.81,1.93,2.81.63,5.39,2,8.2,2.72,7.37,1.72,14.89,2.54,22.27,4.06,10.09,2.08,20,1.82,30.24,1.3,5.79-.3,11.58-.79,17.31-1.64,3.88-.58,7.89-1.39,11-3.72a3,3,0,0,0,0-5.06c-1.2-.76-2.74-.6-4.15-.43a145.93,145.93,0,0,1-20.7.57c-2-.05-4.09-.08-6.14-.11.52-.05,1.05-.09,1.57-.12a81.76,81.76,0,0,0,9.24-1.12c.92-.16,1.84-.35,2.76-.54A86.29,86.29,0,0,0,265.67,53c3.44-1.83,7.64-3.92,9.94-7.13A4.21,4.21,0,0,0,276.42,41.92Z" style="fill:#77bd9c"/><path d="M166.23,63.46a27.28,27.28,0,0,0-.07-4.52c-.2-1.85-.68-5.51-3-5.84-1.79-.24-2.58,1.81-3.84,2.67-1.43,1-3.77.63-5.19-.19s-2.48-3.59-4.44-2.91a5,5,0,0,0-2.28,2.2,8.18,8.18,0,0,0-1,3.24A39.87,39.87,0,0,1,145.07,65c-.24.71-.52,1.4-.82,2.08,1.79-.54,3.6-1.08,5.34-1.73,2.11-.8,4-2,6.29-2.36a18.84,18.84,0,0,1,6.07.37c1.41.24,2.83.51,4.24.78C166.2,63.89,166.22,63.67,166.23,63.46Z" style="fill:#7dc7a4"/><path d="M276.42,41.92a3.67,3.67,0,0,0-3.2-2,9.62,9.62,0,0,0-3.87.77c-6.66,2.38-12.91,6-19.81,7.46a60.82,60.82,0,0,1-11.43,1.11q-5.88.15-11.75,0c11.75-1,23.45-3,34.35-7.73,4.43-1.92,8.92-3.87,12.69-6.89,1.36-1.09,2.72-2.55,2.62-4.29s-1.87-3.21-3.67-3.52a12.38,12.38,0,0,0-5.4.73l-12.44,3.61c-5.58,1.62-10.84,3.43-16.63,4.21-1.35.18-2.72.33-4.08.46a92.18,92.18,0,0,1-13.5.19A19.46,19.46,0,0,1,224,34.82c4.14-1.39,8.36-2.59,12.36-4.37a80.35,80.35,0,0,0,15.26-8.85c3-2.21,5.93-4.73,7.57-8.08,1-2.06,1.38-4.83-.27-6.43a4.61,4.61,0,0,0-4-1,12.08,12.08,0,0,0-3.93,1.76c-4.17,2.54-8.19,5.65-12.8,7.37s-8.94,3.82-13.48,5.55a89.9,89.9,0,0,1-19.94,4.79c-4.13.56-10.1,1.72-14-.49-4.23-2.4.7-6.4,3.08-8.27,3.28-2.57,7.2-4.83,7.28-9.61A7.93,7.93,0,0,0,198.18,1a3.46,3.46,0,0,0-3.46-.78,4.64,4.64,0,0,0-1.06.82c-7.54,7.17-19.28,8-25.49,17.3a63.87,63.87,0,0,0-3.2,5.94c-2.37,4.58-5.18,9.12-9,12.62-3.58,3.24-9,4.49-13.63,5.22q-6.06,1-12.18,1.45c1.7,1.79,2.13,3.6,2.92,5.92s1.51,4.7,2.19,7.08a34.79,34.79,0,0,1,.63,13.1c0,.13.63,0,1.5-.31.19-.34.38-.67.56-1a17.62,17.62,0,0,0,1.46-3.77,19.22,19.22,0,0,0,.42-4.66c0-2.26-.62-4.65,0-6.86a9.89,9.89,0,0,1,2.95-4.54,15,15,0,0,1,4.67-2.88c1.43-.56,3.38-1.19,4.86-.5,1.7.78,2.17,2.37,3.16,3.82.22.32.94,1.25,1.37.71.25-.32.09-1,0-1.4-.19-1.34-.58-2.64-.82-4-.15-.83-.46-2,.05-2.8a.15.15,0,0,1,.21,0,3,3,0,0,1,1.26,1.69c.32.83.69,2,1.76,2.07,1.31.12.7-2.93.7-3.67,0-1.94.9-5.63,3.51-5.23,1.21.19,1.86,1.64,2.28,2.64a27.78,27.78,0,0,1,1.36,4.29,46.13,46.13,0,0,1,1.12,6.51c.21,2.31,0,4.59,0,6.9a35.92,35.92,0,0,0,1.33,8.18c.71.15,1.42.29,2.12.45,2.81.63,5.39,2,8.2,2.72,7.37,1.72,14.89,2.54,22.27,4.06,10.09,2.08,20,1.82,30.24,1.3,5.79-.3,11.58-.79,17.31-1.64,3.88-.58,7.89-1.39,11-3.72a3,3,0,0,0,0-5.06c-1.2-.76-2.74-.6-4.15-.43a145.93,145.93,0,0,1-20.7.57c-2-.05-4.09-.08-6.14-.11.52-.05,1.05-.09,1.57-.12a81.76,81.76,0,0,0,9.24-1.12c.92-.16,1.84-.35,2.76-.54A86.29,86.29,0,0,0,265.67,53c3.44-1.83,7.64-3.92,9.94-7.13A4.21,4.21,0,0,0,276.42,41.92Z" style="fill:#599478"/><path d="M126.83,107.78a35.43,35.43,0,0,0-1.13-5.1,8.75,8.75,0,0,0-1.84-3.18c-.66-.68-2-2.08-3-1.22a2.23,2.23,0,0,0-.49.68,10.28,10.28,0,0,0-1.27,4.36,48,48,0,0,0,.2,5.23c.1,2.33.33,4.65.65,7q.18,1.3.39,2.61c.13.73.19,1.47.32,2.21a13.61,13.61,0,0,0,.91,3.12,4.06,4.06,0,0,0,.67,1.31c.26.25.81.59,1.18.42a.92.92,0,0,0,.3-.29,18,18,0,0,0,3.76-11.36A31.7,31.7,0,0,0,126.83,107.78Z" style="fill:#3e755a"/><path d="M131.73,99.59A58.86,58.86,0,0,0,115,98.83C87.51,101,37.73,103.65,0,104.6v38c30.86-3,61.39-9.11,89.56-16.2,2.69-.67,5.39-1.24,8.12-1.86,10.1-2.29,20.53-4.13,31.13-5.63,4.95-.7,8.31-1.35,11.38-3.7a8.53,8.53,0,0,0,3.57-5.29,5.19,5.19,0,0,0,0-1.42C143.27,104.63,138.4,101,131.73,99.59Z" style="fill:#eeb799"/><path d="M131.73,99.59A58.86,58.86,0,0,0,115,98.83C87.51,101,37.73,103.65,0,104.6V110c9.85-.47,19.6-1.41,29.32-2.37,9.38-.93,18.72-2,28.21-2.53s19.42-.79,28.68.61a30.39,30.39,0,0,1,10.66,3.4c7.07,4,6.48,8.78-2.11,12.09A70.88,70.88,0,0,1,81,124.4c-9.07,1.47-17.75,3.39-26.77,5-11.77,2.06-23.68,3.86-35.67,5.5-6,.81-12,1.49-18,2.21l-.56.07v5.44c30.86-3,61.39-9.11,89.56-16.2,2.69-.67,5.39-1.24,8.12-1.86,10.1-2.29,20.53-4.13,31.13-5.63,4.95-.7,8.31-1.35,11.38-3.7a8.53,8.53,0,0,0,3.57-5.29,5.19,5.19,0,0,0,0-1.42C143.27,104.63,138.4,101,131.73,99.59Z" style="fill:#f2ac86"/><path d="M262.34,96a3.64,3.64,0,0,0-3.18-1.94,9.55,9.55,0,0,0-3.81.81c-6.51,2.42-12.63,6-19.4,7.59a59.68,59.68,0,0,1-11.24,1.22q-5.91.22-11.83.18L210,103.8c12.72-1.89,25.38-4.72,36.83-10.77,4.2-2.22,8.46-4.47,11.93-7.72,1.25-1.18,2.47-2.72,2.24-4.42s-2.07-3-3.87-3.17a12.21,12.21,0,0,0-5.24,1.12c-4,1.49-7.86,3.21-11.8,4.82a77.07,77.07,0,0,1-15.91,5c-4.68.81-9.5.89-14.22,1.34l.93-.26c4.08-1.37,8.23-2.56,12.17-4.3a80.1,80.1,0,0,0,15-8.72,26.72,26.72,0,0,0,6.44-6.24,6.94,6.94,0,0,0,.52-4.34,4.86,4.86,0,0,0-.9-1.63c-.09-.1-.2-.19-.29-.29a6.72,6.72,0,0,0-4.51-1.46c-1.73.14-3.18,1.33-4.66,2.18a50.89,50.89,0,0,1-9.86,5.52c-4.46,1.67-8.8,3.76-13.27,5.46-6.71,2.55-14,3.59-21.06,4.69q-4.67.73-9.35,1.3c-.74.09-6.34,2-6.34,1.22V61.35c-5.52,2.82-15.37,6.85-18.86,12.13a60.9,60.9,0,0,0-3.15,5.85c-1.06,2-2.49,5.29-4.53,6.57-.71.45-1.61.58-2.28,1.1-1.46,1.17-1.11,3.33-3,4.07a10.86,10.86,0,0,0-2.46.93c-.71.5-1.15,1.35-1.91,1.79a10,10,0,0,1-3.07.71c-1.83.35-3.5,1.27-5.34,1.58-2.81.47-5.73.53-8.4,1.63-.22.09-1,.34-1,.57a13.32,13.32,0,0,1,2.69,3.73,25.93,25.93,0,0,1,1.63,5.08,33.44,33.44,0,0,1-1.87,18.16l9.19-3.86c6.2-2.6,13.37-4.2,19.83-1.84,4.59,1.67,9.6,2.11,14.4,2.92,6.41,1.07,12.8,2.27,19.22,3.27,8.44,1.28,16.26,2.44,24.81,2.21,2.85-.07,5.71-.17,8.56-.32,5.7-.29,11.39-.77,17-1.61,3.82-.57,7.76-1.37,10.88-3.66a3,3,0,0,0,0-5c-1.19-.74-2.7-.58-4.09-.42a142.91,142.91,0,0,1-20.38.57c-2.67-.07-5.36-.1-8-.15,1.18-.06,2.38-.15,3.59-.24a81.46,81.46,0,0,0,9.08-1.21c.91-.17,1.81-.36,2.71-.57a84.78,84.78,0,0,0,21.77-8.28c3.37-1.85,7.47-3.95,9.71-7.14A4.17,4.17,0,0,0,262.34,96Z" style="fill:#82c4a5"/><path d="M66.74,137.08c3.24-.72,6.5-1.4,9.71-2.21,6.45-1.64,12.86-3.44,19.19-5.5,4.85-1.58,9.52-3.5,14.4-5a24.63,24.63,0,0,0,7.38-3.18c4.62-3.31,4.94-8,1.14-12.09a12.13,12.13,0,0,0-5.74-3.4c-5-1.4-10.34-1.18-15.43-.61s-10.13,1.6-15.17,2.53c-5.23,1-10.48,1.9-15.78,2.37v27.13Z" style="fill:none"/><path d="M250.78,101.76c-3.59,1.37-6.88,3.39-10.32,5.06a42,42,0,0,1-12.24,3.49c-4.26.66-8.69,1.08-12.72,2.7A18.87,18.87,0,0,0,210,116.4c-.39.35-.77.71-1.15,1.08a91.66,91.66,0,0,0,9.46-.35,81.46,81.46,0,0,0,9.08-1.21c.91-.17,1.81-.36,2.71-.57a84.78,84.78,0,0,0,21.77-8.28c3.08-1.68,6.75-3.6,9.06-6.33A17.79,17.79,0,0,0,250.78,101.76Z" style="fill:#8fcfb1"/><path d="M259.16,94.06a9.55,9.55,0,0,0-3.81.81c-6.51,2.42-12.63,6-19.4,7.59a59.68,59.68,0,0,1-11.24,1.22q-5.91.22-11.83.18c-1.93,0-3.85-.07-5.78-.12-.4,0-.8-.06-1.2-.1a1.7,1.7,0,0,0-.42,1,2.67,2.67,0,0,0,.2.42l0,.05a24.08,24.08,0,0,0,8.94,1.41A82.2,82.2,0,0,0,229,105.18c2.39-.42,4.76-.9,7.15-1.3a62.43,62.43,0,0,0,6.89-1.44,28.28,28.28,0,0,0,6.35-2.78,58.62,58.62,0,0,1,6-3.21,11.65,11.65,0,0,1,6.68-.94A3.84,3.84,0,0,0,259.16,94.06Z" style="fill:#69a388"/><path d="M259.23,78.4a5.76,5.76,0,0,0-1.69.91,38.73,38.73,0,0,0-4,4c-5.3,5.32-11.72,9.53-19.1,11.27a84.91,84.91,0,0,0-10.71,3,27.92,27.92,0,0,0-9.09,5.54c11.15-1.89,22.16-4.72,32.23-10,4.2-2.22,8.46-4.47,11.93-7.72,1.25-1.18,2.47-2.72,2.24-4.42A3.49,3.49,0,0,0,259.23,78.4Z" style="fill:#8fcfb1"/><path d="M257.17,77.72a12.21,12.21,0,0,0-5.24,1.12c-4,1.49-7.86,3.21-11.8,4.82a77.07,77.07,0,0,1-15.91,5c-4.69.82-9.52.89-14.26,1.34-1.33.27-3,.77-3.37,1.76.54,0,1.07,0,1.55,0,2.13-.12,4.27-.3,6.4-.47,2.41-.2,4.82-.48,7.23-.69s4.7-.36,7-.66a40.48,40.48,0,0,0,7.06-1.49,35.17,35.17,0,0,0,5.87-2.57c5.18-2.78,10.32-6.54,16.07-8A4.62,4.62,0,0,0,257.17,77.72Z" style="fill:#69a388"/><path d="M244.56,70.46a7.1,7.1,0,0,0,.57-4.17,4.81,4.81,0,0,0-.4-1,7.64,7.64,0,0,0-1.57.53,20.55,20.55,0,0,0-4.92,3.89,73.62,73.62,0,0,1-9.34,8,54.89,54.89,0,0,1-7.6,3.88c-4.17,1.91-8.7,4.24-10.86,8.3l.49-.14c4.08-1.37,8.23-2.56,12.17-4.3a80.1,80.1,0,0,0,15-8.72A26.72,26.72,0,0,0,244.56,70.46Z" style="fill:#8fcfb1"/><path d="M247,121.42a21,21,0,0,0-6.58-.09,65.31,65.31,0,0,0-7.21,1.2c-2.66.6-5.31,1.28-8,1.64a48.65,48.65,0,0,1-8.27.29c-5.66-.22-11.28-1-16.93-1.37a25.43,25.43,0,0,1-7.25-1.15,12.92,12.92,0,0,1-1.85-.86,30.73,30.73,0,0,1-3.34-1.69,61.53,61.53,0,0,1-7.59-5.46,31.46,31.46,0,0,0-8.52-4.86,32,32,0,0,0-4.87-1.54,21.47,21.47,0,0,0-5.77-.39c-3.64.21-7.22,1-10.87,1.17a.11.11,0,0,1-.12-.06,6.47,6.47,0,0,1-.88.15,43.29,43.29,0,0,1-6.44-.21c-2.23-.09-4.49.13-6.21,1.7a14.3,14.3,0,0,0-3.65,6,25.23,25.23,0,0,0-1.4,6l1.2-.51c6.2-2.6,13.37-4.2,19.83-1.84,4.59,1.67,9.6,2.11,14.4,2.92,6.41,1.07,12.8,2.27,19.22,3.27,8.44,1.28,16.26,2.44,24.81,2.21,2.85-.07,5.71-.17,8.56-.32,5.7-.29,11.39-.77,17-1.61,3.82-.57,7.76-1.37,10.88-3.66a3.52,3.52,0,0,0,.69-.7C247.61,121.57,247.32,121.49,247,121.42Z" style="fill:#8fcfb1"/><path d="M239.38,62.74c-1.73.14-3.18,1.33-4.66,2.18a50.89,50.89,0,0,1-9.86,5.52c-4.46,1.67-8.8,3.76-13.27,5.46-6.71,2.55-14,3.59-21.06,4.69q-4.67.73-9.35,1.3c-.74.09-6.34,2-6.34,1.22V74.27c0-.9.07-1.83,0-2.72,0-.47,0-.68-.51-.57-.36.06-.8.55-1.11.76a14.4,14.4,0,0,1-1.42.85,34.85,34.85,0,0,0-5.11,2.66A2.19,2.19,0,0,0,166,76a1,1,0,0,0,.09,1,1.57,1.57,0,0,0,.92.39c2.41.56,3.72,2.57,4.43,4.81a8.23,8.23,0,0,0,.83,2.25,5.78,5.78,0,0,0,3.45,2.4c2.56.68,5.36.16,7.89-.43,3.1-.73,6.14-1.66,9.25-2.34,4.36-1,8.75-1.78,13.1-2.77a73.75,73.75,0,0,0,12.61-3.77c6.74-2.87,12.35-7.63,18.54-11.45a26.21,26.21,0,0,1,5.61-2.72A6.89,6.89,0,0,0,239.38,62.74Z" style="fill:#69a388"/><path d="M243.15,117a142.91,142.91,0,0,1-20.38.57c-5.65-.14-11.32-.14-17-.4a1.73,1.73,0,0,0,1.15,1.65,5.73,5.73,0,0,0,2.18.25c1,0,2-.08,3.05-.12,3.67-.12,7.27.59,10.93.72a81.06,81.06,0,0,0,11.11-.71,77.81,77.81,0,0,1,9.53-.63,9.63,9.63,0,0,1,4.79,1.13,2.75,2.75,0,0,0-1.3-2C246.05,116.63,244.54,116.79,243.15,117Z" style="fill:#69a388"/><path d="M127.43,123.5c.18-.54.37-1.08.53-1.63a40.48,40.48,0,0,0,1.47-8.89c.09-1.47.12-3,.1-4.42a20.81,20.81,0,0,1,.14-3.62,10.13,10.13,0,0,1,2.74-5.47,12.6,12.6,0,0,1,2.6-2,3.27,3.27,0,0,1,1.94-.64c1.12.11,1.73,1.24,2.14,2.15a20.25,20.25,0,0,0,1.76,3.88c.34.46,1,1.07,1.58,1s.33-.91.23-1.3c-.33-1.25-1-2.54-.94-3.86.05-1,1-1.62,1.85-.94,1.29,1,2,2.74,3,4a6.5,6.5,0,0,0,3.08,2.35c.5.13,1.67.32,1.45-.51a3.53,3.53,0,0,0-.73-1.14c-1.53-1.92-3.68-3.38-4.91-5.53-.5-.88-1.72-3.36-.34-4,.63-.29,1.26.12,1.76.48a9.92,9.92,0,0,0,1.17.84c.46.25,1.37.34,1.46-.36a3,3,0,0,0-.39-1.22,5.27,5.27,0,0,1-.36-1.29,3.28,3.28,0,0,1,.72-2.48c.82-1,1.94-1.9,2.86-2.87a26.58,26.58,0,0,0,2.55-3A16.77,16.77,0,0,1,157,80.1a10.48,10.48,0,0,1,3-1.84,13.32,13.32,0,0,1,3.19-1,10.69,10.69,0,0,1,3.78.21,24.4,24.4,0,0,0,4.51.56,32.59,32.59,0,0,0,3.42-.14V61.35c-5.52,2.82-15.37,6.85-18.86,12.13a60.9,60.9,0,0,0-3.15,5.85c-1.06,2-2.49,5.29-4.53,6.57-.71.45-1.61.58-2.28,1.1-1.46,1.17-1.11,3.33-3,4.07a10.86,10.86,0,0,0-2.46.93c-.71.5-1.15,1.35-1.91,1.79a10,10,0,0,1-3.07.71c-1.83.35-3.5,1.27-5.34,1.58-2.81.47-5.73.53-8.4,1.63-.22.09-1,.34-1,.57a13.32,13.32,0,0,1,2.69,3.73,25.93,25.93,0,0,1,1.63,5.08,33.44,33.44,0,0,1-1.87,18.16Z" style="fill:#69a388"/></g></g></svg>