<svg xmlns="http://www.w3.org/2000/svg" viewBox="0 0 522.72 239.4"><g id="Layer_2" data-name="Layer 2"><g id="OBJECTS"><path d="M347.21,111.88A15,15,0,0,1,348,105a5.89,5.89,0,0,1,2.8-2.57,1.55,1.55,0,0,1,.66-.18c.64,0,1.05.68,1.31,1.28,1.92,4.45,2.66,9.31,3.34,14.11a23.41,23.41,0,0,1,.17,8.3c-.29,1.34-1.05,2.82-2.41,3a2.58,2.58,0,0,1-2.21-1,7.05,7.05,0,0,1-1.15-2.23A61.18,61.18,0,0,1,347.21,111.88Z" style="fill:#3e755a"/><path d="M472,99c-29,1.83-58.38,3.14-87.66,4.52-22.24,1.06-51.72,2.71-50.15,11.7a5.47,5.47,0,0,0,1.1,2.25,24.36,24.36,0,0,0,1.94,2.21,7.19,7.19,0,0,0,2.74,2,26.79,26.79,0,0,0,4.34,1.19,166.6,166.6,0,0,0,16.85,3c6,.66,11.65.45,18.09.44q20.64,0,41.23.54c33.91.91,68.38.64,102.25-.62V94.82C497.38,97,476.64,98.71,472,99Z" style="fill:#eeb799"/><path d="M444.28,105.08c-8.55.6-17.38,1.06-25.79,1.83-5.27.49-10.28,1.28-13.69,2.64-3.85,1.53-5.42,3.63-6.22,5.52s0,4.18,4.74,5.67h0c5.85,2.07,13.51,3.39,22.39,3.78,1.93.09,3.85.13,5.79.14,7.65.56,16.24.42,23.5.24,19.9-.52,39.58-1.36,59.31-2.3l8.41-.38V99c-16.69,1.33-33.31,2.75-50.07,4Q458.49,104.07,444.28,105.08Z" style="fill:none"/><path d="M514.31,122.6c-19.73.94-39.41,1.78-59.31,2.3-7.26.18-15.85.32-23.5-.24-1.94,0-3.86,0-5.79-.14-8.88-.39-16.54-1.71-22.39-3.78h0c-4.73-1.49-5.58-3.68-4.74-5.67s2.37-4,6.22-5.52c3.41-1.36,8.42-2.15,13.69-2.64,8.41-.77,17.24-1.23,25.79-1.83q14.21-1,28.37-2.07c16.76-1.26,33.38-2.68,50.07-4V94.82C497.38,97,476.64,98.71,472,99c-29,1.83-58.38,3.14-87.66,4.52-22.24,1.06-51.72,2.71-50.15,11.7a5.47,5.47,0,0,0,1.1,2.25,24.36,24.36,0,0,0,1.94,2.21,7.19,7.19,0,0,0,2.74,2,26.79,26.79,0,0,0,4.34,1.19,166.6,166.6,0,0,0,16.85,3c6,.66,11.65.45,18.09.44q20.64,0,41.23.54c33.91.91,68.38.64,102.25-.62v-4Z" style="fill:#e3a17d"/><path d="M211.45,145.51a3.69,3.69,0,0,1,2.44-2.89,9.77,9.77,0,0,1,3.92-.46c7.06.24,14.11,1.73,21.14,1.05a60.88,60.88,0,0,0,11.22-2.44q5.64-1.67,11.2-3.57c-11.5,2.63-23.25,4.31-35.07,3.16-4.8-.48-9.68-1-14.19-2.68-1.63-.62-3.37-1.6-3.81-3.29s.8-3.63,2.43-4.47a12.24,12.24,0,0,1,5.35-1l13-.37c5.8-.17,11.36-.05,17.11-1.08,1.35-.24,2.69-.51,4-.81a93.78,93.78,0,0,0,12.91-3.94,18.23,18.23,0,0,0-3.89-.05c-4.37-.06-8.75.09-13.1-.38a81.24,81.24,0,0,1-17.24-3.75c-3.53-1.19-7.09-2.7-9.68-5.38-1.6-1.65-2.79-4.18-1.71-6.2a4.59,4.59,0,0,1,3.55-2.17,12.22,12.22,0,0,1,4.28.46c4.75,1.15,9.52,2.88,14.44,3.11s9.67.9,14.53,1.15A89.37,89.37,0,0,0,274.72,108c4.11-.72,10.14-1.45,13.15-4.73,3.29-3.59-2.63-5.89-5.46-6.93-3.91-1.45-8.34-2.4-9.88-6.93a7.92,7.92,0,0,1,.89-6.81,3.43,3.43,0,0,1,3.05-1.8,4,4,0,0,1,1.26.45c9.38,4.51,20.8,1.69,29.57,8.67a64.83,64.83,0,0,1,4.86,4.67c3.66,3.64,7.72,7.1,12.45,9.25,4.4,2,9.93,1.53,14.58.81,4-.63,8.05-1.41,12-2.35-1.07,2.23-.92,4.07-1,6.53s0,4.94.07,7.41a35.11,35.11,0,0,0,3.41,12.67c.16.34-6.06,0-6.6,0-2.58,0-5.2.14-7.77,0-2.26-.11-4.43-.68-6.71-.32a18.61,18.61,0,0,0-5.67,2.2c-2.95,1.55-5.88,3.15-8.75,4.85-2.48,1.46-4.5,3.59-7,5.09-6.49,3.9-13.4,7-20,10.69-9,5.06-18.51,7.86-28.39,10.48-5.6,1.49-11.26,2.8-17,3.74-3.87.64-7.93,1.09-11.65-.15a3,3,0,0,1-1.59-4.82c.91-1.09,2.42-1.4,3.81-1.67a146.45,146.45,0,0,0,19.89-5.79c1.93-.68,3.87-1.33,5.82-2l-1.54.37a81.41,81.41,0,0,1-9.14,1.76q-1.4.18-2.79.33a86.39,86.39,0,0,1-23.65-.95c-3.84-.69-8.47-1.4-11.64-3.74A4.25,4.25,0,0,1,211.45,145.51Z" style="fill:#77bd9c"/><path d="M338.72,122.92a6.65,6.65,0,0,0-4.29-3.53c-1.63-.34-3.2.2-4.81.45a10.75,10.75,0,0,1-4.26-.27,12.13,12.13,0,0,1-4-1.84,10.59,10.59,0,0,1-2-2.29c-.71-.94-1.57-2.09-2.8-2.34s-2.37.72-3,1.72a16.56,16.56,0,0,0-2.14,6.28,50.87,50.87,0,0,0-.31,8.46c.05,3.95.18,8.27-1.16,12.07l1.42-.83c2.47-1.5,4.49-3.63,7-5.09,2.87-1.7,5.8-3.3,8.75-4.85a18.61,18.61,0,0,1,5.67-2.2c2.28-.36,4.45.21,6.71.32.44,0,.89,0,1.34,0A19.11,19.11,0,0,0,338.72,122.92Z" style="fill:#7dc7a4"/><path d="M350.33,116.25c-.08-2.47-.11-4.94-.07-7.41s-.11-4.3,1-6.53c-4,.94-8,1.72-12,2.35-4.65.72-10.18,1.19-14.58-.81-4.73-2.15-8.79-5.61-12.45-9.25a64.83,64.83,0,0,0-4.86-4.67c-8.77-7-20.19-4.16-29.57-8.67a4,4,0,0,0-1.26-.45,3.43,3.43,0,0,0-3.05,1.8,7.92,7.92,0,0,0-.89,6.81c1.54,4.53,6,5.48,9.88,6.93,2.83,1,8.75,3.34,5.46,6.93-3,3.28-9,4-13.15,4.73a89.37,89.37,0,0,1-20.45,1.54c-4.86-.25-9.7-.92-14.53-1.15s-9.69-2-14.44-3.11a12.22,12.22,0,0,0-4.28-.46,4.59,4.59,0,0,0-3.55,2.17c-1.08,2,.11,4.55,1.71,6.2,2.59,2.68,6.15,4.19,9.68,5.38a81.24,81.24,0,0,0,17.24,3.75c4.35.47,8.73.32,13.1.38a18.23,18.23,0,0,1,3.89.05,93.78,93.78,0,0,1-12.91,3.94c-1.34.3-2.68.57-4,.81-5.75,1-11.31.91-17.11,1.08l-13,.37a12.24,12.24,0,0,0-5.35,1c-1.63.84-2.89,2.7-2.43,4.47s2.18,2.67,3.81,3.29c4.51,1.72,9.39,2.2,14.19,2.68,11.82,1.15,23.57-.53,35.07-3.16q-5.55,1.91-11.2,3.57A61.71,61.71,0,0,1,239,143.21c-7,.68-14.08-.81-21.14-1.05a9.77,9.77,0,0,0-3.92.46,3.69,3.69,0,0,0-2.44,2.89,4.25,4.25,0,0,0,2,3.55c3.17,2.34,7.8,3.05,11.64,3.74a86.39,86.39,0,0,0,23.65.95q1.39-.15,2.79-.33a81.41,81.41,0,0,0,9.14-1.76l1.54-.37c-1.95.66-3.89,1.31-5.82,2a146.45,146.45,0,0,1-19.89,5.79c-1.39.27-2.9.58-3.81,1.67a3,3,0,0,0,1.59,4.82c3.72,1.24,7.78.79,11.65.15,5.72-.94,11.38-2.25,17-3.74,9.88-2.62,19.43-5.42,28.39-10.48,3.16-1.79,6.4-3.43,9.63-5.08,2.77-1.42,5.19-2.17,5.13-5.73-.09-5.4-.17-10.81-.49-16.2-.22-3.9-.57-7.8-.47-11.7a52.53,52.53,0,0,1,.68-7.19c.31-1.85.88-3.91,2.54-4.79,3.24-1.7,7.12,1.32,9.32,3.37q.67.64,1.32,1.32c1.55.53,2.74,2.66,3.19,4,.23.71.58,3.8,1.79,3.28,1-.42,1-1.62,1.05-2.51a3,3,0,0,1,.68-2,.15.15,0,0,1,.21,0c.72.57.8,1.82.91,2.65.17,1.34.2,2.7.43,4,.06.35.13,1.09.47,1.32.57.38,1-.72,1.08-1.09.5-1.68.46-3.34,1.84-4.61,1.2-1.11,3.25-1.1,4.78-1a14.91,14.91,0,0,1,5.33,1.31,9.77,9.77,0,0,1,4.19,3.41c1.26,1.92,1.41,4.38,2.09,6.54a19,19,0,0,0,1.84,4.3,17.45,17.45,0,0,0,2.54,3.15c.27.27.56.53.85.8.91,0,1.56-.05,1.51-.16A35.11,35.11,0,0,1,350.33,116.25Z" style="fill:#599478"/><rect x="0.02" y="67.67" width="222.54" height="158.4" style="fill:#f5cf82"/><polygon points="0 67.87 0 226.27 192.4 226.27 34 67.87 0 67.87" style="fill:#f0c878"/><path d="M215.55,157.14a54.13,54.13,0,0,1-8.6,1c-2.9,0-5.67-1.17-8.56-1.3a5.71,5.71,0,0,0-4.12,1.16,7.75,7.75,0,0,0-2.05,3.74c-1.24,4,.51,8.59,3.73,11.29a16.38,16.38,0,0,0,6.12,3.08c1.86.53,4.44.16,5.83,1.72a2,2,0,0,1,.15,2.78,10.75,10.75,0,0,1-3.64,2.31,50.87,50.87,0,0,1-5.17,2.17,76.17,76.17,0,0,1-11.5,3.07,183.53,183.53,0,0,1-24.08,2.62c-3.52.2-7.07.25-10.58.6s-6.76,1.36-9,4.1a6.82,6.82,0,0,0-1.8,5.44,7.18,7.18,0,0,0,2.88,4.42,8.76,8.76,0,0,0,4.18,1.68,19,19,0,0,1,3.7.6c.83.27,1.75.8,1.76,1.78a2.65,2.65,0,0,1-1.5,2c-1.93,1.22-4.22,1.62-6.34,2.36-3.14,1.09-5.88,3.28-6.47,6.7a10.52,10.52,0,0,0,.71,5.57h81.37V156.54A35.56,35.56,0,0,0,215.55,157.14Z" style="fill:#deb86d"/><polygon points="222.56 67.67 0 67.87 99.13 0 304.1 0.73 222.56 67.67" style="fill:#ffe2a8"/><polygon points="222.56 67.67 0 67.87 50.13 33.55 263.52 34.05 222.56 67.67" style="fill:#f7daa1"/><polygon points="304.1 0.73 222.56 67.67 222.56 226.07 304.07 153.19 304.1 0.73" style="fill:#deb36b"/><polygon points="242.71 51.13 222.56 67.67 222.56 226.07 304.07 153.19 304.08 112.5 242.71 51.13" style="fill:#d1a760"/><text transform="translate(58.75 157.44) scale(0.63 1)" style="font-size:39.864315032958984px;fill:#856341;font-family:InriaSans-Bold, InriaSans Bold;font-weight:700;letter-spacing:0.10399486081330608em">D<tspan x="30.7" y="0" style="letter-spacing:0.09998603297074728em">on</tspan><tspan x="82.68" y="0" style="letter-spacing:0.09599676038595704em">a</tspan><tspan x="105.72" y="0" style="letter-spacing:0.10000558822851585em">tion</tspan></text><rect x="65.85" y="33.23" width="178.8" height="1" style="fill:#c9aa6b"/><polygon points="38.61 41.41 86.9 41.41 106.93 26.04 61.09 26.04 38.61 41.41" style="fill:#ad9a72"/><polygon points="43.94 37.76 91.66 37.76 103.15 28.93 56.85 28.93 43.94 37.76" style="fill:#c2ad80"/><polygon points="205.84 41.37 254.13 41.37 272.61 26.2 226.77 26.2 205.84 41.37" style="fill:#ad9a72"/><polygon points="212.04 36.88 259.59 36.88 269.21 29.01 222.9 29.01 212.04 36.88" style="fill:#c2ad80"/><polygon points="254.44 89.66 254.14 41.37 272.62 26.2 272.89 71.84 254.44 89.66" style="fill:#94825a"/><polygon points="259.91 84.38 259.62 36.9 269.19 29.02 269.47 75.14 259.91 84.38" style="fill:#a38f63"/><path d="M269.82,179.44a37.74,37.74,0,0,1-.62-5.18,8.77,8.77,0,0,1,.7-3.61c.38-.86,1.22-2.64,2.45-2.16a2.42,2.42,0,0,1,.7.48,10.43,10.43,0,0,1,2.64,3.69c.67,1.62,1,3.34,1.54,5,.67,2.23,1.21,4.5,1.68,6.78.17.86.34,1.73.49,2.59s.31,1.46.43,2.2a14.08,14.08,0,0,1,.18,3.24,4.17,4.17,0,0,1-.21,1.46c-.16.32-.57.82-1,.78a.85.85,0,0,1-.39-.17,18.09,18.09,0,0,1-7.3-9.48A32.89,32.89,0,0,1,269.82,179.44Z" style="fill:#3e755a"/><path d="M424.54,150.37c-24,3.88-48.08,8.9-72.5,11.76s-49.47,5.4-74.21,8c-5.75.61-11.47,1.76-15.92,3.82-5.57,2.59-7.94,6.87-5.84,10.59a7.67,7.67,0,0,0,1,1.33,17.21,17.21,0,0,0,7,4.3c4.58,1.64,8.31,1.63,13.64,1.37,11.39-.56,22.84-.77,34.28-.49,3.1.07,6.13.1,9.22.24,66.08,2.93,132.62.79,198.84-2.51V135.56Q472.13,142.69,424.54,150.37Z" style="fill:#eeb799"/><path d="M516.31,184.23c-14.72.65-29.45,1.23-44.17,1.93-14.53.69-29.08,1.37-43.66,1.72s-28.83.06-43.27.08c-13.87,0-27.76.2-41.6-.34-6.65-.26-13.29-.69-19.82-1.4-4.65-.51-9.19-1.41-12.18-3.41-5.54-3.69-3-9.31,1.94-12.82a39.76,39.76,0,0,1,9.28-4.6c-15,1.61-30,3.18-45,4.78-5.75.61-11.47,1.76-15.92,3.82-5.57,2.59-7.94,6.87-5.84,10.59a7.67,7.67,0,0,0,1,1.33,17.21,17.21,0,0,0,7,4.3c4.58,1.64,8.31,1.63,13.64,1.37,11.39-.56,22.84-.77,34.28-.49,3.1.07,6.13.1,9.22.24,66.08,2.93,132.62.79,198.84-2.51v-4.77Z" style="fill:#f2ac86"/><path d="M270.73,178.39a24.89,24.89,0,0,1-.27-5.32,9.29,9.29,0,0,1,.27-1.73c.12-.53.26-1.05.43-1.56.08-.23.16-.46.26-.69a4.76,4.76,0,0,1,.43-.67c-.3,0-.61,0-.92,0l-.82,0a19.14,19.14,0,0,0-4.06.53c-1.33.3-2.65.66-4,.92-1.83.37-3.72.1-5.55.42a9.79,9.79,0,0,1-3.12.42c-.87-.14-1.69-.5-2.56-.57a11.13,11.13,0,0,0-2.59.43c-2,.32-2.79-1.72-4.64-2a24.16,24.16,0,0,0-2.53.2c-2.4-.07-5.29-2.16-7.23-3.39a62,62,0,0,0-5.66-3.45c-6.22-3.05-13.77-1.13-20.37-1.27-2.11,0-4.24-.5-6.35-.71a17.34,17.34,0,0,1-4.8-1,3.83,3.83,0,0,0-2.3-.51c-1.28.32-1.61,2-1.61,3.28a11.18,11.18,0,0,0,1.54,6.34,9.07,9.07,0,0,0,4.4,3.19c4.49,1.66,9.56,1.35,13.92,3.49a3.41,3.41,0,0,1,1.21.87c1,1.2.25,3-.72,4.18-2.59,3.18-7.45,4.23-11.16,5.69-6.68,2.63-13.46,5.4-20.54,6.59-4.72.79-9.51,1.18-14.21,2s-9.73.18-14.54.1a11.92,11.92,0,0,0-4.21.46,4.5,4.5,0,0,0-2.95,2.84c-.6,2.18,1.08,4.35,3,5.6,3.06,2,6.8,2.71,10.44,3.1a79.52,79.52,0,0,0,17.38-.07c4.27-.48,8.45-1.55,12.65-2.43-3.71,2.13-7.35,4.46-11.25,6.24a77.06,77.06,0,0,1-15.93,4.88c-4.16.9-8.36,1.69-12.46,2.7a12.09,12.09,0,0,0-5,2c-1.39,1.14-2.21,3.19-1.4,4.8s2.65,2.11,4.35,2.37c4.7.72,9.49.18,14.21-.37,12.55-1.45,24.32-6.07,35.61-11.52q-4.4,3.17-9.08,5.9c-3.84,2.24-7.59,4.58-12.1,5-3.44.29-6.92,0-10.31.68a1.72,1.72,0,0,0-1.09.56,1.22,1.22,0,0,0-.09,1.07,3.14,3.14,0,0,0,.61.92,22.71,22.71,0,0,0,4.64,3.62A21.36,21.36,0,0,0,175,235a19.39,19.39,0,0,0,7.84.52l.33.26a19.8,19.8,0,0,0,7.14,3.41c2.66.59,4.92.06,7.52-.56a71.48,71.48,0,0,0,15.61-5.23c5.66-2.86,10.39-7.2,15.28-11.16,5-4.11,10-8.37,14.94-12.54,3.73-3.11,7.84-6,11-9.79,4.38-5.29,7.61-5.73,14.33-5.5l10,.35A33.34,33.34,0,0,1,270.73,178.39Z" style="fill:#82c4a5"/><path d="M424.54,150.37c-18.53,3-37.14,6.67-55.91,9.51a34.65,34.65,0,0,0,3.92,1.32,115.44,115.44,0,0,0,19.6,3.11c14.86,1.37,30.14,1.59,45.2,1.48,4.35,0,8.71-.08,13-.21,6.62-.2,13.27-.7,19.84-1.14q11.46-.78,22.86-1.78,13.53-1.18,26.95-2.7v-24.4Q472.13,142.69,424.54,150.37Z" style="fill:#f5c1a4"/><path d="M193.26,203.06l-.09,0a25.56,25.56,0,0,0-3.4.29,4.14,4.14,0,0,0-.93.49.86.86,0,0,1-.3.12c-3.58,2.06-7.1,4.28-10.86,6a77.06,77.06,0,0,1-15.93,4.88c-4.16.9-8.36,1.69-12.46,2.7a12.09,12.09,0,0,0-5,2c-1.39,1.14-2.21,3.19-1.4,4.8a3.76,3.76,0,0,0,1.8,1.65c.1-2.21,1.83-3.91,3.88-5a36.09,36.09,0,0,1,8.39-3c4.75-1.24,9.48-2.59,14.19-4,5.33-1.59,10.66-3.21,15.58-5.86a30.51,30.51,0,0,0,7.12-4.94C193.68,203.18,193.47,203.12,193.26,203.06Z" style="fill:#69a388"/><path d="M195.19,158.66c3,2.6,7.09,3.38,10.95,3.62,4,.25,8,0,12,.11a32,32,0,0,1,5.86.7,27.58,27.58,0,0,1,6.89,2.7c1.12.6,2.21,1.24,3.3,1.89a25.46,25.46,0,0,1,2.88,1.83,6.55,6.55,0,0,1,2.38,4c.71,3.67-.39,7.67,1,11.22.16.41,1.09,2.28,1.6,1.93.33-.22.52-.89.65-1.23s.26-.8.38-1.2c.38-1.28.84-2.95,2.34-3.27,1.34-.29,2.15.91,2.63,2,.68,1.5.92,3.3,2.17,4.48,1.06,1,1.37-.48,1.41-1.34a13.94,13.94,0,0,0-.39-3.28c-.42-1.93-1-4-.53-6,1.11-4.62,6.83-3.17,10.27-3.67a50.72,50.72,0,0,1,7.84-1,5.15,5.15,0,0,1,1.71.31c.05-.38.12-.75.2-1.12.12-.53.26-1.05.43-1.56.08-.23.16-.46.26-.69a4.76,4.76,0,0,1,.43-.67c-.3,0-.61,0-.92,0l-.82,0a19.14,19.14,0,0,0-4.06.53c-1.33.3-2.65.66-4,.92-1.83.37-3.72.1-5.55.42a9.79,9.79,0,0,1-3.12.42c-.87-.14-1.69-.5-2.56-.57a11.13,11.13,0,0,0-2.59.43c-2,.32-2.79-1.72-4.64-2a24.16,24.16,0,0,0-2.53.2c-2.4-.07-5.29-2.16-7.23-3.39a62,62,0,0,0-5.66-3.45c-6.22-3.05-13.77-1.13-20.37-1.27-2.11,0-4.24-.5-6.35-.71a17.34,17.34,0,0,1-4.8-1,6.67,6.67,0,0,0-1.65-.55Z" style="fill:#69a388"/><path d="M146.66,197.16c1.08-.1,2.18,0,3.26-.09l5.58-.24c3.26-.14,6.52-.36,9.77-.54s6.38-.37,9.55-.74a145.39,145.39,0,0,0,19.24-4c5.14-1.32,10.54-2.69,15.12-5.49,1.88-1.16,4.21-2.83,4.86-5.06a4.46,4.46,0,0,0,0-2.66,5.74,5.74,0,0,1-.91,1.53c-2.59,3.18-7.45,4.23-11.16,5.69-6.68,2.63-13.46,5.4-20.54,6.59-4.72.79-9.51,1.18-14.21,2s-9.73.18-14.54.1a11.92,11.92,0,0,0-4.21.46,4.55,4.55,0,0,0-2.88,2.67A6.13,6.13,0,0,1,146.66,197.16Z" style="fill:#69a388"/><path d="M207.46,224a1,1,0,0,0-.07-.24,8.83,8.83,0,0,1-3,2.43c-1.39.83-2.77,1.68-4.18,2.47a64.72,64.72,0,0,1-12.59,5.81,44.6,44.6,0,0,1-4.67,1.11l.22.19c.65.46,1.32.9,2,1.31.49.29,2.36-.43,2.89-.57a31.55,31.55,0,0,0,3.7-1.25c5.12-2.07,9.76-5.33,14.11-8.7C206.6,226,207.63,225,207.46,224Z" style="fill:#69a388"/><path d="M171,228.19c1.91-.14,3.84,0,5.76-.05A18.35,18.35,0,0,0,182,227a49.11,49.11,0,0,0,11.72-5.29c3-2,6-4.41,7.38-7.83a11,11,0,0,0,.49-1.47,3.26,3.26,0,0,0-2.42,1,113.1,113.1,0,0,1-11.13,7.4c-3.84,2.24-7.59,4.58-12.1,5-3.44.29-6.92,0-10.31.68a1.72,1.72,0,0,0-1.09.56,1.18,1.18,0,0,0-.09,1.07,3.14,3.14,0,0,0,.61.92,12.46,12.46,0,0,0,.9.88C167,228.49,169.57,228.3,171,228.19Z" style="fill:#69a388"/></g></g></svg>