<svg xmlns="http://www.w3.org/2000/svg" viewBox="0 0 659.44 199.45"><g id="Layer_2" data-name="Layer 2"><g id="Objects"><path d="M24.7,178.22q-7.29-7-11.28-19.72T9.43,129V85.78q0-16.78,4-29.52T24.7,36.55a23.82,23.82,0,0,1,33.69,0q7.29,7,11.28,19.71t4,29.52V129q0,16.78-4,29.52T58.39,178.22a23.84,23.84,0,0,1-33.69,0Zm26.81-18.35q4.31-4.26,6.66-12.06a62.83,62.83,0,0,0,2.36-18.09V85A62.71,62.71,0,0,0,58.17,67q-2.36-7.81-6.66-12.06a13.81,13.81,0,0,0-19.93,0Q27.28,59.15,24.92,67A62.71,62.71,0,0,0,22.56,85v44.68a62.83,62.83,0,0,0,2.36,18.09q2.35,7.8,6.66,12.06a13.83,13.83,0,0,0,19.93,0Z" transform="translate(-9.43 -29.57)"/><path d="M93.15,74.77H106v153.1H93.15Zm18.6,105.54q-4.53-4.87-6.66-13.79l.88-22.75a41,41,0,0,0,1.51,11.95,16.5,16.5,0,0,0,4.36,7.55,9.92,9.92,0,0,0,7,2.62q6.34,0,9.84-6.44t3.48-18.2V117.66q0-12-3.48-18.56t-9.84-6.61a10.16,10.16,0,0,0-7,2.52,15.75,15.75,0,0,0-4.36,7.39A39.7,39.7,0,0,0,106,114.09l-1.32-21q3-9.54,7.73-14.73T123,73.2a15.77,15.77,0,0,1,11.85,5.19q4.93,5.19,7.51,15.15a96.94,96.94,0,0,1,2.58,24v23.7A92.59,92.59,0,0,1,142.3,165q-2.64,9.86-7.73,15.05a16.49,16.49,0,0,1-12.2,5.19A14.07,14.07,0,0,1,111.75,180.31Z" transform="translate(-9.43 -29.57)"/><path d="M163.16,74.77H176v153.1H163.16Zm18.61,105.54q-4.53-4.87-6.67-13.79l.88-22.75a41.38,41.38,0,0,0,1.51,11.95,16.51,16.51,0,0,0,4.37,7.55,9.9,9.9,0,0,0,6.95,2.62q6.34,0,9.83-6.44t3.49-18.2V117.66q0-12-3.49-18.56t-9.83-6.61A10.15,10.15,0,0,0,181.86,95a15.76,15.76,0,0,0-4.37,7.39A40,40,0,0,0,176,114.09l-1.32-21q3-9.54,7.74-14.73T193,73.2a15.75,15.75,0,0,1,11.84,5.19q4.94,5.19,7.52,15.15a97.46,97.46,0,0,1,2.57,24v23.7a92.59,92.59,0,0,1-2.64,23.7q-2.64,9.86-7.73,15.05a16.47,16.47,0,0,1-12.19,5.19A14,14,0,0,1,181.77,180.31Z" transform="translate(-9.43 -29.57)"/><path d="M243.68,179.63q-6-5.55-9.21-16.2t-3.18-25.64V120.07q0-14.79,3.18-25.33t9.21-16a21.9,21.9,0,0,1,29,0q6,5.51,9.21,16t3.17,25.33v18q0,14.88-3.17,25.43t-9.21,16.09a21.73,21.73,0,0,1-29,0Zm24.92-21.81q3.67-7,3.67-19.71v-18q0-12.69-3.67-19.61t-10.41-6.92q-6.72,0-10.4,6.92t-3.67,19.61v18q0,12.69,3.67,19.71t10.4,7Q264.93,164.85,268.6,157.82Z" transform="translate(-9.43 -29.57)"/><path d="M303.32,74.77h12.82V183.62H303.32Zm31.62,20.55a10.24,10.24,0,0,0-6-1.78q-6.09,0-9.45,5.61t-3.37,15.57l-1.32-21q3-9.75,7.8-15.15t10.56-5.4a15.51,15.51,0,0,1,8.07,2.14,19.45,19.45,0,0,1,6.32,6.35l-8.36,18.87A13.41,13.41,0,0,0,334.94,95.32Z" transform="translate(-9.43 -29.57)"/><path d="M353.23,74.77h29.41V94.06H353.23Zm10.4,102.08Q360,169.56,360,155.3V43.1h12.82V155.51a16,16,0,0,0,.94,6.14,3,3,0,0,0,2.77,2.15h6.16v20.34h-7.42Q367.3,184.14,363.63,176.85Z" transform="translate(-9.43 -29.57)"/><path d="M413.06,140.94q0,11.43,3.49,17.67t9.83,6.24a10.91,10.91,0,0,0,9.75-5.56q3.45-5.56,3.45-15.84l.88,22.76a33.65,33.65,0,0,1-6.53,13.53,14,14,0,0,1-11.13,5.45q-10.82,0-16.69-11.59t-5.87-32.66V74.77h12.82Zm26.52-66.17h12.76V183.62H439.58Z" transform="translate(-9.43 -29.57)"/><path d="M471.83,74.77h12.82V183.62H471.83Zm39.59,42.89q0-11.53-3.58-17.83t-10.06-6.29a10.8,10.8,0,0,0-9.71,5.56q-3.42,5.55-3.42,15.62l-1.32-21q3-9.85,7.89-15.21T502,73.2q10.62,0,16.43,11.58t5.81,32.77v66.07H511.42Z" transform="translate(-9.43 -29.57)"/><path d="M543.73,31.14h12.82v21.4H543.73Zm0,43.63h12.82V183.62H543.73Z" transform="translate(-9.43 -29.57)"/><path d="M571,74.77h29.41V94.06H571Zm10.4,102.08q-3.67-7.29-3.68-21.55V43.1h12.82V155.51a15.74,15.74,0,0,0,1,6.14,3,3,0,0,0,2.76,2.15h6.16v20.34H593Q585.08,184.14,581.41,176.85Z" transform="translate(-9.43 -29.57)"/><path d="M611.1,74.77h13.08l20.05,94.59-7.1,23.17Zm57.77,0L641.08,209.1a41.13,41.13,0,0,1-4,11.8,15.24,15.24,0,0,1-6,6.24,18.8,18.8,0,0,1-8.8,1.88h-2.57V208.47h2.57a7.15,7.15,0,0,0,5.69-2.41q2.1-2.42,3.68-8.29l24.13-123Z" transform="translate(-9.43 -29.57)"/></g></g></svg>