<svg xmlns="http://www.w3.org/2000/svg" viewBox="0 0 434.7 244.78"><defs><style>.cls-1{fill:#feddbe;}.cls-2{fill:#fff;}.cls-3{fill:#3c3c3b;}</style></defs><g id="Layer_2" data-name="Layer 2"><g id="Objects"><path class="cls-1" d="M360,47.4c.26-.54-.44-2.39-1.47-4.48a1.68,1.68,0,0,1-.33.16c-10,3.65-19.57,9.46-28.89,14.43l-4.46,2.37a21.54,21.54,0,0,1-5.56,6.76c-2.62,2.2-5.55,2.51-8.78,1.4l-.14-.06a28.62,28.62,0,0,1-3.65.45c-5.83.52-11.62,1.23-17.39,2.19a57.11,57.11,0,0,0,4.48,11.91c12.12,1.27,32.32,2.82,38.83,0C342.13,78.35,359.27,48.85,360,47.4Z"/><path class="cls-1" d="M253.35,1.38c-12.56,4.86-50.66,44.5-61.88,56.31S171.61,78.55,167,80.17s-35.87,5.27-35.87,5.27L151,166.75s19.83-6.63,25.25-7.18,54.79,11.62,74.94,11.58S343.65,161,351.37,159.27s51.07-20.88,54.9-24.66,2.56-18.65-3.07-21.7-29.08-.54-36.51,3.46S347,123.16,335,121s-27.1-3.55-33.71-12c-3.13-4-7.48-15.3-11.14-26.37a48.6,48.6,0,0,1-4.46-13,1.73,1.73,0,0,1,.55-1.57,1.47,1.47,0,0,1,.89-.47c5.77-1,11.56-1.79,17.39-2.32,1.85-.16,4.7.26,6.19-.85.64-.47,1.3-.93,2-1.37,3.14-2,6.38-3.86,9.66-5.64a1.22,1.22,0,0,1,.76-.42q2.75-1.48,5.51-2.94c9.27-4.88,18.76-10.58,28.62-14.2a1.52,1.52,0,0,1,.93-.06l.16,0c1.45.69,10.1,5.43,15,7.84s13.17,4.14,14.86,5.74,19.29,24.84,28.95,27.86,18-6,17.48-11.71-24.34-29.95-29.05-35.63S376,12,369.92,8.93,265.91-3.48,253.35,1.38Z"/><path class="cls-1" d="M285.73,69.65a1.73,1.73,0,0,1,.55-1.57,1.08,1.08,0,0,1,.2-.16l-2.82-4.51A5.81,5.81,0,0,1,283,62c-12-18.9-26.33-36.25-39.08-54.67-16.49,12.75-43.35,40.72-52.47,50.32C180.26,69.51,171.61,78.55,167,80.17s-35.87,5.27-35.87,5.27L151,166.75s19.83-6.63,25.25-7.18,54.79,11.62,74.94,11.58S343.65,161,351.37,159.27s51.07-20.88,54.9-24.66,2.56-18.65-3.07-21.7-29.08-.54-36.51,3.46S347,123.16,335,121s-27.1-3.55-33.71-12c-3.13-4-7.48-15.3-11.14-26.37A48.6,48.6,0,0,1,285.73,69.65Z"/><path class="cls-2" d="M143,163.8c.13-2,33.23-9.33,33.23-9.33L169,61.15l10.7-1.31.88,9.43,8.23,88.09,1.54,16.4L178,174.81l-.36-7S142.85,165.76,143,163.8Z"/><path class="cls-3" d="M0,69.92V244.78l178.23-65.46-.24-4.51-.36-7s-34.78-2-34.64-4,33.23-9.33,33.23-9.33L169,61.15l-1.33-17.1ZM106.31,170.11a11.22,11.22,0,1,1,13,9.06A11.21,11.21,0,0,1,106.31,170.11Z"/><path class="cls-2" d="M115.38,157.1a11.21,11.21,0,1,1-9.07,13A11.21,11.21,0,0,1,115.38,157.1Z"/></g></g></svg>