<svg xmlns="http://www.w3.org/2000/svg" viewBox="0 0 68.94 68.94"><defs><style>.cls-1{fill:#dcaf59;}.cls-2{fill:#d39b2f;}.cls-3{fill:#e5c382;}</style></defs><g id="Layer_2" data-name="Layer 2"><g id="Objects"><path class="cls-1" d="M68.94,34.47A34.47,34.47,0,1,1,34.47,0,34.47,34.47,0,0,1,68.94,34.47Z"/><path class="cls-2" d="M65.38,34.47A30.91,30.91,0,1,1,34.47,3.57,30.91,30.91,0,0,1,65.38,34.47Z"/><path class="cls-3" d="M62.41,34.47A27.94,27.94,0,1,1,34.47,6.54,27.94,27.94,0,0,1,62.41,34.47Z"/><path class="cls-2" d="M35.75,12V16.1c2.31,0,10.86.36,11.07,8.41H41.44c-.1-3.28-2.72-4.15-5.74-4.26V31c5.23,1.44,11.63,3.38,11.63,10.56A9.91,9.91,0,0,1,42.72,50c-2.36,1.54-5.33,1.79-7.12,2V57H33V51.92c-2.26-.06-5.43-.11-8.51-2.87a8.58,8.58,0,0,1-2.87-7.13h5.23c-.1,2.26,1.23,5.54,6.15,5.64v-12c-8.41-2.51-10.71-4.66-10.71-10.14a8.78,8.78,0,0,1,4.35-7.68,13.48,13.48,0,0,1,6.51-1.6V12Zm-2.66,8.3c-5.53.57-5.74,3.9-5.74,4.82,0,3.43,3.23,4.41,5.74,5.12ZM35.7,47.56c4.46-.05,6.3-2.92,6.3-5.43,0-3.84-3.69-5.07-6.3-5.89Z"/></g></g></svg>