<svg xmlns="http://www.w3.org/2000/svg" viewBox="0 0 503.62 332.02"><defs><style>.cls-1{fill:#feddbe;}.cls-2{fill:#fff;}.cls-3{fill:#3c3c3b;}</style></defs><g id="Layer_2" data-name="Layer 2"><g id="Objects"><path class="cls-1" d="M351.15,148.21,323.51,111s1.92-4.92-5.2-23.53-26-26.83-40.52-28.74-37.48,8.48-48.43,7.66-38.32-23-49.54-23.26-19.71,12.31-18.61,17.51c.63,3,2.88,6.88,4.69,9.65,27.68,3.26,55.58,1.2,83.38,3.11,16.54,1.14,40.27,3.34,45.13,22.72.77,3.08-4,4.39-4.75,1.31-5.15-20.53-37-19.28-53.32-19.63-25.24-.55-50.56.26-75.61-3.22-4.57.4-9.94.73-12.39.3C143.69,74,112.76,62,107.56,60.35S74.45,39,68.42,35.44a40.93,40.93,0,0,0-4.59-2.34c-7.66-.4-22.64,1.18-19.2,10.16,1.89,4.94,6.07,8.89,10,12.24A206.56,206.56,0,0,0,75,70.16c23.65,15.44,48.43,29.22,74.53,40.09,2.89,1.2,1.62,6-1.31,4.75A448.9,448.9,0,0,1,63,68C54.82,62.23,40.63,53.65,39.46,42.6c-.94-8.86,7-12.85,15.3-14.1C45.09,20.79,18.49,0,13.14,0A13.22,13.22,0,0,0,0,13.14c0,7.8,16.83,27.51,28.74,38.18S55.29,87.72,63.5,92.1s77.73,51.45,95.79,56.93,87.59,13.68,104.55,20.8,13.69,23,13.69,23Z"/><path class="cls-1" d="M351.15,148.21,323.51,111s1.92-4.92-5.2-23.53-26-26.83-40.52-28.74a46.66,46.66,0,0,0-13.8.78,5.47,5.47,0,0,1-.79,2.79,37.89,37.89,0,0,1-9.61,11.43C269.68,75,290,78.35,294.41,96.1c.77,3.08-4,4.39-4.75,1.31-5.15-20.53-37-19.28-53.32-19.63-25.24-.55-50.56.26-75.61-3.22-4.57.4-9.94.73-12.39.3C143.69,74,112.76,62,107.56,60.35S74.45,39,68.42,35.44a40.93,40.93,0,0,0-4.59-2.34c-7.66-.4-22.64,1.18-19.2,10.16,1.89,4.94,6.07,8.89,10,12.24A206.56,206.56,0,0,0,75,70.16c23.65,15.44,48.43,29.22,74.53,40.09,2.89,1.2,1.62,6-1.31,4.75A448.9,448.9,0,0,1,63,68C54.82,62.23,40.63,53.65,39.46,42.6c-.94-8.86,7-12.85,15.3-14.1C45.09,20.79,18.49,0,13.14,0A13.22,13.22,0,0,0,0,13.14c0,7.8,16.83,27.51,28.74,38.18S55.29,87.72,63.5,92.1s77.73,51.45,95.79,56.93,87.59,13.68,104.55,20.8,13.69,23,13.69,23Z"/><path class="cls-2" d="M291.79,215.11c1.37-1.4-15.1-31-15.1-31l74.59-56.55-6.13-8.88-7.64,5.61-71.33,52.34-13.28,9.75,7.41,9.91,5.49-4.39S290.41,216.52,291.79,215.11Z"/><path class="cls-3" d="M365,117.15l-13.67,10.37-74.59,56.55s16.47,29.64,15.1,31-26-23.25-26-23.25l-5.49,4.39-3.53,2.81,60,133H503.62ZM296,243a11.21,11.21,0,1,1,15.41,3.71A11.2,11.2,0,0,1,296,243Z"/><path class="cls-2" d="M315.13,231.3a11.21,11.21,0,1,0-3.71,15.42A11.21,11.21,0,0,0,315.13,231.3Z"/></g></g></svg>