<svg xmlns="http://www.w3.org/2000/svg" viewBox="0 0 113.64 119.39"><defs><style>.cls-1{fill:#613241;}.cls-2{fill:#ffc7be;}.cls-3{fill:#ffc7ac;}.cls-4{fill:#0e254a;}.cls-5{fill:#ffa280;}.cls-6{fill:#65354d;}.cls-7{opacity:0.49;}.cls-8{fill:#fff;}.cls-10,.cls-11,.cls-9{fill:none;stroke-miterlimit:10;}.cls-10,.cls-9{stroke:#0e254a;}.cls-9{stroke-width:1.3px;}.cls-10{stroke-width:1.35px;}.cls-11{stroke:#fa7c50;stroke-width:1.44px;}</style></defs><g id="Layer_2" data-name="Layer 2"><g id="Layer_1-2" data-name="Layer 1"><path class="cls-1" d="M101.92,54.81c0,.76-.13,1.52-.21,2.27A51,51,0,0,1,47.27,102c-12.72-.93-23.74,4-32.07-4.4a49.8,49.8,0,0,1-7.09-8.89c-.79-1.27-1.54-2.55-2.22-3.87C1.76,76.72-.59,57,.13,47.3A51.06,51.06,0,0,1,52.46,0c.78,0,1.55.07,2.32.13a50.94,50.94,0,0,1,39.93,24.5l0,0a50.89,50.89,0,0,1,7.19,30.14Z"/><path class="cls-2" d="M34.62,64.51a8.19,8.19,0,0,1-.75,3,9.43,9.43,0,0,1-2.16,3.14,8.88,8.88,0,0,1-6.33,2.39l-5.19-.29-4-.21.63-11.82h0L17,58.55l.1-1.7.09-1.55v-.4h0l9.16.5a8.76,8.76,0,0,1,7.86,6A7.93,7.93,0,0,1,34.62,64.51Z"/><path class="cls-3" d="M97.7,59.71l-1,19.12-.16,2.86a39,39,0,0,1-.69,5.55,40.16,40.16,0,0,1-34.59,31.85c-.52.08-1,.12-1.57.15a37.16,37.16,0,0,1-5.59.09,40.59,40.59,0,0,1-15.19-3.86,0,0,0,0,1,0,0A40.13,40.13,0,0,1,15.92,80.54c0-.46,0-.91,0-1.37a14.66,14.66,0,0,1,0-1.62v-.29L16,76l.2-3.4.62-11.71v-.13L17,58.55l.1-1.7.09-1.55,0-.4a32.25,32.25,0,0,1,1.52-7.82A44,44,0,0,1,20.65,42c.1-.27.2-.5.32-.75a34.43,34.43,0,0,1,2.08-3.94,0,0,0,0,1,0,0A40.33,40.33,0,0,1,34.5,25c.92-.64,1.87-1.26,2.84-1.83A40.92,40.92,0,0,1,88.25,31a38.86,38.86,0,0,1,7.91,14.15,30,30,0,0,1,1.36,6.2A47.81,47.81,0,0,1,97.7,59.71Z"/><path class="cls-2" d="M20.84,60.91l-.65,11.86-.44,8-3.15-.17a5.05,5.05,0,0,1-.68-.07A10.35,10.35,0,0,1,7,69.82a9.54,9.54,0,0,1,3.35-6.72,9.79,9.79,0,0,1,6.48-2.36h0a3.75,3.75,0,0,1,.82,0Z"/><path class="cls-4" d="M83.19,75.67h0a1.81,1.81,0,0,1-1.79-1.81l0-5.75a1.79,1.79,0,0,1,1.8-1.79h0A1.8,1.8,0,0,1,85,68.12l0,5.75A1.81,1.81,0,0,1,83.19,75.67Z"/><path class="cls-4" d="M56.82,75.57h0A1.79,1.79,0,0,1,55,73.77l0-5.76a1.8,1.8,0,0,1,1.8-1.79h0A1.81,1.81,0,0,1,58.64,68l0,5.75A1.79,1.79,0,0,1,56.82,75.57Z"/><path class="cls-5" d="M53,119.19a26.78,26.78,0,0,1-14.08-3.72,0,0,0,0,1,0,0A40.13,40.13,0,0,1,15.92,80.54,10.35,10.35,0,0,1,7,69.82a9.54,9.54,0,0,1,3.35-6.72,9.79,9.79,0,0,1,6.48-2.36v0L17,58.55l.1-1.7.09-1.55v-.4h0a32.25,32.25,0,0,1,1.52-7.82c5.45-3,11-3.57,14.11,3.24,0,0-.32,3.08-.61,7.77-.23,3.5-.45,7.91-.49,12.58-.13,9.61.41,20.35,2.86,26.88C39.79,111.47,53,119.19,53,119.19Z"/><path class="cls-1" d="M99.38,32l-64.83-.23A7.77,7.77,0,0,1,26.83,24h0A7.78,7.78,0,0,1,34.6,16.3l64.84.23a7.76,7.76,0,0,1,7.71,7.77h0A7.75,7.75,0,0,1,99.38,32Z"/><path class="cls-1" d="M113.48,38.34a10.22,10.22,0,0,1-10.06,12L44.3,50.12a15.36,15.36,0,0,0-15.41,15.3l0,9.55a5.79,5.79,0,0,1-5.79,5.75H21.7A5.77,5.77,0,0,1,16,74.93l.1-28.8a4.78,4.78,0,0,1,0-.66,10.05,10.05,0,0,1-1.7-5.64A10.19,10.19,0,0,1,24.62,29.67l78.45.28A10.5,10.5,0,0,1,113.48,38.34Z"/><path class="cls-6" d="M93.31,61.08,80.6,61a2.28,2.28,0,0,1-2.27-2.28h0a2.3,2.3,0,0,1,2.29-2.27l12.7,0a2.29,2.29,0,0,1,2.27,2.29h0A2.28,2.28,0,0,1,93.31,61.08Z"/><path class="cls-6" d="M62.38,61l-12.7,0a2.28,2.28,0,0,1-2.27-2.28h0a2.29,2.29,0,0,1,2.29-2.27l12.7.05a2.28,2.28,0,0,1,2.27,2.28h0A2.29,2.29,0,0,1,62.38,61Z"/><g class="cls-7"><polygon class="cls-8" points="57.93 65.51 63.88 77.28 68.44 76.81 62.25 65.52 57.93 65.51"/><polygon class="cls-8" points="85.98 65.61 91.93 77.38 96.49 76.91 90.29 65.62 85.98 65.61"/></g><rect class="cls-9" x="77.18" y="65.07" width="19.02" height="12.94" rx="2.74" transform="translate(0.25 -0.31) rotate(0.2)"/><rect class="cls-10" x="49.31" y="64.97" width="20.56" height="12.94" rx="2.85" transform="translate(0.25 -0.21) rotate(0.2)"/><path class="cls-11" d="M77.39,93.44a11.75,11.75,0,0,1-9.07,3.27,12.07,12.07,0,0,1-7.65-3.14"/><path class="cls-5" d="M78.33,83.06c0,.06-.25,0-.25,0-.07,2-1.84,3.66-6.22,3.52l-.46-16.1C76.05,76.42,78,79.72,78.33,83.06Z"/><line class="cls-10" x1="70.14" y1="71.54" x2="77.81" y2="71.81"/></g></g></svg>