<svg xmlns="http://www.w3.org/2000/svg" xmlns:xlink="http://www.w3.org/1999/xlink" viewBox="0 0 727.86 470"><defs><style>.cls-1,.cls-13,.cls-19,.cls-21,.cls-25,.cls-26,.cls-8{fill:none;}.cls-2{fill:#968eab;}.cls-3{fill:#0e254a;}.cls-4{fill:#f66438;}.cls-5{fill:#ffac3d;}.cls-6{fill:#323966;}.cls-7{fill:#fff;}.cls-19,.cls-8{stroke:#0e254a;}.cls-13,.cls-19,.cls-21,.cls-25,.cls-26,.cls-8{stroke-miterlimit:10;}.cls-8{stroke-width:5.23px;}.cls-9{fill:#5e1f3f;}.cls-10{fill:#e8eaec;}.cls-11{fill:#d04234;}.cls-12{fill:#fa7c50;}.cls-13,.cls-25,.cls-26{stroke:#968eab;}.cls-13,.cls-19{stroke-width:1.44px;}.cls-14{fill:#122f51;}.cls-15{fill:#65354d;}.cls-16{fill:#4e567a;}.cls-17{fill:#283154;}.cls-18{fill:#ffa280;}.cls-19{stroke-linecap:round;}.cls-20{clip-path:url(#clip-path);}.cls-21{stroke:#0c203a;stroke-width:31.64px;}.cls-22{fill:#afaac4;}.cls-23{fill:#827c91;}.cls-24{fill:#c4c4c9;}.cls-25{stroke-width:1.77px;}.cls-26{stroke-width:1.46px;}.cls-27{fill:#4257a4;}.cls-28{fill:#31477d;}.cls-29{fill:#ffd533;}.cls-30{fill:#a1cf3a;}.cls-31{fill:#709d2b;}.cls-32{fill:#4e8530;}.cls-33{fill:#a0533b;}.cls-34{fill:#4c79c1;}</style><clipPath id="clip-path"><path class="cls-1" d="M404.64,423c3.48-58.43,2.54-112.45-2-123.39-4.67-6.79-32.7-23.5-60.31-35.89l15.51-34.61c19.38,8.69,65.73,31.09,77.66,51.55,5,8.63,9.86,25.49,7.51,85.07-1.24,31.2-2.76,55.65-2.76,55.65Z"/></clipPath></defs><g id="Layer_2" data-name="Layer 2"><g id="Layer_1-2" data-name="Layer 1"><path class="cls-2" d="M700.34,469.74H9.9a9.93,9.93,0,0,1-9.9-9.9H0a9.93,9.93,0,0,1,9.9-9.9H700.34a9.93,9.93,0,0,1,9.89,9.9h0A9.93,9.93,0,0,1,700.34,469.74Z"/><path class="cls-3" d="M546.57,58.12h0a12.43,12.43,0,0,1,.95-18l.61-.54a13.61,13.61,0,0,1,18.71.92h0a12.43,12.43,0,0,1-1,18l-.61.53A13.6,13.6,0,0,1,546.57,58.12Z"/><path class="cls-4" d="M557,83.49,544.09,94.72l-36.62-39,12.9-11.23A28.12,28.12,0,0,1,552.07,41a27,27,0,0,1,6.87,5.3,25.62,25.62,0,0,1-2,37.16Z"/><path class="cls-5" d="M545.33,71.07,532.44,82.29l-25-26.62,12.9-11.23A28.12,28.12,0,0,1,552.07,41a25.5,25.5,0,0,1,2.24,11.84A25.94,25.94,0,0,1,545.33,71.07Z"/><path class="cls-6" d="M544.76,94.57c-3.89,3.47-15.39-2.33-25.68-13s-15.5-22.11-11.6-25.6c3.07-2.75,10.9.3,19.14,7a76.19,76.19,0,0,1,6.53,6,71.23,71.23,0,0,1,6.56,7.82C545.44,84.74,547.7,91.94,544.76,94.57Z"/><path class="cls-7" d="M539.71,76.78a10,10,0,0,1-12.15,2,9.26,9.26,0,0,1-3.7-12.84,9.4,9.4,0,0,1,2.76-3,76.19,76.19,0,0,1,6.53,6A71.23,71.23,0,0,1,539.71,76.78Z"/><polyline class="cls-8" points="611.7 184.41 645.13 76.5 577.44 31.41 563.23 43.49"/><ellipse class="cls-3" cx="576.55" cy="32.05" rx="8.32" ry="8.02"/><path class="cls-6" d="M580.71,32.05a4.17,4.17,0,1,1-4.16-4A4.09,4.09,0,0,1,580.71,32.05Z"/><path class="cls-5" d="M645.35,198.08H559.23A17.11,17.11,0,0,1,576.34,181h51.91a17.11,17.11,0,0,1,17.1,17.11Z"/><rect class="cls-3" x="576.99" y="176.69" width="15.54" height="4.71"/><ellipse class="cls-3" cx="644.47" cy="77.6" rx="11.65" ry="11.23"/><ellipse class="cls-6" cx="644.47" cy="77.6" rx="5.83" ry="5.61"/><path class="cls-9" d="M615.28,145.72h79a6,6,0,0,1,6,6V167a6,6,0,0,1-6,6h-79a0,0,0,0,1,0,0V145.72A0,0,0,0,1,615.28,145.72Z"/><path class="cls-9" d="M586.52,145.72h79a6,6,0,0,1,6,6V167a6,6,0,0,1-6,6h-79a0,0,0,0,1,0,0V145.72A0,0,0,0,1,586.52,145.72Z"/><path class="cls-10" d="M586.52,148.44H661.6a5.18,5.18,0,0,1,5.18,5.18v10.49a5.18,5.18,0,0,1-5.18,5.18H586.52a0,0,0,0,1,0,0V148.44A0,0,0,0,1,586.52,148.44Z"/><rect class="cls-7" x="677.49" y="156.5" width="17.98" height="1.98"/><rect class="cls-7" x="677.49" y="160.74" width="17.98" height="1.98"/><path class="cls-9" d="M628.1,97.36h79a6,6,0,0,1,6,6v15.23a6,6,0,0,1-6,6h-79a0,0,0,0,1,0,0V97.36A0,0,0,0,1,628.1,97.36Z"/><path class="cls-9" d="M599.33,97.36h79a6,6,0,0,1,6,6v15.23a6,6,0,0,1-6,6h-79a0,0,0,0,1,0,0V97.36A0,0,0,0,1,599.33,97.36Z"/><path class="cls-10" d="M599.33,100.08h76.08a5.18,5.18,0,0,1,5.18,5.18v11.49a5.18,5.18,0,0,1-5.18,5.18H599.33a0,0,0,0,1,0,0V100.08A0,0,0,0,1,599.33,100.08Z"/><rect class="cls-10" x="688.16" y="105.99" width="21.99" height="9.71"/><rect class="cls-3" x="690.3" y="108.15" width="17.98" height="1.98"/><rect class="cls-3" x="690.3" y="111.38" width="17.98" height="1.98"/><path class="cls-3" d="M621,171.61h79a6,6,0,0,1,6,6v15.24a6,6,0,0,1-6,6H621a0,0,0,0,1,0,0V171.61A0,0,0,0,1,621,171.61Z"/><path class="cls-3" d="M592.27,171.61h79a6,6,0,0,1,6,6v15.24a6,6,0,0,1-6,6h-79a0,0,0,0,1,0,0V171.61A0,0,0,0,1,592.27,171.61Z"/><path class="cls-10" d="M592.27,175.33h75.08a5.18,5.18,0,0,1,5.18,5.18V190a5.18,5.18,0,0,1-5.18,5.18H592.27a0,0,0,0,1,0,0V175.33A0,0,0,0,1,592.27,175.33Z"/><rect class="cls-10" x="681.1" y="180.24" width="21.99" height="9.71"/><rect class="cls-3" x="683.24" y="182.39" width="17.98" height="1.98"/><rect class="cls-3" x="683.24" y="185.63" width="17.98" height="1.98"/><path class="cls-11" d="M605,124.49v21.25h90.77a10.63,10.63,0,1,0,0-21.25Z"/><path class="cls-12" d="M594.43,124.49v21.25h76.38a10.63,10.63,0,1,0,0-21.25Z"/><path class="cls-10" d="M594.43,128.13v13.63H668a6.82,6.82,0,1,0,0-13.63Z"/><line class="cls-13" x1="599.32" y1="103.29" x2="677.96" y2="103.29"/><line class="cls-13" x1="599.32" y1="107.84" x2="677.96" y2="107.84"/><line class="cls-13" x1="599.32" y1="112.4" x2="677.96" y2="112.4"/><line class="cls-13" x1="599.32" y1="116.95" x2="677.96" y2="116.95"/><line class="cls-13" x1="586.46" y1="152.43" x2="665.56" y2="152.43"/><line class="cls-13" x1="586.46" y1="156.98" x2="665.56" y2="156.98"/><line class="cls-13" x1="586.46" y1="161.54" x2="665.56" y2="161.54"/><line class="cls-13" x1="586.46" y1="166.09" x2="665.56" y2="166.09"/><line class="cls-13" x1="592.45" y1="178.56" x2="671.55" y2="178.56"/><line class="cls-13" x1="592.45" y1="183.11" x2="671.55" y2="183.11"/><line class="cls-13" x1="592.45" y1="186.67" x2="671.55" y2="186.67"/><line class="cls-13" x1="592.45" y1="191.22" x2="671.55" y2="191.22"/><rect class="cls-14" x="147.31" y="220.7" width="23.01" height="249.3"/><path class="cls-15" d="M387,293.1,249.67,303.4,211.56,110l92.25-.32a54.55,54.55,0,0,1,53.56,43.26Z"/><path class="cls-11" d="M221.74,294.35,198.89,125.08a13.88,13.88,0,0,1,11.86-15.56h0a13.88,13.88,0,0,1,15.56,11.86l22.85,169.27a13.87,13.87,0,0,1-11.86,15.56h0A13.86,13.86,0,0,1,221.74,294.35Z"/><rect class="cls-16" x="299.98" y="317.54" width="16.09" height="94.92"/><path class="cls-3" d="M316.07,323.07v21.45L300,338.29V323.77C304,323.58,311.76,323.26,316.07,323.07Z"/><path class="cls-17" d="M345.31,325.22H273.4a7.22,7.22,0,0,1-7.19-7.19h0a7.22,7.22,0,0,1,7.19-7.2h71.91a7.21,7.21,0,0,1,7.19,7.2h0A7.21,7.21,0,0,1,345.31,325.22Z"/><path class="cls-15" d="M380.51,316.59H297.85a18,18,0,0,1-18-18h0a18,18,0,0,1,18-18h82.66a18,18,0,0,1,18,18h0A18,18,0,0,1,380.51,316.59Z"/><rect class="cls-11" x="223.78" y="281.11" width="102.08" height="35.96" rx="17.98"/><path class="cls-3" d="M376.23,444.11H366.17a21.84,21.84,0,0,0-21.82-21.81H271a21.84,21.84,0,0,0-21.81,21.81H239.12A31.91,31.91,0,0,1,271,412.23h73.35A31.91,31.91,0,0,1,376.23,444.11Z"/><rect class="cls-3" x="296.17" y="397.13" width="23.49" height="15.34"/><circle class="cls-3" cx="243.77" cy="453.85" r="8.36" transform="translate(-253.94 586.83) rotate(-76.72)"/><path class="cls-6" d="M243.95,439.56h.88a11,11,0,0,1,11,11v2.54a0,0,0,0,1,0,0H232.95a0,0,0,0,1,0,0v-2.54A11,11,0,0,1,243.95,439.56Z"/><circle class="cls-3" cx="371.67" cy="453.85" r="8.36" transform="translate(-155.43 711.31) rotate(-76.72)"/><path class="cls-6" d="M371.85,439.56h.88a11,11,0,0,1,11,11v2.54a0,0,0,0,1,0,0H360.85a0,0,0,0,1,0,0v-2.54a11,11,0,0,1,11-11Z"/><rect class="cls-3" x="301.73" y="415.35" width="13.33" height="30.2"/><circle class="cls-3" cx="308.67" cy="453.85" r="8.36" transform="translate(-203.95 649.99) rotate(-76.72)"/><path class="cls-6" d="M308.85,439.56h.88a11,11,0,0,1,11,11v2.54a0,0,0,0,1,0,0H297.85a0,0,0,0,1,0,0v-2.54a11,11,0,0,1,11-11Z"/><path class="cls-18" d="M478.07,162.72l22.82,6.54a3.15,3.15,0,0,0,3.89-2.16h0a3.15,3.15,0,0,0-2.16-3.89l-22.81-6.54a3.16,3.16,0,0,0-3.9,2.16h0A3.15,3.15,0,0,0,478.07,162.72Z"/><path class="cls-18" d="M484.36,170.28l18.32,5.25a3.16,3.16,0,0,0,3.9-2.16h0a3.17,3.17,0,0,0-2.16-3.9l-18.32-5.25a3.16,3.16,0,0,0-3.9,2.16h0A3.16,3.16,0,0,0,484.36,170.28Z"/><path class="cls-18" d="M479.16,174.53l21.68,6.22a3.15,3.15,0,0,0,3.89-2.16h0a3.16,3.16,0,0,0-2.16-3.9l-21.68-6.21a3.15,3.15,0,0,0-3.89,2.16h0A3.15,3.15,0,0,0,479.16,174.53Z"/><path class="cls-18" d="M461.07,176.14l23.28,4.64a3.15,3.15,0,0,0,3.7-2.48h0a3.15,3.15,0,0,0-2.47-3.7L462.31,170a3.16,3.16,0,0,0-3.71,2.47h0A3.16,3.16,0,0,0,461.07,176.14Z"/><path class="cls-18" d="M495.43,168.38c-.24-.08-2.83-1.34-5.63-2.7a33.82,33.82,0,0,0-15.53-3.43l-10.3.2s-2,17.07-1.26,16.89,22.65,3.78,22.65,3.78Z"/><rect class="cls-10" x="457.74" y="160.76" width="9.83" height="26.33"/><path class="cls-2" d="M407.84,444.18l59.86-2.25a6.46,6.46,0,0,0,6.22-6.7h0a6.47,6.47,0,0,0-4.57-5.94l-30-9.22-32.34,2Z"/><path class="cls-3" d="M469,443.55l-60.58,2.73-.2-4.34L473.1,439h0A4.34,4.34,0,0,1,469,443.55Z"/><line class="cls-19" x1="439.01" y1="428.85" x2="445.7" y2="421.03"/><line class="cls-19" x1="444.26" y1="430.79" x2="450.95" y2="422.97"/><line class="cls-19" x1="449.32" y1="433.48" x2="456.85" y2="424.6"/><g class="cls-20"><path class="cls-3" d="M404.64,423c3.48-58.43,2.54-112.45-2-123.39-4.67-6.79-32.7-23.5-60.31-35.89l15.51-34.61c19.38,8.69,65.73,31.09,77.66,51.55,5,8.63,9.86,25.49,7.51,85.07-1.24,31.2-2.76,55.65-2.76,55.65Z"/><path class="cls-3" d="M337.16,244.2s70.48,25.41,78.63,45.54,5.27,132.8,5.27,132.8l-23.49,1L319.42,240.36Z"/></g><path class="cls-21" d="M350.31,78.57l30.15,77.06A32.14,32.14,0,0,0,410,174.28l51.85-.51"/><rect class="cls-18" x="306.98" y="0.01" width="31.05" height="79.59" rx="11.95" transform="translate(0.14 -1.15) rotate(0.2)"/><path class="cls-3" d="M369.68,94.08V239.4L264,251,258.85,94.08A47.44,47.44,0,0,1,298,47.38a48.48,48.48,0,0,1,8.24-.7h16A47.41,47.41,0,0,1,369.68,94.08Z"/><path class="cls-3" d="M361.29,252.16a27.07,27.07,0,0,1-27.05,27H288.77a25.81,25.81,0,0,1-4-.3,26.65,26.65,0,0,1-9.3-3.18c-.5-.28-1-.58-1.46-.89a27,27,0,0,1-12.31-22.67l.83-14.43,97.93-.84Z"/><rect class="cls-10" x="304.46" y="43.8" width="36.54" height="170.4"/><polygon class="cls-3" points="323.95 66.17 313.29 51 323.11 45.12 334.61 51 323.95 66.17"/><polygon class="cls-3" points="327.72 218.34 315.82 202.28 320.6 59.03 327.98 59.73 338.79 201.69 327.72 218.34"/><polygon class="cls-7" points="341.63 57.84 324.49 46.1 304.46 57.84 303.04 43.4 341.63 43.4 341.63 57.84"/><path class="cls-2" d="M333.06,433.88l56,21.23a6.48,6.48,0,0,0,8.34-3.76h0a6.46,6.46,0,0,0-1.89-7.25l-24-20.17-30.58-10.74Z"/><path class="cls-3" d="M389.6,457.09,332.74,436l1.51-4.08,60.94,22.58h0A4.36,4.36,0,0,1,389.6,457.09Z"/><path class="cls-14" d="M379.2,363.71c-.79,30.94-3.53,59.23-3.64,60.41l-20.08-2-17.66-1.71c5.12-52.74,4.89-105.8-.45-117.12-6.18-5.82-30.21-16.44-52.56-24.43-3.15-1.13-6.28-2.19-9.3-3.18-.53-.19-1.06-.36-1.59-.53l.13-.36s18.53-32.55,57.56-21.35c8.23,2.36,15,10.17,23.48,15.89a60.27,60.27,0,0,1,10.89,9C373.78,286.94,380.77,303.2,379.2,363.71Z"/><line class="cls-19" x1="365.81" y1="429.97" x2="375.16" y2="425.65"/><line class="cls-19" x1="369.76" y1="433.92" x2="379.11" y2="429.61"/><line class="cls-19" x1="373.24" y1="438.48" x2="383.79" y2="433.56"/><path class="cls-14" d="M299.76,112.36,258.85,95.59V94.08A47.44,47.44,0,0,1,298,47.38l.32.26Z"/><path class="cls-3" d="M355.48,422.16l-17.66-1.71c5.12-52.74,4.89-105.8-.45-117.12-6.18-5.82-30.21-16.44-52.56-24.43a26.65,26.65,0,0,1-9.3-3.18c-.53-.19-1.06-.36-1.59-.53l.13-.36a27,27,0,0,1-12.31-22.67l.83-14.43,15.62,2.15c-.37,1.12-2.49,12.14,1.37,18.75a9.31,9.31,0,0,0,4.87,4.26c6.11,2.33,29.37,8,47.88,16.31,12,5.36,22,11.82,24,19.17C361.21,315.63,356.27,408.05,355.48,422.16Z"/><path class="cls-22" d="M561.77,196.85H467.61a8.41,8.41,0,0,1-7.62-12l32.84-70.05a17.41,17.41,0,0,1,15.75-10h86.69a6.13,6.13,0,0,1,5.55,8.73Z"/><path class="cls-22" d="M468,197.09H400.82a4.94,4.94,0,0,1-4.93-4.93h0a5,5,0,0,1,4.93-4.93H468a5,5,0,0,1,4.93,4.93h0A4.94,4.94,0,0,1,468,197.09Z"/><rect class="cls-3" x="434.24" y="190.5" width="9.59" height="2.88"/><rect class="cls-3" x="424.42" y="190.5" width="6.95" height="2.88"/><path class="cls-23" d="M560.35,196.85H466a4.63,4.63,0,0,1-4.19-6.59l35.37-75.44a17.39,17.39,0,0,1,15.75-10h86.68a6.14,6.14,0,0,1,5.56,8.73l-36.62,78.12A9,9,0,0,1,560.35,196.85Z"/><path class="cls-7" d="M539.73,156.21c-2.24,5.23-6.42,8.46-9.34,7.21s-3.48-6.5-1.24-11.73,6.42-8.47,9.34-7.22S542,151,539.73,156.21Z"/><path class="cls-18" d="M392.52,175.11,416,171.37a3.17,3.17,0,0,0,2.61-3.61h0a3.17,3.17,0,0,0-3.61-2.62l-23.43,3.75a3.17,3.17,0,0,0-2.62,3.61h0A3.17,3.17,0,0,0,392.52,175.11Z"/><path class="cls-18" d="M400,181.45l18.81-3a3.15,3.15,0,0,0,2.61-3.61h0a3.14,3.14,0,0,0-3.6-2.61l-18.82,3a3.16,3.16,0,0,0-2.61,3.61h0A3.16,3.16,0,0,0,400,181.45Z"/><path class="cls-18" d="M395.63,189.66l22.28-3.56a3.16,3.16,0,0,0,2.61-3.61h0a3.16,3.16,0,0,0-3.61-2.61l-22.27,3.56a3.15,3.15,0,0,0-2.61,3.61h0A3.14,3.14,0,0,0,395.63,189.66Z"/><path class="cls-18" d="M402.64,169.05c-.25,0-3.13,0-6.24-.06a33.84,33.84,0,0,0-15.53,3.48L371.63,177s5.29,15.71,6,15.84c17.82,3.22,23.93-4.87,23.93-4.87Z"/><rect class="cls-10" x="380.93" y="168.99" width="7.91" height="25.71"/><path class="cls-14" d="M329.1,197.49a48.05,48.05,0,0,1-43.54-27.84l-.39-.84L260.76,94.27l30.07-9.85,23.79,72.64a16.37,16.37,0,0,0,14.64,8.79l51.85-.52.32,31.64-51.86.52Z"/><rect class="cls-2" x="311.87" y="228.85" width="26.37" height="9.08"/><rect class="cls-23" x="259.5" y="220.7" width="23.01" height="249.3"/><rect class="cls-23" x="553.86" y="220.7" width="23.01" height="249.3"/><rect class="cls-23" x="666.04" y="220.7" width="23.01" height="249.3"/><polygon class="cls-6" points="553.86 220.7 576.87 220.7 576.87 302.93 553.86 314.35 553.86 220.7"/><polygon class="cls-6" points="689.05 220.7 689.05 247.26 666.04 258.68 666.04 220.7 689.05 220.7"/><polygon class="cls-6" points="282.7 220.21 282.7 247.11 259.39 258.68 259.39 220.21 282.7 220.21"/><path class="cls-6" d="M125.7,197.06H642.25a0,0,0,0,1,0,0V218a10.14,10.14,0,0,1-10.14,10.14H135.84A10.14,10.14,0,0,1,125.7,218V197.06A0,0,0,0,1,125.7,197.06Z" transform="translate(767.95 425.2) rotate(180)"/><rect class="cls-24" x="201.29" y="174.03" width="112.81" height="24"/><rect class="cls-10" x="262.23" y="173.76" width="52.17" height="24.55"/><line class="cls-25" x1="201.39" y1="178.45" x2="314.3" y2="178.45"/><line class="cls-25" x1="201.39" y1="183.28" x2="314.3" y2="183.28"/><line class="cls-25" x1="201.39" y1="188.11" x2="314.3" y2="188.11"/><line class="cls-25" x1="201.39" y1="192.93" x2="314.3" y2="192.93"/><rect class="cls-15" x="14.44" y="267.04" width="158.39" height="202.92"/><rect class="cls-15" x="73.3" y="267.04" width="168.39" height="202.92"/><rect class="cls-12" x="84.07" y="281.91" width="147.66" height="53.69"/><rect class="cls-12" x="84.07" y="344.91" width="147.66" height="53.69"/><rect class="cls-12" x="84.07" y="407.92" width="147.66" height="53.69"/><path class="cls-7" d="M183.75,311.63H146.83a2.89,2.89,0,0,1-2.87-2.88h0a2.88,2.88,0,0,1,2.87-2.87h36.92a2.89,2.89,0,0,1,2.88,2.87h0A2.89,2.89,0,0,1,183.75,311.63Z"/><path class="cls-7" d="M185.19,374.19H148.27a2.88,2.88,0,0,1-2.87-2.87h0a2.88,2.88,0,0,1,2.87-2.88h36.92a2.88,2.88,0,0,1,2.87,2.88h0A2.88,2.88,0,0,1,185.19,374.19Z"/><path class="cls-7" d="M185.19,436.76H148.27a2.89,2.89,0,0,1-2.87-2.88h0a2.89,2.89,0,0,1,2.87-2.88h36.92a2.89,2.89,0,0,1,2.87,2.88h0A2.89,2.89,0,0,1,185.19,436.76Z"/><path class="cls-5" d="M375.28,163.84v35.29H345.79V163.84a2.82,2.82,0,0,1,2.82-2.82h23.85A2.82,2.82,0,0,1,375.28,163.84Z"/><path class="cls-4" d="M346.16,193.09c-.39-.22-9.44-5.52-10.25-14.81a8.5,8.5,0,0,1,2.21-6.95c3.24-3.34,8.63-3.15,9.23-3.12l-.24,4.31c-1.09-.05-4.31.17-5.9,1.82a4.32,4.32,0,0,0-1,3.57c.62,7.07,8,11.4,8.09,11.44Z"/><path class="cls-11" d="M368,183.49h-8.45a5.3,5.3,0,0,1-5.3-5.3h0a5.31,5.31,0,0,1,5.3-5.31H368a5.31,5.31,0,0,1,5.31,5.31h0A5.3,5.3,0,0,1,368,183.49Z"/><path class="cls-4" d="M361.5,199.13H345.79V163.84a2.82,2.82,0,0,1,2.82-2.82h.95c0,1.84.55,15.92,4.5,26.06C357.5,195.91,360.56,198.51,361.5,199.13Z"/><line class="cls-13" x1="592.45" y1="178.56" x2="671.55" y2="178.56"/><line class="cls-13" x1="592.45" y1="183.11" x2="671.55" y2="183.11"/><line class="cls-13" x1="592.45" y1="186.67" x2="671.55" y2="186.67"/><line class="cls-13" x1="592.45" y1="191.22" x2="671.55" y2="191.22"/><polygon class="cls-7" points="251.11 174.44 270.04 133.69 288.74 173.96 251.11 174.44"/><rect class="cls-7" x="236.01" y="133.93" width="34.04" height="39.31"/><polygon class="cls-6" points="218.51 174.44 235.77 134.17 254.46 174.44 218.51 174.44"/><rect class="cls-2" x="249.91" y="138.96" width="17.02" height="1.68"/><rect class="cls-2" x="251.35" y="142.32" width="17.02" height="1.68"/><path class="cls-2" d="M260.78,169.48,251.65,148l19.86.07,9.8,20.86Zm-7-20.12,7.9,18.63,17.34-.42-8.42-18.07Z"/><line class="cls-26" x1="254.88" y1="152.45" x2="273.07" y2="152.45"/><line class="cls-26" x1="256.46" y1="156.37" x2="274.64" y2="156.37"/><line class="cls-26" x1="257.76" y1="160.3" x2="275.94" y2="160.3"/><line class="cls-26" x1="259.89" y1="164.22" x2="278.07" y2="164.22"/><line class="cls-26" x1="267.65" y1="149.12" x2="276.1" y2="167.91"/><line class="cls-26" x1="262.61" y1="149.21" x2="271.06" y2="168"/><line class="cls-26" x1="257.67" y1="148.86" x2="266.03" y2="168.36"/><rect class="cls-27" x="673.79" y="104.36" width="4.79" height="66.16" transform="translate(34.3 -115.74) rotate(10.04)"/><rect class="cls-27" x="676.92" y="103.08" width="7.43" height="19.9" transform="translate(30.11 -116.89) rotate(10.04)"/><polygon class="cls-15" points="664.92 178.75 660.14 178.35 665.67 112.42 668.56 108.2 670.45 112.82 664.92 178.75"/><polygon class="cls-14" points="658.28 182.12 653.57 183.03 640.93 118.09 642.56 113.25 645.63 117.18 658.28 182.12"/><polygon class="cls-4" points="668.86 197.22 648.37 197.22 641.65 142.98 675.57 142.98 668.86 197.22"/><polygon class="cls-5" points="676.58 197.22 656.09 197.22 653.07 142.98 683.3 142.98 676.58 197.22"/><path class="cls-27" d="M173.12,240.4v26.8H89.93a13.4,13.4,0,1,1,0-26.8Z"/><path class="cls-28" d="M141.78,258.31v8.89H89.93a13.43,13.43,0,0,1-12.63-8.89Z"/><path class="cls-3" d="M204.57,240.4v26.8h-83.2a13.4,13.4,0,1,1,0-26.8Z"/><path class="cls-10" d="M204.57,245v17.19H125A8.6,8.6,0,1,1,125,245Z"/><path class="cls-5" d="M174.93,187.13v26.8H91.74a13.4,13.4,0,1,1,0-26.8Z"/><path class="cls-29" d="M143.32,196.07v-8.89H91.48a13.42,13.42,0,0,0-12.63,8.89Z"/><path class="cls-12" d="M204.57,187.13v26.8h-83.2a13.4,13.4,0,1,1,0-26.8Z"/><path class="cls-10" d="M204.57,191.72v17.19H125a8.6,8.6,0,1,1,0-17.19Z"/><path class="cls-30" d="M179.77,214.09V240.9H96.57a13.41,13.41,0,0,1-11.82-19.7A13.63,13.63,0,0,1,87.1,218a13.38,13.38,0,0,1,9.47-3.92Z"/><path class="cls-31" d="M166.9,214.09v7.11H84.75A13.63,13.63,0,0,1,87.1,218a13.38,13.38,0,0,1,9.47-3.92Z"/><path class="cls-31" d="M166.9,240.91V233.8H84.75A13.63,13.63,0,0,0,87.1,237a13.38,13.38,0,0,0,9.47,3.92Z"/><path class="cls-32" d="M220.9,214.09V240.9H137.7a13.41,13.41,0,1,1,0-26.81Z"/><path class="cls-10" d="M220.9,218.68v17.19H141.32a8.6,8.6,0,0,1,0-17.19Z"/><polygon class="cls-15" points="70.26 267.06 31.53 267.06 18.83 210.55 82.96 210.55 70.26 267.06"/><polygon class="cls-33" points="84.86 267.06 46.13 267.06 40.42 210.55 97.56 210.55 84.86 267.06"/><path class="cls-34" d="M240.08,194.8H727.86a0,0,0,0,1,0,0v20.95a10.14,10.14,0,0,1-10.14,10.14H250.22a10.14,10.14,0,0,1-10.14-10.14V194.8A0,0,0,0,1,240.08,194.8Z" transform="translate(967.94 420.68) rotate(180)"/></g></g></svg>